<?xml version="1.0" encoding="UTF-8"?> <!-- Generator: Adobe Illustrator 24.3.0, SVG Export Plug-In . SVG Version: 6.00 Build 0) --> <svg xmlns="http://www.w3.org/2000/svg" xmlns:xlink="http://www.w3.org/1999/xlink" version="1.1" id="Capa_1" x="0px" y="0px" viewBox="0 0 128 128" style="enable-background:new 0 0 128 128;" xml:space="preserve"> <style type="text/css"> .st0{fill:#FFFFFF;} .st1{filter:url(#Adobe_OpacityMaskFilter);} .st2{filter:url(#Adobe_OpacityMaskFilter_1_);} .st3{filter:url(#Adobe_OpacityMaskFilter_2_);} .st4{filter:url(#Adobe_OpacityMaskFilter_3_);} .st5{filter:url(#Adobe_OpacityMaskFilter_4_);} .st6{fill:#9A65A4;} .st7{fill:#39A735;} .st8{fill-rule:evenodd;clip-rule:evenodd;fill:#39A735;} .st9{fill-rule:evenodd;clip-rule:evenodd;fill:#FFFFFF;} .st10{fill:#4CE146;} .st11{fill:none;stroke:#383838;stroke-width:0.5;stroke-miterlimit:10;} .st12{fill:#383838;} .st13{fill:none;stroke:#000000;stroke-width:4;stroke-miterlimit:10;} .st14{filter:url(#Adobe_OpacityMaskFilter_5_);} .st15{fill:none;stroke:#000000;stroke-width:0.5;stroke-miterlimit:10;} .st16{fill:#9B66A5;} .st17{fill:none;stroke:#9B66A5;stroke-width:5.7679;stroke-miterlimit:10;} .st18{fill:#DBD6D4;} .st19{clip-path:url(#SVGID_8_);fill:none;stroke:#F7E729;stroke-width:1.9226;stroke-miterlimit:10;} .st20{clip-path:url(#SVGID_10_);fill:none;stroke:#F7E729;stroke-width:1.9226;stroke-miterlimit:10;} .st21{clip-path:url(#SVGID_12_);fill:none;stroke:#F7E729;stroke-width:1.9226;stroke-miterlimit:10;} .st22{clip-path:url(#SVGID_14_);fill:none;stroke:#F7E729;stroke-width:1.9226;stroke-miterlimit:10;} .st23{clip-path:url(#SVGID_16_);fill:none;stroke:#F7E729;stroke-width:1.9226;stroke-miterlimit:10;} .st24{clip-path:url(#SVGID_18_);fill:none;stroke:#F7E729;stroke-width:1.9226;stroke-miterlimit:10;} .st25{clip-path:url(#SVGID_20_);fill:none;stroke:#76BC81;stroke-width:1.9226;stroke-miterlimit:10;} .st26{clip-path:url(#SVGID_22_);fill:none;stroke:#76BC81;stroke-width:1.9226;stroke-miterlimit:10;} .st27{clip-path:url(#SVGID_24_);fill:none;stroke:#76BC81;stroke-width:1.9226;stroke-miterlimit:10;} .st28{clip-path:url(#SVGID_26_);fill:none;stroke:#76BC81;stroke-width:1.9226;stroke-miterlimit:10;} .st29{fill-rule:evenodd;clip-rule:evenodd;fill:#225CA6;} .st30{clip-path:url(#SVGID_28_);fill:none;stroke:#F19570;stroke-width:1.9226;stroke-miterlimit:10;} .st31{clip-path:url(#SVGID_30_);fill:none;stroke:#F7E729;stroke-width:1.9226;stroke-miterlimit:10;} .st32{clip-path:url(#SVGID_32_);fill:none;stroke:#F7E729;stroke-width:1.9226;stroke-miterlimit:10;} .st33{fill:#E01015;} .st34{fill:#1B4D93;} .st35{fill:#5BC3F0;} .st36{fill:#EC7412;} .st37{fill:#FFCF07;} .st38{fill:#E5237B;} .st39{fill:#65B12E;} .st40{clip-path:url(#SVGID_34_);fill:none;stroke:#F7E729;stroke-width:1.9226;stroke-miterlimit:10;} .st41{clip-path:url(#SVGID_36_);fill:none;stroke:#F7E729;stroke-width:1.9226;stroke-miterlimit:10;} .st42{fill:#E1513B;} .st43{stroke:#000000;stroke-miterlimit:10;} .st44{filter:url(#Adobe_OpacityMaskFilter_6_);} .st45{fill:#C0C0C0;} .st46{fill:#FFFFFF;stroke:#FFFFFF;stroke-miterlimit:10;} .st47{fill:#FFFFFF;stroke:#FFFFFF;stroke-width:1.2;stroke-miterlimit:10;} .st48{fill:#FFFFFF;stroke:#FFFFFF;stroke-width:2;stroke-miterlimit:10;} .st49{fill:none;stroke:#FFFFFF;stroke-width:2;stroke-miterlimit:10;} .st50{fill:#FFFFFF;stroke:#FFFFFF;stroke-width:0.5;stroke-miterlimit:10;} .st51{fill:url(#SVGID_38_);} .st52{fill:url(#SVGID_39_);} .st53{fill:url(#SVGID_40_);} .st54{fill:url(#SVGID_41_);} .st55{fill:url(#SVGID_42_);} .st56{filter:url(#Adobe_OpacityMaskFilter_7_);} .st57{fill:#F5F5F5;} .st58{fill:url(#SVGID_44_);} .st59{fill:url(#SVGID_45_);} .st60{fill:url(#SVGID_46_);} .st61{fill:url(#SVGID_47_);} .st62{fill:url(#SVGID_48_);} .st63{fill:url(#SVGID_49_);} .st64{fill:url(#SVGID_50_);} .st65{fill:url(#SVGID_51_);} .st66{fill:url(#SVGID_52_);} .st67{fill:url(#SVGID_53_);} .st68{fill:url(#SVGID_54_);} .st69{fill:#FFFFFF;stroke:#444444;stroke-width:1.5;stroke-linecap:round;stroke-linejoin:round;stroke-miterlimit:10;} .st70{filter:url(#Adobe_OpacityMaskFilter_8_);} .st71{filter:url(#Adobe_OpacityMaskFilter_9_);} .st72{fill:#DF0B18;} .st73{fill:#EE96BE;} .st74{fill:#166C4B;} .st75{fill:#4CBFEC;} .st76{fill:#EC7A28;} .st77{fill:#FFCF17;} .st78{fill:#01498B;} .st79{fill:#E3E15C;} .st80{fill:#1E8CC6;} .st81{fill:#65B147;} .st82{fill:#E41E7B;} .st83{fill:#5F3813;} .st84{fill:#F09271;} .st85{fill:#A36329;} .st86{filter:url(#Adobe_OpacityMaskFilter_10_);} .st87{filter:url(#Adobe_OpacityMaskFilter_11_);} .st88{filter:url(#Adobe_OpacityMaskFilter_12_);} .st89{fill:#DEDEDE;} .st90{filter:url(#Adobe_OpacityMaskFilter_13_);} .st91{opacity:0.75;} .st92{fill:#353535;} .st93{fill:url(#SVGID_61_);} .st94{filter:url(#Adobe_OpacityMaskFilter_14_);} .st95{fill:#FB6880;} .st96{fill:#FCFDFF;} .st97{fill:#707070;} .st98{fill:none;stroke:#707070;stroke-width:0.5;stroke-miterlimit:10;} .st99{fill:#D1D1D1;} .st100{fill:#141414;} .st101{fill:none;stroke:#000000;stroke-width:3;stroke-linejoin:round;stroke-miterlimit:10;} .st102{fill:#2D2D2D;} .st103{fill:#ECECEC;} .st104{fill:#E1E1E1;} .st105{fill:#FAFAFA;} .st106{fill:#FF735D;} .st107{fill:#1A2E35;} .st108{fill:#3BA435;} .st109{fill:#4CDF46;} .st110{opacity:0.77;} .st111{fill:#375A64;} .st112{opacity:0.3;} .st113{opacity:0.65;} .st114{fill:none;stroke:#FFFFFF;stroke-width:0.05;stroke-miterlimit:10;} .st115{fill:#FFC19D;} .st116{fill:#CAFFCA;} .st117{fill:#FF9C6A;} .st118{opacity:0.24;} .st119{fill:none;stroke:#000000;stroke-width:7;stroke-linejoin:round;stroke-miterlimit:10;} .st120{stroke:#000000;stroke-width:2;stroke-miterlimit:10;} .st121{stroke:#000000;stroke-width:0.75;stroke-miterlimit:10;} .st122{stroke:#000000;stroke-width:0.5;stroke-miterlimit:10;} .st123{stroke:#444444;stroke-width:1.5;stroke-linecap:round;stroke-linejoin:round;stroke-miterlimit:10;} .st124{stroke:#000000;stroke-width:0.5;stroke-linecap:round;stroke-linejoin:round;stroke-miterlimit:10;} </style> <g> <g> <g> <path d="M85.3,107.34H42.7c-2.05,0-3.72-1.67-3.72-3.72V24.38c0-2.05,1.67-3.72,3.72-3.72H85.3c2.05,0,3.72,1.67,3.72,3.72v79.24 C89.02,105.67,87.36,107.34,85.3,107.34z M42.7,22.26c-1.17,0-2.12,0.95-2.12,2.12v79.24c0,1.17,0.95,2.12,2.12,2.12H85.3 c1.17,0,2.12-0.95,2.12-2.12V24.38c0-1.17-0.95-2.12-2.12-2.12H42.7z"></path> <path d="M85.3,108.22H42.7c-2.54,0-4.6-2.06-4.6-4.6V24.38c0-2.54,2.06-4.6,4.6-4.6H85.3c2.54,0,4.6,2.06,4.6,4.6v79.24 C89.9,106.16,87.84,108.22,85.3,108.22z M42.7,23.14c-0.68,0-1.24,0.56-1.24,1.24v79.24c0,0.68,0.56,1.24,1.24,1.24H85.3 c0.68,0,1.24-0.56,1.24-1.24V24.38c0-0.68-0.56-1.24-1.24-1.24H42.7z"></path> </g> </g> <g> <g> <path d="M79.72,89.39H48.28c-0.35,0-0.64-0.31-0.64-0.7V35.21c0-0.39,0.29-0.7,0.64-0.7h31.44c0.35,0,0.64,0.31,0.64,0.7v53.48 C80.36,89.08,80.07,89.39,79.72,89.39z M48.92,87.99h30.16V35.91H48.92V87.99z"></path> <path d="M79.72,90.27H48.28c-0.84,0-1.52-0.71-1.52-1.58V35.21c0-0.87,0.68-1.58,1.52-1.58h31.44c0.84,0,1.52,0.71,1.52,1.58 v53.48C81.24,89.56,80.56,90.27,79.72,90.27z M49.8,87.11h28.4V36.79H49.8V87.11z"></path> </g> </g> <g> <g> <path d="M63.54,102.35c-2.53,0-4.6-2.06-4.6-4.6s2.06-4.6,4.6-4.6c2.54,0,4.6,2.06,4.6,4.6S66.08,102.35,63.54,102.35z M63.54,94.76c-1.65,0-3,1.34-3,3s1.34,3,3,3c1.65,0,3-1.34,3-3S65.19,94.76,63.54,94.76z"></path> <path d="M63.54,103.23c-3.02,0-5.48-2.46-5.48-5.48s2.46-5.48,5.48-5.48c3.02,0,5.48,2.46,5.48,5.48S66.56,103.23,63.54,103.23z M63.54,95.64c-1.17,0-2.12,0.95-2.12,2.12s0.95,2.12,2.12,2.12c1.17,0,2.12-0.95,2.12-2.12S64.71,95.64,63.54,95.64z"></path> </g> </g> <g> <g> <path d="M69.63,28.79H58.39c-0.44,0-0.8-0.36-0.8-0.8c0-0.44,0.36-0.8,0.8-0.8h11.24c0.44,0,0.8,0.36,0.8,0.8 C70.43,28.43,70.07,28.79,69.63,28.79z"></path> <path d="M69.63,29.67H58.39c-0.93,0-1.68-0.75-1.68-1.68c0-0.93,0.75-1.68,1.68-1.68h11.24c0.93,0,1.68,0.75,1.68,1.68 C71.31,28.92,70.55,29.67,69.63,29.67z M69.63,27.91C69.63,27.91,69.63,27.91,69.63,27.91L69.63,27.91z"></path> </g> </g> </g> </svg> 