<?xml version="1.0" encoding="UTF-8"?> <!-- Generator: Adobe Illustrator 24.3.0, SVG Export Plug-In . SVG Version: 6.00 Build 0) --> <svg xmlns="http://www.w3.org/2000/svg" xmlns:xlink="http://www.w3.org/1999/xlink" version="1.1" id="Capa_1" x="0px" y="0px" viewBox="0 0 400 250" style="enable-background:new 0 0 400 250;" xml:space="preserve"> <style type="text/css"> .st0{fill:#FFFFFF;} .st1{filter:url(#Adobe_OpacityMaskFilter);} .st2{filter:url(#Adobe_OpacityMaskFilter_1_);} .st3{filter:url(#Adobe_OpacityMaskFilter_2_);} .st4{filter:url(#Adobe_OpacityMaskFilter_3_);} .st5{filter:url(#Adobe_OpacityMaskFilter_4_);} .st6{fill:#9A65A4;} .st7{fill:#39A735;} .st8{fill-rule:evenodd;clip-rule:evenodd;fill:#39A735;} .st9{fill-rule:evenodd;clip-rule:evenodd;fill:#FFFFFF;} .st10{fill:#4CE146;} .st11{fill:none;stroke:#383838;stroke-width:0.5;stroke-miterlimit:10;} .st12{fill:#383838;} .st13{fill:none;stroke:#000000;stroke-width:4;stroke-miterlimit:10;} .st14{filter:url(#Adobe_OpacityMaskFilter_5_);} .st15{fill:none;stroke:#000000;stroke-width:0.5;stroke-miterlimit:10;} .st16{fill:#9B66A5;} .st17{fill:none;stroke:#9B66A5;stroke-width:5.7679;stroke-miterlimit:10;} .st18{fill:#DBD6D4;} .st19{clip-path:url(#SVGID_8_);fill:none;stroke:#F7E729;stroke-width:1.9226;stroke-miterlimit:10;} .st20{clip-path:url(#SVGID_10_);fill:none;stroke:#F7E729;stroke-width:1.9226;stroke-miterlimit:10;} .st21{clip-path:url(#SVGID_12_);fill:none;stroke:#F7E729;stroke-width:1.9226;stroke-miterlimit:10;} .st22{clip-path:url(#SVGID_14_);fill:none;stroke:#F7E729;stroke-width:1.9226;stroke-miterlimit:10;} .st23{clip-path:url(#SVGID_16_);fill:none;stroke:#F7E729;stroke-width:1.9226;stroke-miterlimit:10;} .st24{clip-path:url(#SVGID_18_);fill:none;stroke:#F7E729;stroke-width:1.9226;stroke-miterlimit:10;} .st25{clip-path:url(#SVGID_20_);fill:none;stroke:#76BC81;stroke-width:1.9226;stroke-miterlimit:10;} .st26{clip-path:url(#SVGID_22_);fill:none;stroke:#76BC81;stroke-width:1.9226;stroke-miterlimit:10;} .st27{clip-path:url(#SVGID_24_);fill:none;stroke:#76BC81;stroke-width:1.9226;stroke-miterlimit:10;} .st28{clip-path:url(#SVGID_26_);fill:none;stroke:#76BC81;stroke-width:1.9226;stroke-miterlimit:10;} .st29{fill-rule:evenodd;clip-rule:evenodd;fill:#225CA6;} .st30{clip-path:url(#SVGID_28_);fill:none;stroke:#F19570;stroke-width:1.9226;stroke-miterlimit:10;} .st31{clip-path:url(#SVGID_30_);fill:none;stroke:#F7E729;stroke-width:1.9226;stroke-miterlimit:10;} .st32{clip-path:url(#SVGID_32_);fill:none;stroke:#F7E729;stroke-width:1.9226;stroke-miterlimit:10;} .st33{fill:#E01015;} .st34{fill:#1B4D93;} .st35{fill:#5BC3F0;} .st36{fill:#EC7412;} .st37{fill:#FFCF07;} .st38{fill:#E5237B;} .st39{fill:#65B12E;} .st40{clip-path:url(#SVGID_34_);fill:none;stroke:#F7E729;stroke-width:1.9226;stroke-miterlimit:10;} .st41{clip-path:url(#SVGID_36_);fill:none;stroke:#F7E729;stroke-width:1.9226;stroke-miterlimit:10;} .st42{fill:#E1513B;} .st43{stroke:#000000;stroke-miterlimit:10;} .st44{filter:url(#Adobe_OpacityMaskFilter_6_);} .st45{fill:#C0C0C0;} .st46{fill:#FFFFFF;stroke:#FFFFFF;stroke-miterlimit:10;} .st47{fill:#FFFFFF;stroke:#FFFFFF;stroke-width:1.2;stroke-miterlimit:10;} .st48{fill:#FFFFFF;stroke:#FFFFFF;stroke-width:2;stroke-miterlimit:10;} .st49{fill:none;stroke:#FFFFFF;stroke-width:2;stroke-miterlimit:10;} .st50{fill:#FFFFFF;stroke:#FFFFFF;stroke-width:0.5;stroke-miterlimit:10;} .st51{fill:url(#SVGID_38_);} .st52{fill:url(#SVGID_39_);} .st53{fill:url(#SVGID_40_);} .st54{fill:url(#SVGID_41_);} .st55{fill:url(#SVGID_42_);} .st56{filter:url(#Adobe_OpacityMaskFilter_7_);} .st57{fill:#F5F5F5;} .st58{fill:url(#SVGID_44_);} .st59{fill:url(#SVGID_45_);} .st60{fill:url(#SVGID_46_);} .st61{fill:url(#SVGID_47_);} .st62{fill:url(#SVGID_48_);} .st63{fill:url(#SVGID_49_);} .st64{fill:url(#SVGID_50_);} .st65{fill:url(#SVGID_51_);} .st66{fill:url(#SVGID_52_);} .st67{fill:url(#SVGID_53_);} .st68{fill:url(#SVGID_54_);} .st69{fill:#FFFFFF;stroke:#444444;stroke-width:1.5;stroke-linecap:round;stroke-linejoin:round;stroke-miterlimit:10;} .st70{filter:url(#Adobe_OpacityMaskFilter_8_);} .st71{fill:#DF0B18;} .st72{fill:#EE96BE;} .st73{fill:#166C4B;} .st74{fill:#4CBFEC;} .st75{fill:#EC7A28;} .st76{fill:#FFCF17;} .st77{fill:#01498B;} .st78{fill:#E3E15C;} .st79{fill:#1E8CC6;} .st80{fill:#65B147;} .st81{fill:#E41E7B;} .st82{fill:#5F3813;} .st83{fill:#F09271;} .st84{fill:#A36329;} .st85{filter:url(#Adobe_OpacityMaskFilter_9_);} .st86{filter:url(#Adobe_OpacityMaskFilter_10_);} .st87{filter:url(#Adobe_OpacityMaskFilter_11_);} .st88{fill:#DEDEDE;} .st89{filter:url(#Adobe_OpacityMaskFilter_12_);} .st90{opacity:0.75;} .st91{fill:#353535;} .st92{fill:url(#SVGID_60_);} .st93{filter:url(#Adobe_OpacityMaskFilter_13_);} .st94{fill:#FB6880;} .st95{fill:#FCFDFF;} .st96{fill:#707070;} .st97{fill:none;stroke:#707070;stroke-width:0.5;stroke-miterlimit:10;} .st98{fill:#D1D1D1;} .st99{fill:#141414;} .st100{fill:none;stroke:#000000;stroke-width:3;stroke-linejoin:round;stroke-miterlimit:10;} .st101{fill:#2D2D2D;} .st102{fill:#ECECEC;} .st103{fill:#E1E1E1;} .st104{fill:#FAFAFA;} .st105{fill:#FF735D;} .st106{fill:#1A2E35;} .st107{fill:#3BA435;} .st108{fill:#4CDF46;} .st109{opacity:0.77;} .st110{fill:#375A64;} .st111{opacity:0.3;} .st112{opacity:0.65;} .st113{fill:none;stroke:#FFFFFF;stroke-width:0.05;stroke-miterlimit:10;} .st114{fill:#FFC19D;} .st115{fill:#CAFFCA;} .st116{fill:#FF9C6A;} .st117{opacity:0.24;} .st118{fill:none;stroke:#000000;stroke-width:7;stroke-linejoin:round;stroke-miterlimit:10;} .st119{stroke:#000000;stroke-width:2;stroke-miterlimit:10;} .st120{stroke:#000000;stroke-width:0.75;stroke-miterlimit:10;} .st121{stroke:#000000;stroke-width:0.5;stroke-miterlimit:10;} .st122{stroke:#444444;stroke-width:1.5;stroke-linecap:round;stroke-linejoin:round;stroke-miterlimit:10;} .st123{stroke:#000000;stroke-width:0.5;stroke-linecap:round;stroke-linejoin:round;stroke-miterlimit:10;} </style> <g> <path class="st7" d="M49.06,115.83V93.77c0,0-0.89-4.42-4.79-3.79c-3.88,0.63-3.29,5.37-3.29,5.37v20.48H49.06z M23.93,160.93 V95.35c0,0,0-4.42,2.99-6.62c3.01-2.21,28.14-11.97,28.14-11.97s7.76-0.3,8.96,4.73c1.19,5.03,1.19,6.92,1.19,6.92v89.86 l-16.15-7.89v-35.29h-8.08v31.83L23.93,160.93z"></path> <path class="st8" d="M70.89,70.13v100.89c0,0-0.6,6.31,3.29,8.51c3.89,2.21,29.02,12.94,29.02,12.94s10.46,2.21,10.46-6V53.42 l-15.85,6.29v115.39c0,0-1.5,6.62-7.17,3.78c-2.93-1.46-2.11-6.62-2.11-6.62V63.19L70.89,70.13z"></path> <path class="st8" d="M148.38,74.55c0,0,2.99-0.31,4.19-3.15c1.2-2.84,0.81-3.32,2.9-6.79c2.09-3.47,4.27-3.96,7.27-4.89 c3-0.92,4.78-1.55,4.78-1.55V43.32c0,0-3.31-9.14-8.68-7.88c-5.38,1.27-33.2,12.3-33.2,12.3s-5.99,2.23-5.99,10.42v130.2 c0,0-1.2,9.13,4.2,12.29l5.38,3.15l26.63,10.41c0,0,12.55,3.14,12.55-9.78v-16.07c0,0-6.04-1.13-9.93-2.39 c-3.89-1.26-6.51-7.7-6.51-7.7l-2.39-4.1v21.12c0,0-3,7.57-6.89,5.04c-3.89-2.52-3.6-8.49-3.6-8.49v-28.38c0,0,0-5.36-1.19-10.41 c-1.2-5.05-2.49-6.77-4.85-11.48c-2.38-4.71-2.91-5.21-2.91-9.01c0-3.78,2.09-6.62,1.78-11.05c-0.29-4.41-2.69-10.38-1.78-14.49 c0.89-4.1,2.66-3.47,5.37-9.47c2.7-5.99,2.7-10.41,2.7-10.41V54.06c0,0,2.09-6.62,5.97-5.04c3.89,1.57,4.2,6.31,4.2,6.31V74.55z"></path> <path class="st8" d="M171.1,55.96c-0.29-2.53,0-19.57,0-19.57s-1.18-6.92,7.19-10.08c8.36-3.15,16.45-7.88,21.24-7.57 c4.79,0.31,23.93,9.47,23.93,9.47s6.28,4.08,6.59,10.07c0.3,6,0,14.99,0,14.99s-2.86,1.04-6.45-0.86c-3.59-1.9-4.77-5.15-8.97-5.15 h-4.93V34.81c0,0-0.27-11.65-9.26-11.65c-8.99,0-10.78,12.59-10.78,12.59v12.79c0,0-0.93-0.32-4.5-0.32 c-3.57,0-2.66,0.46-5.66,3.61C176.49,55.01,171.45,58.92,171.1,55.96"></path> <path class="st8" d="M140.4,122.78c0-35.77,27.5-64.77,61.44-64.77c33.94,0,61.46,29,61.46,64.77c0,35.76-27.52,64.76-61.46,64.76 C167.89,187.54,140.4,158.54,140.4,122.78 M199.81,52.17c8.56,0,12.79-3.44,16.47-2.15c3.66,1.28,5.28,5.58,9.36,6.01 c4.09,0.43,5.46-0.86,9.55,0.86c4.06,1.72,4.06,5.32,7.73,9.19c3.67,3.86,8.15,2.58,11.82,7.3c3.67,4.72-0.16,4.55,3.26,10.74 c3.42,6.18,7.9,4.03,9.13,8.76c1.21,4.72-1.23,11-0.82,15.89c0.41,4.9,4.89,7.47,5.3,13.49c0.41,6.01-3.67,4.55-3.67,11.16 c0,6.61,2.86,7.9,1.65,12.63c-1.23,4.73-6.69,5.16-9.54,12.45c-2.86,7.3-0.82,8.76-5.3,13.48c-4.48,4.72-5.71,1.29-11.01,5.59 c-5.29,4.29-3.09,8.59-8.55,11.16c-5.46,2.58-9.55,0-15.25,1.72c-5.71,1.72-6.68,5.32-14.02,6.18c-7.33,0.86-9.37-4.04-15.08-4.46 c-5.71-0.43-1.79,2.05-7.49,0.6c-5.71-1.46-2.86-5.76-9.37-7.48c-6.53-1.71-10.77,0.86-15.66-3.43c-4.88-4.29,0-7.56-5.3-12.02 c-5.3-4.47-6.92-1.46-10.59-7.47c-3.66-6.01,0.41-8.59-2.86-14.6c-3.25-6.01-3.25-6.44-3.25-6.44s-1.79-3.61-3.02-8.32 c-1.21-4.73,2.61-5.16,1.8-11.17c-0.82-6.02-2.77-7.48-2.2-13.92c0.57-6.44,4.23-2.58,6.27-10.73c2.04-8.17-0.4-8.76,3.27-14.34 c3.67-5.59,6.11-1.72,10.59-7.3c4.49-5.58,0.97-6.01,5.87-10.73c4.88-4.73,7.74-1.98,15.08-5.16c7.32-3.17,4.23-7.47,10.75-9.19 C191.25,48.73,191.25,52.17,199.81,52.17"></path> <path class="st8" d="M236.01,33.87l37.71,15.14c0,0,8.39,5.03,8.98,13.86c0.6,8.83,0,53.28,0,53.28s-0.6,4.1-2.39,5.36 c-1.8,1.26-3.31,3.16-3.31,3.16s3.6,2.53,5.4,6.94c1.79,4.42,0.89,5.37,0.89,5.37v59.56l-17.66,8.21V155.3 c0,0,6.12-4.19,5.55-11.59c-0.32-4.12-1.39-7.93-1.23-11.77c0.25-5.6,3.16-4.43,3.46-8.53c0.29-4.11-4.79-11.03-5.08-13.55 c-0.31-2.53,1.79-10.73,1.19-14.52c-0.6-3.78-5.1-7.26-5.1-7.26V56.27c0,0,0.58-2.84-2.99-6c-3.57-3.15-6.28-2.83-6.28-2.83v22.38 c0,0-8.23-1.62-10.63-4.78c-2.4-3.16-2.83-4.36-4.63-6.24c-1.8-1.9-3.9-3.16-3.9-3.16V33.87z"></path> <path class="st8" d="M256.07,173.52v35.33l-19.16,8.52l-0.3-25.85c0,0,1.83-1.59,3.88-5.99c2.41-5.14,5.4-7.28,8.7-7.59 C252.48,177.62,256.07,173.52,256.07,173.52"></path> <path class="st8" d="M199.23,231.23c-7.49-0.63-23.04-9.15-23.04-9.15s-3.59-1.25-3.59-7.56v-24.91c0,0-0.11-0.8,2.59,1.07 c2.69,1.87,3.42,3.33,6.99,3.95c3.58,0.64,1.48-0.31,5.38,0.64c3.89,0.94,4.49,2.2,4.49,2.2v17.35c0,0,0.32,8.82,8.98,8.82 c8.66,0,9.87-8.49,9.87-8.49v-16.41c0,0,0-0.63,3.59-2.21c3.6-1.57,2.39-3.46,5.99-2.84c3.59,0.63,3.88,0,5.98,0 c2.1,0,3.6-0.62,3.6-0.62"></path> <path class="st8" d="M230.05,193.08v22.4c0,0-1.21,5.97-5.1,7.56c-3.89,1.58-18.24,8.83-25.72,8.2"></path> <path class="st8" d="M289.56,158.73v26.8c0,0,1.19,6.31,6.59,5.04c5.39-1.26,30.81-11.67,30.81-11.67s5.09-1.91,5.09-8.2v-40.02 c0,0-1.19-7.26-6.28-9.16c-5.1-1.89-15.55-6.94-15.55-6.94s-4.78,0.02-4.78-7.24V75.49c0,0,1.21-5.37,4.49-5.68 c3.27-0.32,5.07,5.05,5.07,5.05v22.07h15.87v-16.7c0,0-1.5-6.95-6.59-9.47c-5.1-2.52-27.83-10.73-27.83-10.73s-8.67-3.47-8.67,6.94 v52.33c0,0,0,6.94,5.38,8.52c5.4,1.58,14.68,4.1,14.68,4.1s6.57,1.24,6.57,8.5v34.37c0,0,0.01,3.47-3.88,4.42 c-3.89,0.95-2.69,0-3-4.1c-0.29-4.1,0-17.96,0-17.96L289.56,158.73z"></path> <path class="st7" d="M353.22,117.57V94.15c0,0,0.81-4.02,4.36-3.44c3.54,0.57,2.99,4.88,2.99,4.88v21.99H353.22z M376.07,158.61 V95.58c0,0,0-4.02-2.71-6.03c-2.73-2.01-25.6-10.9-25.6-10.9s-7.07-0.27-8.15,4.31c-1.1,4.57-1.1,6.3-1.1,6.3v85.12l14.7-7.18 v-32.12h7.35v28.97L376.07,158.61z"></path> <path class="st8" d="M212.88,115.8c-0.88,0-1.41,1.15-3.32,1.15c-0.19,0-0.66,0.05-0.94-0.09c-0.55-0.31-1.35-0.83-1.54-0.83 c-1.2,0-0.57,1.15-2.56,1.15c-0.2,0-1.53-0.01-2.23-0.26c-0.65-0.22-1.03-0.67-1.69-0.67c-0.98,0-0.81,0.92-1.9,0.92 c-0.18,0-0.52-0.06-2.48-0.07c-1.02-0.01-0.74-0.93-1.7-0.93c-1.13,0-0.66,1.24-1.86,1.24h-2.91l-0.16,0.96l15.23,0.27 c0.24-0.09,0.44-0.39,0.62-0.45c0.27-0.1,0.65-0.09,0.85-0.09c0.19,0,1.02-0.01,1.53,0.09c0.24,0.05,0.33,0.34,0.58,0.58h12.16 v-0.8l-1.28-0.48c-0.25-0.33,0.25-1.48-0.68-1.48c-0.4,0-1.77,0.84-2.59,0.84C215.04,116.88,213.93,115.8,212.88,115.8 M199.45,59.96l0.47,2.22c0.54,2.23,1.22,4.74,2.07,7.02c0.42,0.09,0.86,0.17,1.35,0.18c0.18,0.59,0.34,1.53,0.34,1.72l-0.33,3.25 c-0.29,0.02-0.61,0.18-0.8,0.18c-0.49,0-0.52-1.49-1.01-1.6c-0.44-0.1-1.19-0.1-1.37-0.1l-2.53,0.08l-0.5,6.19 c1.05-0.15,1.84-1.1,2.72-1.1c0.56,0,1.47,1.39,1.86,1.39c0.64,0,0.75-2.03,0.77-2.23v-1.53h0.87v2.32 c0.47-0.01,1.06,0.3,1.57,0.65c0.11,0.85,0.13,1.8,0.29,2.71c0.15,0.85,0.74,2.4,0.74,2.59c0,0.46-1.74,0.58-1.74,0.58l-2.41-0.16 c-0.2,0-0.77-0.09-1.1,0.09c-0.26,0.14-0.42,0.49-0.68,0.64c-0.12,0.08-0.38-0.04-0.58-0.05h-4.57v7.77 c0.48,0.28,1.38,0.89,1.58,0.89c0.32,0,1.31-1.47,2.3-1.83c0.03,0.21,0.11,0.4,0.11,0.6c0,0.82-0.91,2.46-1.87,2.86l4.57,0.73 c-0.63,0.82-0.82,0.77-0.82,1.23c0,0.98,3.04,0.81,3.21,0.81l0.89-0.09c0.28-0.33,0.04-0.98,0.16-1.48 c0.61-0.24,0.86-0.74,0.86-1.24c0-0.19-0.15-0.54-0.24-0.82c-0.19,0.13-0.44,0.57-0.65,0.89l-3.82,0.41 c-0.3-1.01-1.54-2.89-1.54-4.15c0-0.19,0.07-0.38,0.09-0.6c1.03,0,2.8,2.69,3.04,2.69c0.95,0,1.09-3.44,1.1-3.54v-4.69h1.7v5.35 c0.2,0.24,1.67,0.53,1.67,1.42v2.53c0,1.13,1.05,1.48,1.05,2.98c0,0.81-0.47,2.31-1.38,2.99c-0.24,0.17-1.25,0.36-1.59,0.36 l-12.68-0.31l-0.5,14.05c0.65-0.01,0.83-0.2,0.95-0.32c0.17-0.17,0.37-0.56,0.62-0.73c0.28-0.2,0.79-0.26,0.98-0.26 c1.34,0,2.43,1.92,2.86,1.92c0.86,0,2.32-2.16,3.4-2.16c1.13,0,1.42,1.39,1.89,2.25c0.71-0.11,2.06-0.74,2.14-1.79l0.17-12.16 c0.57-0.1,1.1-0.17,1.69-0.32l-0.13,11.39c0.16,0.27,2.45,2.48,2.76,2.48c1.52,0,1.64-2.32,3.4-2.32c1.34,0,3.36,2.17,3.5,2.17 c0.2,0,0.98-0.37,1.4-0.64c0.34-0.22,0.7-1.83,1.35-1.83c0.2,0,1.35,0.46,2.07,0.72v5.04c0.01,0.2,0.47,1.06,0.47,1.25 c0,1.02-1.51,1.66-1.51,2.74c0,0.2,0.3,1.57,0.38,2.32c0.45,0.41,1.05,0.56,1.05,1.08c0,0.79-0.7,1.2-1.24,1.2 c-1.78,0-2.71-3.57-2.55-4.15l-1.88-0.18v1.3l-2.14,0.24c-0.11-0.51-0.12-1-0.35-1.41c-0.21-0.39-1.24-0.42-1.71-0.42l-2.14,0.16 c-0.13,0.71-0.29,1.55-0.38,2.45c-0.51-0.07-0.96-0.07-1.47-0.09c-0.04-0.58,0.08-1.41-0.32-1.91c-0.32,0.44-0.38,1.15-0.65,1.73 c-0.15,0.33-0.64,0.63-0.64,0.83v2.83h-1.25c-0.45-0.59-0.55-1.38-1.27-1.38c-0.19,0-0.39,0.07-0.6,0.15 c-0.34-1.52-0.64-3.07-0.89-4.57c-0.97-0.4-2.25-0.36-3.31-0.36l-6.03,0.23c-1.12,0-1.92,0.05-3.66-0.32 c-0.22,1.73-0.45,3.03-0.37,5.7l-1.83,0.01c-0.24-0.73,0.3-1.76-0.86-1.76c-0.48,0-0.88,0.71-0.7,1.28l-2.39-0.32 c0.19-0.88,1.13-0.62,1.61-0.57l0.38-2.29c0.16-0.1,0.46-0.26,0.65-0.25h1.73c-0.07-0.15,0-0.4,0-1.99 c-0.12-0.15-0.54-0.11-0.68-0.11c-0.13,0-0.55-0.04-0.69,0.11v1.57c-0.29,0.02-0.68,0.17-0.85,0.17c-0.42,0-0.71-0.61-1.46-0.64 l-0.12-1.57c-1.03-0.1-2.69-0.25-2.88-0.25c-0.19,0-0.37-0.02-0.59,0.11v2.27c-0.91,0.01-1.99-1.05-2.29-1.3v-1.1h-2.54 c-0.16,0.52-0.24,1.26-0.22,2.01c-0.53,0.01-1.37-0.45-1.93-0.63c-0.02-0.43-0.09-0.9,0-1.37h-0.66c-0.49,0.52-0.21,1.65-0.62,2.28 c-0.15,0.04-0.35,0.05-0.54,0.05c-1.02,0-1.15-0.65-1.13-1.46v-1.58l-0.57,0.09c-0.1-0.35-0.26-0.95-0.26-1.14 c0-0.83,1.15-2.86,2.34-2.86c0.4,0,1.12,0.59,1.12,1.01c0,0.2-0.54,0.89-0.83,1.33l14.61,0.61l1.1-2.19 c-0.7,0.15-1.15,0.71-1.33,0.71c-0.19,0-1.51-0.85-1.71-0.85c-0.33,0-0.22,0.62-0.67,0.62c-0.19,0-2.26-0.31-3.46-0.41 c-0.56-0.36-0.89,0.27-1.25,0.7h-1.08c-0.09-0.59,0.14-1.14-0.06-1.14c-0.18,0-1.67,0.92-1.85,0.91l-0.55-0.85 c-0.23,0.23-0.76,0.86-0.96,0.86c-0.19,0-0.83-0.16-1.32-0.2c-0.1-0.24-0.27-0.68-0.25-0.87v-0.77l13.11-0.25 c2.32,0,3.77,0.36,3.77-2.81c0-0.51-0.33-0.5-0.52-0.5c-0.6,0-1.67,2.78-3.14,2.78c-0.18,0-0.44-0.08-0.71-0.19v-0.98 c-0.26-0.08-0.71,0.45-1.26,0.92l-0.27-1.87c-0.72,0.31-1.09,1.74-1.45,1.74c-0.94,0-0.86-1.67-0.85-1.73 c-0.28-0.05-0.78,0.99-1.11,1.64c-0.27,0.01-0.45-0.08-0.64-0.2c0.09-0.21,0.13-0.41,0.13-0.56c-0.02-1.42,1.9-2.76,2.89-4.2 c-0.08,0.04-0.29,0.04-0.89,0.07l0.37-0.8c-0.74-0.01-3.13,0.99-3.38,1.05c0.06-0.31,0.13-0.62,0.29-1.03 c-0.27-0.02-1.12,0.27-1.73,0.42c-0.01-0.5,0.3-1.03,0.46-1.4c0.51-1.2,3.31-1.98,4.44-1.97h1.92l-2.07-0.64 c-0.01-0.29,0.07-0.53,0.15-0.87c-0.28-0.04-1.19,0.26-2.03,0.48c0.12-0.56,0.06-1.29,0.66-1.81c-0.19,0-1.42,0.37-2.17,0.59 c0.25-1.79,2.3-2.99,3.61-2.99c0.19,0,0.8,0.02,1.15,0.18c0.7,0.31,1.35,0.75,2.05,1.11c0.19-0.13-0.34-1.01-0.32-1.2v-0.78 c0.54,0,0.77,0.23,0.87,0.3c0.19-0.23,0.24-0.64,0.24-1c0-1.6-1.05-2.84-1.03-3.39c1.22,0.4,2.02,1.71,2.8,2.67l0.7,0.04l0.52,5.11 c0.82,0.04,0.93-1.4,0.93-1.5c0-1.42-1.36-3.61-1.36-4.98c0.21-1.13,1.29-1.33,1.57-1.54c0.09-1.28,0.25-2.67,0.43-4 c0.54-0.33,1.03-0.43,1.65-0.42l-0.33-8.43c0-0.19,0.86-0.9,1.23-1.26v-1.83c-0.01-0.2,0.23-1.33,0.49-1.96l0.69-0.17 c0.23-0.04,0.49-0.02,0.71,0.06L195.54,75c0-2,0.25-4.04,0.55-6.04c0.55-0.37,1.41,0.37,1.68-0.24 C199.06,66,199.08,62.93,199.45,59.96"></path> <path class="st8" d="M200.2,62.89c0.24,0.6,0.47,1.22,0.49,1.69l-0.01-0.05v0.44C200.45,64.3,200.29,63.6,200.2,62.89"></path> <path class="st8" d="M198.93,63.59c0,0.55-0.08,1.17-0.23,1.7C198.7,64.73,198.78,64.12,198.93,63.59"></path> <path class="st8" d="M199.72,73.53c0.18,0,0.66,0.16,1.04,0.26v3.57c-0.6,0.02-1.21-0.34-1.87,0.01c-0.03-3-0.03-3.12-0.1-3.33 C199.12,73.85,199.53,73.53,199.72,73.53"></path> <path class="st8" d="M231.84,83.34c1.04,0.62,1.41,1.76,1.95,2.54c0.16-0.28,0.3-0.71,0.4-1.14h0.34c0.17,0.66,0.4,1.27,0.58,1.89 c0.14,0.44,0.15,0.91,0.51,1.31c0.21,0.03,0.51,0.03,0.86,0.05l-1.57,5.15c0,0.06-0.02,0.17,0.01,0.22c0,0,0,0.04,0.04-0.04 c1.52-3.51,5.29-5.14,7.93-5.82l0.31,0.07c-0.42,0.4-1.35,0.96-1.51,1.38c0.06,0.04-0.08,0.02,0.11,0.02c0.2,0,2.2-0.3,2.38-0.3 c0.19,0,1.21,0.15,1.88,0.3c-0.42,0.24-0.91,0.24-1.33,0.41c-0.71,0.29-1.42,0.67-2.15,1.1v0.15c0.33,0.04,0.73,0.13,1.14,0.36 c-1.35,0.4-2.85,0.58-4.22,1.63c0.14,0.26,0.42,0.46,0.77,0.76c-0.68,0.29-1.37,0.41-1.95,0.62c-0.58,0.22-1.54,0.85-2,1.7v0.07 c1.05-0.56,2.42-0.79,3.48-0.79c2.09,0,3.99,0.82,6.34,2.02l-2.48,0.06c-0.18,0-0.2,0.07-0.31,0.09l0.9,0.95 c-1.46-0.03-2.65-0.24-2.65,0.09c0,0.19,0.51,0.69,0.66,1.09c-0.9-0.13-2.47-0.36-2.65-0.36c-0.18,0-0.87,0.08-1.21,0.07 c0,0-0.03-0.11-0.03,0.08c0,0.6,2.7,0.71,3.41,0.87c0.6,0.14,1.49,0.99,2.23,1.86c-0.85,0.04-1.65-0.02-1.65,0.24 c0,0.19,0.63,0.48,0.79,0.86c0.22,0.5,0.26,1.09,0.4,1.65v0.3c-0.65-0.02-1.71-1-2.2-1.38h-0.18c-0.02,0.26-0.17,0.64-0.3,1 l-2.85-1.78c0.14,0.66,0.47,1.29,0.59,1.77c0.18,0.6,0.27,1.32,0.31,2.01c-0.3-0.07-0.64-0.38-0.84-0.38 c-0.18,0-0.46,0.32-0.64,0.32c-0.14,0-1.41-1.85-2.62-2.17c0,0-0.03,0.05-0.08,0.1c-0.32,5.15-0.55,10.32-0.87,15.53 c-0.89,0.09-1.58,0.34-2.43,0.21c-0.21-0.92-0.49-2.15-0.49-3.19c0-0.37,0.53-0.15,0.53-0.77c0-0.19-0.14-1.44-0.28-2.28 c0.21-0.03,0.35-0.11,0.52-0.08c-0.16-1.02-0.38-2.27-0.38-2.45c0-0.51,0.59-0.18,0.51-0.77l-0.3-2.27 c-0.04-0.26,0.13-0.33,0.29-0.44c0.09-0.66,0.17-1.89,0.17-2.08c0-0.47,0.13-0.58-0.31-0.58c-0.87,0-1.26,0.85-2.31,1.14 c0.21-0.62,0.65-1.55,0.65-1.74v-0.37c-0.04-0.05,0.08-0.02-0.11-0.02c-0.83,0-1.98,2.05-2.35,2.39v-0.48 c-0.03,0.02-0.1-0.06-0.14-0.06l-1.97,0.84c-0.24-1.05,1.35-2.46,1.84-3.41v-0.19c-0.04-0.04,0.05-0.01-0.15-0.01 c-0.86,0-2.11,1.72-2.97,2.54c-0.04-0.45-0.04-0.92-0.03-1.32h-0.31c-0.51,0.01-1.93,1.16-2.04,1.36 c-0.13,0.21-0.25,0.54-0.49,0.81c0.03-0.4,0.03-0.8,0.14-1.1c0.2-0.6,0.72-1.7,0.73-1.89v-0.29c-0.11-0.03-0.24-0.03-0.45-0.05 v-0.33l6.27-4.01v-0.28v0.1c-0.4-0.02-1.11-0.1-1.3-0.1c-1.44,0-2.48,0.6-4.36,0.99c-0.01-0.64-0.79-0.79-1.3-0.71 c0.16-0.32,0.39-0.63,0.53-0.81c-0.06-0.03-0.08-0.01-0.15-0.01l-2.18,0.34c0.39-0.4,0.85-0.77,1.12-1.11 c-0.05-0.03-0.04-0.09-0.24-0.09l-2.16-0.04c1.21-1.48,5.34-2.5,7.05-2.5c1.04,0,4.13,1,4.35,1.01h0.71c0,0,0.03,0.11,0.03-0.08 c0-0.44-2.42-1.31-3.32-1.69c0.41-0.31,0.85-0.68,1.2-1.02c-0.1-0.1-0.78-0.38-0.95-0.38c-0.84,0-1.27,0.5-2.36,0.43 c0.22-0.46,0.74-1,0.74-1.19c0-0.41-0.35-0.24-0.41-0.24c-0.6,0-1.36,0.25-1.98,0.52c0.29-0.56,0.66-1.1,0.96-1.51 c-0.05-0.03,0.08-0.01-0.11-0.01c-0.2,0-0.79,0.16-0.99,0.16c-0.19,0-0.51-0.08-0.78-0.19v-0.32c0.53-0.63,1.73-1.36,1.73-1.54 c0-0.19-0.29-0.52-0.53-0.84c0.21-0.05,0.4-0.12,0.61-0.12c0.18,0,2.36,0.23,3.56,0.48c0.24,0.04,0.56,0.36,0.77,0.5 c0.85,0.57,1.68,1.01,2.45,2.02c0.25-0.26,0.24-0.76,0.71-0.6c-0.17-1.01-0.25-1.7-0.35-2.63c0.16,0.09,0.16,0.23,0.33,0.23h0.39 v-0.87c-0.01-0.2-0.69-1.58-1.05-2.51c0.47,0.14,0.89,0.28,1.23,0.37c0,0,0.03,0.11,0.03-0.09c0-0.19-0.23-0.57-0.22-0.75V83.34z"></path> <path class="st8" d="M197.5,86.11c0.18,0,0.25,0.08,0.33,0.12c0.19,0.71,0.27,2,0.27,2.19l-0.17,2.98 c-0.49,0.1-1.03,0.18-2.01,0.21c0.3-0.34,0.1-0.33,0.09-0.56c-0.07-0.7-0.1-1.94-0.1-2.13c0-0.19,0-1.36,0.12-1.99 C196.49,86.66,197.32,86.11,197.5,86.11"></path> <path class="st8" d="M201.72,86.26c0.69,0,1.05,0.73,1.05,1.2l-0.42,4.27c-0.3-0.37-0.8,0-1.04,0c-0.39-0.8-0.34-1.63-0.34-2.34 c0-0.19,0.16-1.98,0.26-2.91C201.37,86.35,201.52,86.26,201.72,86.26"></path> <path class="st8" d="M192.61,93.84c0.66,0.02,1.67,1.12,1.94,1.8h-1.94V93.84z"></path> <path class="st8" d="M146,115.89c-0.26,0.44-0.4,2.04-0.38,2.14v4.63c0.41-0.37,0.62-0.38,0.98-0.38l0.32,0.01 c0.3,0.12,0.57,0.51,0.87,0.76c0.12-0.19,0.24-0.45,0.25-0.61l0.1-1.99l-0.03-1.47h-0.53c-0.17,0.16-0.16,0.38-0.34,0.52 c-0.9-0.61-1.21-0.84-1.21-1.47c0-0.65,0.09-0.87,1.04-0.86c0.02-0.36,0.17-0.82,0.17-1.02L146,115.89z M165.91,94.36 c0.85,0,1.57,2.13,1.62,2.5c0.28,0.04,0.88-0.33,1.35-0.56c-0.06,0.39-0.21,0.96-0.21,1.15v0.81c1.69-0.83,1.72-0.79,1.72-0.79 c-0.24,0.64-1.55,2.77-1.57,3.61v0.71c0.08-0.02,0.21,0.05,0.38,0.05c0.19,0,0.34-0.14,0.66-0.3v0.5c0.5,0.03,1.23-2.55,1.64-3.18 c0.6-0.93,2.7-2.73,3.66-2.73c0.2,0,0.27,0.01,0.46,0.12c0,0.45-0.32,0.86-0.54,1.07c0.13,0.13,2.56-1.42,3.48-1.42 c0.31,0,0.65,0.05,0.98,0.39c-0.1,0.11-1.96,1.35-1.96,1.84c0,0.45,0.44,0.45,0.97,0.44l-1.36,1.06c0.01,0.05,0.06,0.14,0.23,0.35 c-0.7,0.6-2.27,1.58-2.27,1.78c0,0.19,0.27,0.31,0.46,0.46l-1.89,1.02c0.31,0.44,1.01,0.33,1.6,0.37c1.57,0.1,1.76,0.08,1.99,0.01 v0.81c-1.93,0.47-4.03,0.21-6.02,1.68c1.6,0.26,3.57-0.01,5.33,1.18c0.04,0.64,0.26,1.84,0.26,2.03c0,0.44-1,0.83-1.26,1.23 c-0.35-0.16-0.74-0.47-1.1-0.69l-0.21,0.49c0.72,0.45,1.55,0.83,2.35,1.28c-0.21,0.14-0.46,0.23-0.46,0.43 c0,0.19,0.53,0.93,0.51,1.13v0.34c-0.18,0.1-0.44,0.1-0.63,0.1c-0.2,0-1.03-0.15-1.72-0.33c0.02,0.1-0.06,0.33-0.09,0.55 c-0.8-0.19-2.39-0.91-3.33-0.91c-2.11,0-2.22,2.73-2.23,3.87v3.04h-1.29c0.39,0.43,0.01,1.35,0,1.94c-0.73,0.03-1.4,0.1-2.14,0.16 c-0.1-0.82-0.25-1.6-0.3-2.39h-2.32c-0.13,1.57-0.19,1.79-0.22,3.32l-1.59-0.1c-0.05-0.18-0.27-0.63-0.77-0.68l-0.13-2.11 c-0.1-0.13-0.2-0.18-0.35-0.18l-5.08-0.23l-0.62,0.01l-0.21,2.91h-0.42c-0.18,0.01-1.01-0.17-1.4-0.42 c-0.88-0.52-0.72-1.69-0.7-2.45c-0.25,0.02-0.56-0.05-1.33-0.17c0.35,0.47,0.02,1.62,0.02,2.27l0.22,2.2 c0.09,0.04,1.5-0.42,1.79-0.42c0.18,0,0.74,0.08,1.16,0.27c0.01,0.86-1.46,1.1-1.77,1.21c-0.45,0.18-0.87,0.95-0.98,1.25 l-0.92,0.13c-1.71,0-2.18-1.39-3.09-1.39c-0.66,0-1.94,0.83-2.31,1.54c-0.72-0.27-2.21-0.55-2.05-1.62h-0.54 c-0.18,0.01-0.5,0.07-0.87,0.31c-0.05-0.46-0.17-0.97-0.02-1.41c0.09-0.28,0.5-0.59,0.7-0.59c0.18,0,1.58,0.61,1.76,0.61 c1.36,0,1.36-4.47,1.36-4.78c0-0.19,0-0.92-0.05-1.38c-0.08-0.69-0.13-1.47-0.34-2.23c-0.08-0.31-0.44-0.9-0.44-1.1 c0-0.2,0.52-0.49,0.74-0.81c0.22-0.28,0.32-0.58,0.36-0.9c0.31-0.13,0.75-0.29,0.94-0.29c1,0,0.95,0.83,1,1.7 c0.24-0.22,0.53-0.59,0.87-1c0.42,0.16,1.12,0.61,1.3,0.62h0.37v-0.63c-0.01-0.51-0.47-1.44-0.79-1.52 c-0.88-0.25-1.88-0.25-2.91-0.51c-0.01-1.28,2.47-4.22,3.18-4.43c0.34,0.5,0.63,1.06,0.85,1.58c0.56,1.29,0.57,3.33,2.54,3.81 l11.51,0.4c0.16,0.66,0.55,1.72,0.55,1.91c0,0.78-0.84,0.81-1.48,0.99c-0.18-0.74-0.48-1.07-1.1-1.08h-0.77 c0.03,0.09-0.05,0.32-0.08,0.61c-0.5,0.03-1.37,0.18-1.55,0.18c-0.2,0-0.44-0.57-0.61-0.77c-0.7,0.55-0.34,1.08-1.2,1.08 c-0.21,0-0.7-0.15-1.01-0.2l-0.4-0.89h-4.62c-1.26,0.01-1.05,1.34-1.82,2.47l9.3,0.4c0.14-0.4,0.62-0.4,0.88-0.4 c1.84,0,1.96,0.62,2.82,0.62c1.08,0,1.14-0.54,1.71-0.54c0.25,0,1.34,0.6,1.47,0.78l0.12-0.56c-0.01-0.19-1.14-2.25-1.13-2.45 v-0.54h0.73c0.41-0.01,1.66,2.63,1.86,2.93l0.19-1.55c0-0.43,0.22-0.67-0.73-0.56c0.18-1.27-0.78-2.38-1.74-2.48 c0.06-0.45,0.36-1,0.36-1.19c-0.63-0.31-0.97,0.16-1.61,0.22c-0.38-0.08-1.1,0.16-1.28,0.16c-0.21,0-0.38-0.01-0.56-0.11v-0.39 c0.77-0.79,2.17-1.89,2.17-2.08l-2.99,1.19c-0.03-0.22-0.1-0.45-0.08-0.7h-0.32c-0.35,0.01-2.2,1.12-2.44,1.25 c-0.13-0.19-0.14-0.38-0.12-0.56c-0.68,0.1-1.07,0.17-1.81,0.22c1.95-3.16,5.07-4.1,7.56-4.68l-1.37-0.17 c0.07-0.38,0.14-0.55,0.14-0.74c0-0.31-0.37-0.15-0.42-0.15c-1.14,0-1.02,0.92-1.53,0.92c-0.21,0-0.34-0.31-0.53-0.31 c-0.2,0-0.52,0.15-0.89,0.22v-0.69h-0.91c-0.2,0.01-0.19,0.06-0.37,0.15c1.26-2.12,2.91-2.84,4.51-2.84c0.18,0,1.44,0.16,2.2,0.33 l0.89,0.24c0.15-0.6-1.32-1.88-1.47-1.94c-0.28-0.12-0.57-0.25-0.88-0.32c0.61-0.08,1.29-0.15,1.91-0.13 c0.06-0.69-1.09-1.98-1.37-2.2c0.68-0.06,1.28,0.02,1.91,0.04C165.63,96.95,165.54,95.62,165.91,94.36"></path> <path class="st8" d="M242.16,95.27c0.85,0.13,1.8,0.52,2.64,0.99C244.02,95.97,243.11,95.59,242.16,95.27"></path> <path class="st8" d="M249.66,98.54h0.41c0.52-0.01,1.1,2.13,1.29,2.53c0.16-0.35,0.38-0.79,0.58-1.31c0.8,0.59,0.43,1.33,0.6,2.09 h0.38c0.19-0.3,0.35-0.7,0.74-0.93c0.04,0.3,0.11,0.61,0.11,0.8c0,0.78-0.68,2.59-0.69,3.21v0.33c0.08-0.03,0.24-0.11,0.43-0.08 v0.38c1.76-0.94,3.53-2.87,5.16-2.95l0.3,0.07c-0.66,0.59-1.81,1.41-2.2,2.24c0.07,0.03-0.03,0.01,0.16,0.01 c0.2,0,1.12-0.23,1.72-0.27c-0.49,0.6-1.18,0.85-1.43,1.54c0.63,0.05,1.31,0.2,2.05,0.34l-3.71,1.45v0.45h0.54l-1.13,1.13 c0.8,1.07,2.6,1.62,3.11,2.97c0.02,0.09,0.21,0.22,0.2,0.42v0.67c-0.3-0.07-0.7-0.37-0.89-0.37c-0.25,0-0.37,0.85-0.74,0.85 c-0.21,0-1.48-0.62-2.09-0.93c-0.31,0.74-0.21,1.73-0.36,2.68h-0.39c-0.49-0.66-0.52-0.91-1.05-0.91c-0.2,0-0.45,0.14-0.73,0.31 c-0.42-0.49-0.16-0.7-0.55-0.7c-0.83,0-0.99,2.44-1.02,3.02c-0.07,1.31-0.08,1.6-0.03,2.2c-0.46-0.35-1.12,0.02-1.52,0.01 c-0.1-0.51-0.1-1.42-0.1-1.61c0-0.2,0.16-1.86,0.32-3.12c0,0,0.09-0.04-0.09-0.04c-0.2,0-0.69,0.77-0.86,0.77 c-0.41,0-0.42-1.26-0.41-1.27c0,0,0.1-0.04-0.09-0.04c-0.19,0-0.79,0.37-1.25,0.6c-0.03-0.6,0.04-1.21,0-1.86l-3.26,0.29 c0.15-0.32,0.22-0.61,0.29-0.77c-0.47-0.12-1-0.19-1.58-0.33c1.13-1.01,2.62-1.14,3.7-1.43c-0.22-0.3-0.94-0.26-1.29-0.28 c-2.23-0.14-1.1,0.25-1.66-0.22c0.17-0.37,0.47-0.77,0.76-1.03c-0.43-0.55-1.38-0.41-2.05-0.34c0.63-1.06,1.52-1.06,2.28-1.12 l3.41,0.48v-0.08c-0.46-0.79-1.52-1.04-1.98-1.34c0.28-0.07,1.57-0.09,1.57-0.42c0-0.81-1.65-1.66-1.96-1.82l1.41-0.06 c0.05-0.06,0.02,0.07,0.02-0.12c0-0.36-0.6-1.22-0.96-1.61c1.42,0.05,2.79,2.2,4.12,2.5c0.03-0.06,0.01,0.08,0.01-0.11 c0-0.19-1.28-3-1.26-3.19v-0.53c0.22-0.03,0.35-0.1,0.55-0.1c0.19,0,0.68,0.16,0.86,0.16c0.21,0,0.18-0.06,0.26-0.11V98.54z"></path> <path class="st8" d="M195.84,101.61c2.22,0,2.18,3.09,2.18,4.01c0,0.19-0.15,2.63-0.32,4h-2.75c-0.41,0.01-0.39,0.19-0.39,0.4 c0,0.13,0,0.17,0.17,0.32h1.84c0.14,0.57,0.32,0.56,0.32,0.87c0,1.38-2.01,1.54-2.75,1.42c-0.77-1.11-0.86-2.49-0.86-3.69 c0-0.2,0.15-2.48,0.32-3.77c0.21-0.02,0.36-0.1,0.54-0.1c0.19,0,0.31,0.02,0.46,0.13c0.33,0.95,0.37,2.07,0.61,2.9h0.49 c-0.31-0.2,0-1.14,0-1.56c0-1.08-0.22-2.45-2.02-2.19C193.8,103.06,194.46,101.61,195.84,101.61"></path> <path class="st8" d="M202.36,102.07c1.86,0,1.92,2.94,1.92,3.86l-0.29,4.54c-0.24-0.28-0.56-0.11-0.84-0.09 c-0.52,0.05-1.13,0.1-1.77,0.1v0.1c0.47,0.51,1.17,0.59,1.91,0.56c-0.17,0.24-0.4,0.48-0.65,0.54c-0.57,0.16-1.8,0.26-1.98,0.26 c-0.77,0-1.14-2.03-1.14-2.2c0-0.19,0.45-2.15,0.63-3.13c0.03-0.23,0.04-0.54,0.07-0.82h1.1v2.89c0.14,0.24,0.5,0.18,0.59,0.18 c0.18,0,0.32,0,0.45-0.01c0.15-0.32,0.11-0.98,0.11-1.42c0-1.01,0.36-2.86-1.64-2.45c-0.02-0.29-0.09-0.56-0.09-0.76 c0-0.51,0.26-1.45,0.56-1.96C201.63,102.15,202.18,102.07,202.36,102.07"></path> <path class="st8" d="M173.17,109.63c0.18,0,0.46,0.18,0.62,0.36v0.32c-0.8,0.09-1.63,0.32-2.76,0.46v-0.48 c0.47-0.48,1.14-0.3,1.76-0.37C172.95,109.68,173.1,109.63,173.17,109.63"></path> <path class="st8" d="M226.83,112.49c-0.2,0.24-1.42,2.09-1.41,2.76v0.46h0.43c0.19,0.02,1.08-0.3,1.62-0.49 c0.09-0.05,0.11-0.15,0.11-0.35C227.59,114.24,227.08,112.58,226.83,112.49 M226.96,110.11h0.47c0.01,0.21,0.09,0.37,0.09,0.57 c0,0.19-0.16,0.65-0.19,0.97c0.15-0.15,0.5-0.55,0.68-0.55c0.4,0,2.45,4.63,2.45,4.67c0,0.19-0.39,0.83-0.44,1.21 c-0.1,0.76-0.17,1.62-0.38,2.53c-1.12-0.81-1.4-2.12-1.5-3.09h-0.17c-0.13,0.07-0.24,0.17-0.24,0.36c0,0.19,0.15,0.56,0.22,0.94 h-1.69c-0.02-0.21-0.1-0.36-0.09-0.52h-0.29c-0.37,0.43-0.55,1.16-0.5,1.67h-2.07c0.23-0.54,0.12-0.96,0.08-1.43 c-0.04-0.46-0.02-0.91-0.08-1.43l0.44-0.22c-0.14-0.17-0.38-0.48-0.38-0.67C223.37,113.93,226.2,110.96,226.96,110.11"></path> <path class="st8" d="M182.69,110.19l-1.61,1.66C181.52,111.2,182.06,110.65,182.69,110.19"></path> <path class="st8" d="M243.18,114.19c0.35,0,0.93,0.42,0.93,0.65c0,0.5-1.04,2.24-1.14,2.38v0.23c0.3-0.1,0.77-0.02,1.41-0.01 c0.31-1.94-0.03-1.49-0.03-2.1c0-0.19,0.66-0.46,1.02-0.53c0.31,0.57,1.55,2.89,1.55,3.78c0,0.19-0.1,0.45-0.27,0.57 c-0.78,0.1-1.53,0.07-2.21,0.25c-0.06,0.36-0.29,0.93-0.09,1.53c-0.58,0.11-1.54,0.19-1.73,0.19c-0.2,0-0.53-0.08-0.79-0.09 c-0.4-0.84,0.13-1.75-0.97-2.21c-0.11-0.22-0.2-0.6-0.2-0.8c0-0.95,0.65-1.83,1.57-2.9C242.55,114.75,242.95,114.19,243.18,114.19"></path> <path class="st8" d="M256.44,114.65c1.26-0.13,3.59,2.15,3.59,3.54c0,0.19-0.51,1.39-0.51,1.58c0,0.4,0.45,0.35,0.82,0.43 c1.28,0,1.32-0.08,1.5-0.08c0.31,0,1.16,1.21,1.34,1.59c0.02,0.08,0.09,0.11,0.09,0.31c0,0.46-0.68,0.42-0.68,0.42 c-0.18,0-1.2-0.23-1.39-0.23c-0.36,0-0.32-0.04-0.52,0.45c-0.44-0.07-1.11-0.53-1.29-0.53c-0.19,0-1.05,0.78-1.25,0.78 c-0.17,0-1.2-0.69-1.4-0.69c-0.18,0-1.35,0.39-1.55,0.39c-0.19,0-0.72-0.63-0.98-0.85c-0.17,0.15-0.41,0.47-0.4,0.83 c-0.52-0.14-1.22-0.83-1.41-0.84h-0.55v0.46h-0.56c-0.5,0.01-1.53-0.64-2.15-0.46c-0.19-0.34-0.27-0.73-0.42-1.18 c0.65-0.2,1.34-0.27,2.03-0.35l3.29-0.07c0.06-0.06,0.04,0.07,0.04-0.11c0-0.52-0.74-0.26-0.97-0.4c0.05-0.28,1.06-2.5,1.64-2.5 c0.77,0,0.98,1.08,1.29,1.08c0.33,0,0.22-0.52,0.22-0.58c0-0.57-0.97-0.92-0.97-1.2C255.29,115.98,256.14,115.13,256.44,114.65"></path> <path class="st8" d="M144.15,116.88c0.16,0.77,0.16,1.55,0.08,2.32C144.16,118.5,144.16,117.74,144.15,116.88"></path> <path class="st8" d="M223.44,118.81c0.63,0,1.22,0,1.82,0.07C224.67,118.97,224.05,118.97,223.44,118.81"></path> <path class="st8" d="M246.8,134.55c-0.2,0-0.85,0.82-1.26,0.9c-0.43,0.08-0.96,0.03-1.51,0.05v8.03c0.89,0.78,2.03,0.97,2.92,0.97 c0.78,0,1.28-0.31,2.13-0.4c0.09,0.23-0.22,0.74,0.22,0.9c0.87,0.32,4.6,1.43,5.02,1.42h1.54l0.48-4.42c0-0.2,0-0.69-0.11-1.02 c-0.86-0.39-1.92-0.29-2.62-0.31c0.02-0.65,0.02-1.25,0.08-1.85l-0.98-0.07c0.65-2.19-0.49-1.81,1.16-1.83h2.24v-1.29h-3.52 c-0.18-0.01-2.41-0.11-3.6-0.35C248.27,135.16,246.99,134.55,246.8,134.55 M246.84,119.89c0.18,0,0.49,0.51,0.66,0.72 c1.38,1.5,2.07,2.91,2.18,4.47l10.71,0.22c0.02-0.36-0.26-0.97-0.5-1.4c0.18-0.31,0.87-0.34,1.3-0.53l1.8,2.68 c-0.22,0.86-1.38,0.64-2.01,0.72c-0.13,0.19-0.13,0.54-0.3,0.8c-0.13,0.2-0.59,0.22-0.81,0.42c-0.25,0.2-0.2,0.61-0.2,0.8 c0,0.2,0.6,2.25,0.6,2.44v3.35c-0.56,0.33-1.42,0.37-1.72,1c-0.45,0.9-0.17,2.05-0.25,3.13l-0.38,8.53l1.13,0.92 c0,0.5-0.92,0.81-1.07,0.81c-0.95,0-2.16-1.24-3.33-1.24c-0.55,0-1.14,0.34-1.41,0.98c0.42,0.27,0.94,0.52,1.4,0.69 c0.24,0.1,2.76,0.79,2.76,1.84c0,0.48-0.37,1.35-0.99,1.35c-0.57,0-1.17-1.31-2.1-1.31c-0.52,0-0.49,0.75-0.46,1.28l-3.17,0.89 c-0.33-0.17-0.66-0.4-0.94-0.62c-0.46-0.35-1.18-0.31-1.67-0.33v-0.87h4.02l0.19-0.9h-6.03v-0.72l1.68-0.24 c0.04-0.28-0.35-0.6-0.59-0.69c-0.49-0.2-1.11-0.34-1.65-0.42c-0.35-0.07-0.85-0.22-1.33-0.47c0.83-1.01,0.97-0.77,0.97-1.62 c0-0.88-1.01-1.13-1.68-1.24c-0.68-0.72-1.66-0.36-2.45-0.44c-0.02-0.21-0.09-0.44-0.09-0.63c0-0.25,0.9-0.93,0.98-0.99v-6.78 l-7.82-0.62v-0.88l7.91-0.22c0.07-0.5,0.36-1.34,0.36-1.52c0-0.2-0.43-0.6-0.74-1l5.78,0.21c0.01,0.21,0.09,0.44,0.07,0.65h10.94 l0.25-2.25l-0.52-0.23v-1.84c-0.57-0.05-1.88,1.95-3.66,1.95c-1.11,0-2.48-0.77-3.48-1.09c-0.11,0.21-0.27,0.47-0.29,0.8 c-1.23,0.55-2.08,1.21-3.17,1.21c-0.82,0-1.59-0.74-2.3-1.39c-0.17,0.28-0.39,0.65-0.57,1.08c-1.86,0.01-2.08-0.07-2.35-0.08 c-0.1-0.19-0.2-0.41-0.2-0.61c0-0.15,0.62-0.56,0.73-1.17c0.07-0.3,0.11-0.66,0.04-1.04c1.59,0.31,3.48-0.25,4.62,1.67 c0.25-0.1,0.4-0.94,0.53-1.3c0.5,0.02,0.93-0.05,1.34-0.21v-1.83h-1.1v1.09c-0.74-0.14-1.49-0.29-2.16-0.37l-4.01-0.08 c-0.46-0.08-2.74-0.23-2.93-0.24h-11.13c-0.12,0.21-0.2,0.5-0.45,0.66c-0.19,0.14-0.47,0.19-0.65,0.21 c0.21,0.16,0.52,0.39,0.76,0.67c-0.15,0.25-0.89,0.54-0.97,0.54h-2.31c-0.1-0.52-0.11-1.05-0.21-1.52 c-0.11-0.6-0.75-0.66-1.15-0.77c-0.1-0.7-0.1-1.49-0.05-2.22c-0.38-0.12-0.84-0.28-1.31-0.48c-0.1-0.39-0.18-1.1-0.18-1.3 c0-0.72,0.15-1.84,0.48-2.42h0.47c0.49,0.73,0.25,1.7,0.24,2.48c0.09-0.03,0.32,0.05,3.17,0.08c0.02,0.5,0.14,1.27,0.29,1.68h2.68 l4.37,0.55h1.24c0.01-0.73-0.15-1.48,0.84-1.48c0.95,0,1.31,1.28,2.3,1.24l4.79,0.08c0.04-0.28-0.13-0.33-0.23-0.51 c-0.28-0.51-0.56-1.46-0.55-1.65v-0.45c1.21-0.29,4.13-0.02,3.85-2.54L246.84,119.89z"></path> <path class="st8" d="M199.9,122.67c0.19,0,0.85,0.15,1.27,0.16c0.09,0.35,0.1,0.8,0.1,0.99c0,1.04-0.14,1.62-1.1,1.62 c-0.18,0-0.56-0.07-0.84-0.09c-0.09-0.43-0.17-1.06-0.17-1.26C199.16,123.73,199.21,122.67,199.9,122.67"></path> <path class="st8" d="M154.01,130.92c-0.25,0-1.49-0.08-1.49,0.58c0,0.17,0.39,0.63,0.75,0.74l10.38,0.15 c0.25,0,0.56-0.31,0.56-0.62c0-0.35-0.62-0.39-0.83-0.39l-2.15,0.32c-0.19,0-2.37-0.49-3.53-0.52 C156.41,131.13,155.3,130.92,154.01,130.92 M168.64,123.13c1.16,0,1.57,1.54,2.27,1.54c0.32,0,1.2-1.38,2.14-1.38 c0.2,0,0.94,0.95,0.96,1.29c-0.82-0.27-1.48,1.65-2.3,1.79c-1.26,0.24-1.41-0.01-1.62,0.07c-0.51-0.9-0.81-1.23-1.41-1.23 c-1.17,0-1.61,1.39-2.79,1.39c-0.13,0-0.55-1.03-1.48-1.24c-0.18,0.5-0.63,1.37-0.64,1.56v0.53h10.1 c-0.02,0.06-0.14-0.09,0.04-1.99c0.51,0.07,0.94,0.07,1.47,0.02c-0.15,0.32-0.44,0.62-0.44,0.81c0,0.2,0.57,0.61,0.86,1.04 c0.17,0.26,0.16,0.73,0.29,1.1l10.47,0.48c0.2,0,0.6,0.06,0.88-0.02c0.47-0.15,1.27-0.52,1.45-0.52c1.32,0,2.8,1.99,2.62,3.29 c-0.48,0.18-1.29,0.34-1.49,0.34c-0.4-0.66-0.45-1.46-0.91-2.08c-0.4,0.31-0.39,1.08-0.62,1.69h-1.69 c-0.24,0.78-0.32,1.48-0.42,2.23h-1.51c-0.62-0.63-1.21-1.35-1.91-2c-0.06-0.06-1.7-0.38-2.28-0.38c-2.05,0-3.67,0.34-3.72,2.98 l-1.68,0.24c-0.1-0.43-0.27-1.07-0.27-1.26c0-1.21,0.84-1.23,1.74-2.4c-0.8-0.22-1.84-0.38-2.85-0.44v-0.46l-7.45-0.21l-0.13,0.35 l2.05,0.33c-0.09,0.16-0.08,0.26-0.09,2.39c-0.66,0.1-1.35,0.14-1.92,0.27c-0.85,0.19-0.7,2.01-0.7,2.84c0,0.19,0.1,3.16,0.31,4.77 c0.87,0.16,0.68-0.7,0.79-0.86c0.57-0.54,1.84-0.97,2.47-0.97c0.28,0,1.21,0.18,1.37,0.67c0.1,0.3,0.13,0.79,0.43,0.92 c1.52,0.64,3.24,1.03,4.78,1.5c0.11-0.27,0.27-0.67,0.46-0.98c0.48-0.03,1.04,0.08,1.42-0.2c0.31-0.23,0.28-0.7,0.36-1.09 c0.55-0.42,1.03-0.31,1.66-0.42c0.13-0.81,0.29-2.45,0.29-2.65l-0.2-1.61c-0.09-0.77-1.25-0.94-1.25-1.67 c0-1.03,1.52-1.35,1.76-1.35c0.2,0,0.9,0.07,1.17,0.42c0.76,1.02,1.08,4.27,1.08,5.87c0,0.7-0.11,1.48-0.27,2.34 c-0.6-0.15-1.41-0.3-1.59-0.3c-0.64,0-0.87,0.08-0.87,0.7c0,0.19-0.04,0.24,0.1,0.36l2.3,0.29c-0.07,0.45-0.07,0.82-0.09,1.26 l-2.62-0.37c-0.41,0-1.13,0.06-1.13,0.55c0,0.75,1.83,0.68,2.14,0.62c0.18,0.35,0.41,0.73,0.59,1.1l-2.29,1.2 c-2.83-2.76-5.61-2.57-8.39-3.44c-0.51-1.09,0.13-1.5-1.03-1.5c-1.05,0-0.22,1.28-0.95,1.66c-1.11,0.58-2.42,0.62-3.64,0.75 c-0.58,0.07-1.52,0.53-2.08,0.92c-0.55,0.37-2.71,2.3-3.47,2.3c-0.19,0-1.71-0.3-1.89-0.3c-0.44,0-0.42,0.64-0.42,0.84l0.16,1.78 c0,1.19-1.99,6-2.16,6.39c-0.48-0.14-1.76-0.34-1.31-1.21l1.58-8.29c0.14-0.4-0.9-0.72-0.96-1.05c-0.08-0.45,0.09-0.93-0.04-1.37 c-0.17-0.58-0.73-1.49-0.73-1.68c0-0.61,0.89-0.89,1.29-0.89c0.11,0,1.23,1.03,1.4,1.27c0.29,0.48,0.55,1.15,0.61,1.82h3.1 c0.12-0.14,0.1-0.36,0.1-0.55c0-1.32-1.06-0.51-1.06-1.89c0-0.66,0.38-1.03,0.98-1.03c0.73,0,1.63,0.85,2.21,1.85h0.4 c0.94-1.45,0.56-3.14,0.86-4.72l-0.16-2.23v-0.78c0.04-0.27-0.06-0.38-0.22-0.38l-9.41-0.31c-1.38,1.09-1.16,2.89-1.16,4.28 l0.39,5.82v2.77c0,0.19-0.19,0.38-0.08,0.59c0.21,0.36,0.9,0.69,0.9,0.88c0,0.21-0.9,1.47-1.06,1.47c-0.19,0-3.96-0.85-4.14-0.85 c-0.2,0-2.11,0.39-3.21,0.61c-0.41-0.57-0.71-1.18-1.1-1.8c1.87-0.28,3.76-0.51,5.55-0.69l0.57-15.06 c-0.07-0.06-0.16-0.11-0.32-0.11l-9.43-0.4v-2.81c1.16,0.21,2.79,0.6,2.99,0.6c0.18,0,1.23-0.32,1.43-0.32 c0.17,0,1.81,0.7,2.38,0.7c0.71,0,1.41-0.7,1.41-0.7c0.22,0,1.3,0.85,1.5,0.85c1.03,0,1.75-1.44,2.18-2.22 c0.5-0.01,0.99-0.07,1.43,0.09c0.39,0.14,0.82,0.44,1.16,0.79c0.25,0.26,0.74,0.89,0.92,0.89c0.83,0,1.96-2.01,2.84-2.01 c1.11,0,0.98,2.08,2.14,2.08c0.36,0,0.77-0.26,0.96-0.95c0.22-0.8-0.66-5.22,2.25-5.22c0.62,0,1.97,1,2.04,1 C166.25,124.44,168.1,123.13,168.64,123.13"></path> <path class="st8" d="M210.89,124.21c1.38,0,2.7,1.7,2.94,1.7c0.2,0,0.95-0.82,1.44-1.13c0.33-0.22,0.97-0.34,1.17-0.34 c0.18,0,0.38,0.38,0.38,0.58c0,0.83-1.85,1.87-2.02,1.93c-0.36,0.13-0.94,0.19-1.12,0.19c-0.19,0-1.03-0.16-1.69-0.32 c-0.03,0.06-0.02,0.08-0.02,0.27c0,0.72,0.45,0.33,0.93,0.4c1.57,0.22,3.24,0.26,4.85,0.45c0.11,0.25,0.18,0.55,0.31,0.8 c1.93,0.17,3.88,0.33,5.85,0.43c0.36,0.51,0.33,1.43,0.44,1.92c1.22,0.38,2.51,0.3,3.79,0.51l5.54-0.06 c0.16-0.49-0.15-2.26,0.95-2.26c0.18,0,0.38,0.08,0.5,0.1c0.02,0.14,0.08,0.29-0.05,3.23c-0.02,0.41-0.53,0.87-0.64,1.24 c-0.49,0.34-1.41,0.3-1.92,0.3l-6.14-0.38c-0.19,0-1.17,0.07-1.66,0.16c-0.11,0.22-0.42,1.93-0.43,2.54v2.71 c-0.52-0.02-0.96,0.06-1.56,0.04v-6.48c-0.47-0.05-1.09-0.21-1.67-0.4c0.57-1.97-1.97-1.11-2.97-1.5l-3.46-0.08 c-0.18,0-1.43,0.08-2.15,0.1c-0.24,0.22-0.18,0.89-0.18,1.1c0,0.19-0.01,1.19,0.09,1.72c0.04,0.26,0.4,0.33,0.72,0.52v0.88h-0.49 c-0.2,0.01-0.72-0.15-1.12-0.27c-0.09-0.15-0.07-0.42-0.25-0.42c-0.19,0-0.56,0.61-0.75,0.61c-0.2,0-0.47-0.08-0.74-0.2 c0.47-1.06,0.97-2.07,0.97-3c0-0.9-0.82-3.09-0.82-4.98c0-0.19,0.15-1.63,0.32-2.42C210.44,124.29,210.71,124.21,210.89,124.21"></path> <path class="st8" d="M229.1,124.75l1.06-0.08c0.18,0,0.4,0.08,0.67,0.25C230.24,124.9,229.65,124.83,229.1,124.75"></path> <path class="st8" d="M237.26,128h1.4l0.39,2.74c-0.88,0.1-1.79,0.18-2.74,0.25c-0.45-0.88-0.36-1.75-0.55-2.65 C236.27,128.22,237.07,127.99,237.26,128"></path> <path class="st8" d="M195.08,128.07c0.72,0,0.68,2.08,1.78,2.08c1.04,0,2.01-1.77,2.93-1.77c0.21,0,0.9,0.23,1.28,0.34 c0.06,0.17-0.15,0.62,0.14,0.7c1.66,0.18,3.32,0.26,5.02,0.44c0.02,0.52,0.02,0.98,0,1.42l-4.68,0.15c0.01-0.04-0.3,1.49-0.8,1.49 c-0.38,0-0.9-1.49-0.94-1.66c-0.17-0.14-0.42-0.2-0.62-0.2c-0.35,0-0.22,0.2-0.37,0.6h-3.49c-0.02-0.37-0.02-0.66-0.03-0.94 c-0.32-0.13-0.94-0.35-1.13-0.35c-0.17,0-1.16,0.38-1.35,0.38c-0.73,0-0.82-0.42-0.82-0.88c0-0.19,0.07-0.51,0.1-0.75 C192.6,128.6,194.33,128.07,195.08,128.07"></path> <path class="st8" d="M172.05,131.1c0.02,0.51,0.1,0.97,0.16,2.1c-0.8,0.11-1.58,0.11-2.38,0.01c-0.02-0.7-0.24-1.61,0.01-2.05 C171.69,131.15,171.84,131.07,172.05,131.1"></path> <path class="st8" d="M173.16,131.47c1.23,0.14,1.41,0.26,1.41,1.22c0,0.2-0.38,3.39-0.38,3.59c0,1.52,0.6,1.89,0.6,2.66 c0,0.52-0.31,0.93-0.75,0.93c-0.2,0-0.7-0.16-1.12-0.26L173.16,131.47z"></path> <path class="st8" d="M216.55,131.62c2.12,0.11,1.1,2.35,1.6,3.57c-0.26,0.12-0.7,0.12-0.89,0.12c-1.15,0-1.43-0.41-1.43-1.5 C215.83,133.05,216.07,132.37,216.55,131.62"></path> <path class="st8" d="M211.33,161.63l-0.1,1.53c0,0.19,0.06,1.1,0.17,1.56c0.03,0.15,0.24,0.36,0.35,0.41 c0.52-0.02,1.19-0.69,1.21-1.12v-1.58C212.48,162.09,211.93,161.86,211.33,161.63 M217.53,156.52c-2.94,0-2.98,3.19-2.98,4.94 c0,0.19,0.07,2.47,0.25,3.76l3.15-0.37c0.18,0,2.03,0.3,3.05,0.36c0.1-0.82,0.1-2.18,0.1-2.37l-0.15-3.16 C220.96,157.89,219.18,156.52,217.53,156.52 M234.08,157.07c-0.33,0-1.24,0.97-1.41,1.27c-0.19,0.36-0.32,0.78-0.44,1.13h-2.64 c-0.11-0.21-0.29-0.45-0.6-0.7c-0.15,0.85-0.71,1.76-1.05,2.44v4.38c0.98,0.41,2.85,1.03,3.04,1.03c0.7,0,2.46-1.39,3.43-1.39 c0.2,0,1.08,0.16,1.9,0.3l0.26-5.5C236.59,158.86,235.76,157.07,234.08,157.07 M190.25,136.03l-0.25,10.84 c0.96-0.63,1.03-0.53,1.69-0.53l1.37,0.16c0.42,0,3.03-2.09,5.32-2.09l2.15,0.16c0.18,0,0.89-0.62,1.39-0.84 c1.52-0.67,3.21-0.71,4.69-0.88c0.15-0.84-0.15-2.45,1.19-2.45c0.95,0,1.39,0.33,1.28,1.67c0.51-0.06,0.83-0.13,1.17-0.24 c-0.07-0.67-0.21-1.21-0.31-1.79h-6.85c0.28,0.55,0.53,1.26,0.53,1.78c0,0.69-0.8,0.96-1.53,0.98h-0.76 c0.02-0.24-0.05-0.59-0.05-0.78c0-0.19,0.02-1.08,0.15-1.52c0.1-0.29,0.45-0.33,0.42-0.47c-0.43-0.03-0.94-0.1-1.31,0l-0.03,1.34 l-1.75,0.26l-0.2-5.22L190.25,136.03z M188.45,132.77l2.27,0.15h7c0.18,0,1.62,0.24,2.37,0.42c0.26,0.47,0.49,1.04,0.51,1.59 c0.04,1.23-0.08,1.42-0.08,1.62l2.64,0.43l8.87,0.52l0.31,3.61h0.54c0.55-0.02,1.08-0.71,1.54-1.06c0.56-0.42,1.29-0.34,1.82-0.34 c0.66,0,4.04,0.39,4.04,1.77c0,0.56-0.28,0.4-1.05,0.69l-2.76-0.39c-0.69,0.22-1.7,0-1.7,1c0,0.96,2.15,1,2.3,1 c1.22,0,1.76-0.85,2.46-0.85c1.06,0,2.06,0.92,3.51,0.92c0.36,0,2.61-0.1,2.61-0.58c0-1.46-4.37-1.17-4.66-1.5 c-0.02-0.15-0.1-0.31-0.1-0.5c0-0.2,0.23-0.83,0.33-1.26c1.34,0.14,2.72,0.34,3.99,0.7c1.03,0.31,1.55,0.98,1.83,0.98 c0.18,0,0.58-0.38,0.91-0.52c1.23-0.54,1.21-0.4,2.14-0.4l2.95,0.3c0.18,0,0.17,0.02,0.34-0.11v-3.26 c0.16-0.09,0.33-0.01,1.64-0.01v3.73c2.04,0.57,4.62,1.09,5.39,3.02l-5.14-1.05c-0.19,0.07-0.55,0.48-0.72,0.61 c0.28,0.17,0.7,0.32,1.21,0.51c-0.07,0.36-0.07,0.65-0.09,1.01c-2.73,0.48-2.69,0.41-4.77,0.41c-4.69,0-2.69-1.23-6.08-1.23h-4.35 c-0.11,0.07-0.25,0.32-0.25,0.43c0,0.51,0.55,0.95,1.13,1.33c-0.16,0.29-0.5,0.63-0.73,0.68c-0.96,0.24-2.73,0.57-2.93,0.57 c-0.41,0-0.63-1.1-0.63-1.12c0-0.54,1.5-0.6,1.5-1.43l-2.78-0.46c-0.76,0-1.52-0.23-1.86,1.06c-1.94,0.03-4.01,0.32-6.06,2.02 c-0.18-0.1-1.36-1.35-1.36-1.74c0-0.56,0.93-0.81,1.14-0.81h2.17c0.64,0,2.06-0.13,2.48-0.81c0.07-0.13,0.01-0.27,0.01-0.46 c0-0.78-0.54-0.97-1.09-0.97c-1.49,0-3.91,1.78-4.61,1.78l-1.86-0.23c-0.71,0-1.78,0.39-2.43,1.58c-0.05,0.07-0.26,0.17-0.29,0.36 v0.48c1.06-0.18,2.54-0.48,2.72-0.48c0.2,0,0.49,0,0.72,0.1l0.24,0.58c0.02,0.19-0.47,0.63-0.71,0.68 c-0.89,0.17-1.92,0.17-2.78,0.43c-1.46,0.43-2.32,1.45-3.65,1.45c-0.19,0-0.45-0.43-0.45-0.62c0-0.71,2.11-1.09,2.11-1.46 c0-1.18-0.62-1.31-1.47-1.31c-0.76,0-3.52,0.48-3.52,2.13c0,0.51,1.16,0.42,1.49,0.44c0.02,0.21,0.09,0.37,0.09,0.56 c0,0.19-0.22,1.28-0.32,1.95l-2.58,0.25c-0.55,0-1.56-0.06-1.56-0.73c0-0.72,0.94-0.96,1.37-1.16c0-0.39-0.3-1.01-0.48-1.39 c-0.95-0.04-2.87,0.83-3.37,1.36c0.29,0.33,0.9,0.82,0.89,1.01v0.51c-0.28,0.02-0.57,0.03-0.79,0.11 c-0.42,0.18-0.36,0.57-0.46,0.86c-0.69,0.19-1.52,0.21-2.16,0.67c-0.41,0.28-0.36,0.93-0.53,1.52h-1.68 c-0.17,0.44-0.15,0.42-0.01,0.49h1.63c-0.14,1.24,0.02,2.54-0.31,3.64c-0.21,0.64-0.98,1.18-1.4,1.79 c-0.41,0.6-0.92,2.07-0.92,2.85c0,0.93,1.34,1.04,1.74,1.04c0.19,0,2.71-0.62,2.9-0.62c0.67,0,3.79,1,4.91,1 c0.2,0,0.39,0.04,0.61-0.09c0.43-0.29,0.49-1.31,0.49-1.84c0-1.23-0.57-3.01-2.23-3.01c-1.34,0-1.37,1.9-1.49,2.75 c-0.25,0.1-0.52,0.18-0.7,0.18c-0.19,0-1.28-0.54-1.87-0.8c-0.12-0.93,1.23-0.81,1.23-1.31c0-0.19-0.3-0.58-0.3-0.78 c0-0.49,1.14-0.55,1.47-0.75c0.24-0.15,0.64-1.05,0.64-1.18c0-0.2-0.11-0.5-0.3-0.5c-0.2,0-0.78,0.6-1.19,1.01 c-0.36-0.1-0.55-0.75-0.55-1.08c0-0.68,1.19-1.84,1.93-2.13c0.96-0.38,2.02-0.72,2.93-0.72c0.41,0,0.95,0.62,0.95,0.93 c0,0.19-0.31,0.85-0.31,1.04l1.14,0.28c-0.08-0.38-0.01-0.94,0.01-1.45l0.77-0.1c2.58,0,2.61,4.12,2.61,5.21l-0.25,4.37h0.88 l0.23-2.24c0.5,0.06,1.02,0.06,1.53,0.08l0.34,2.65c0.1,0.13,0.21,0.19,0.39,0.19l3.39-0.48c0.26-0.61,0.49-2.15,0.49-3.07 c0-1.24-0.06-4.25-2.37-4.25c-1.74,0-2.62,2.76-2.62,3.83l-1.08,0.25c-0.12-0.98-0.48-2.65-0.48-2.84c0-0.2,0.39-0.28,0.5-0.43 c0.02-0.64,0.09-0.73-0.57-0.67v-0.61c-0.02-0.29,0.79-1.38,0.92-1.38c0.13,0,0.46,0.7,0.87,0.7c0.7,0,0.75-0.63,0.75-0.89 c0-0.15,0.08-0.37-0.3-0.65c0.64-0.38,1.26-0.69,1.92-0.92l0.05,0.65c0.25,0.18,0.97,0.19,1.36,0.21h1.05v-0.76l-1.72-0.11 c-0.62-0.79-1.45-1.64-2.14-2.47c0.94-0.68,1.32-0.61,2.1-0.61c0.2,0,1.45,0.08,2.2,0.21c-0.82,0.58-0.69,0.27-0.69,0.83 c0,0.19-0.01,0.37,0.12,0.51h1.77c0.7-0.01,0.42,0.27,1.06,1.23c-0.21,0.3-1.2,1.03-1.2,1.54c0,0.19,1.31,1.31,1.5,1.31 c0.45,0,0.47-0.95,0.47-1.12c0-0.64-0.25-0.74,0.02-1.49c0.78,0.55,1.78,1.45,1.78,1.64c0,0.19-0.6,1.6-0.85,2.4 c0.54,0.03,0.92-1.05,0.94-1.41h1.48v0.48c1.16,0.03,0.85-2.02,0.85-2.17c0-0.42,0.78-0.57,0.98-0.57l1.12,0.15 c0.39,0,1.03-0.77,1.36-0.95c-0.11-0.34-0.85-0.35-1.35-0.54c-0.01-1.7,2.26-2.05,3.02-2.18c-0.02-1.57,0-1.67-0.09-1.82 c0.19-0.1,1.68-0.44,2.19-0.44c0.19,0,0.3-0.05,0.41,0.03c0.34,0.2,0.79,0.99,0.79,1.28c0,0.2-0.36,0.4-0.51,0.65 c-0.41,0.69-1.51,1.33-1.98,1.67c0.37,0.46,1.25,0.58,1.85,0.76c0.17-0.44,0.23-1.55,0.83-1.55c0.35,0,1.54,0.77,1.54,0.89 c0,0.19-0.22,0.92-0.22,1.12c0,0.7,0.42,0.62,1.27,1.23c0.16-0.5-0.36-1.27-0.36-1.46c0-0.26,0.8-0.46,0.9-0.46 c0.92,0,2.19,2.09,2.17,2.7v0.6c-0.22,0.02-0.35,0.09-0.55,0.09c-0.2,0-0.6-0.16-0.96-0.32v0.93c0.01,0.56,0.45,0.7,0.85,0.7 c0.72,0,1.65-1.56,2.21-2.08c0.09,0.3,0.35,0.84,0.05,1.12l0.53-0.04c0.73,0,0.76-0.59,0.76-0.96c0-0.69-0.18-0.26-0.27-1.26h1.48 c0.19-0.02,1.72,0.3,1.9,0.3c0.52,0,1.2,0.12,1.2-0.66c0-0.89-2.39-0.51-2.54-0.52v-0.45c-0.01-0.44,0.23-0.76,0.76-0.75h1.96 v-0.36c-0.28-0.12-0.57-0.2-0.91-0.39l0.25-0.8h4.02v0.51c-0.56,0.18-1.1,0.33-1.65,0.39v0.83c0.79,0.14,5,1.85,5,2.36 c0,0.2-0.23,0.88-0.42,1.38l-1.57-0.77c-0.22,0.11-0.2,0.27-0.2,0.46c0,0.84,0.25,1.14,1.41,1.42l-0.14,1.59 c0,0.56-0.18,0.38,0.81,0.97c-0.08,0.75-0.96,0.39-0.96,1.04c0,1.35-0.23,2.8-0.03,4.33c0.51-0.01,1.07-0.16,1.43-0.19 c0.49-0.62,0.3-1.31,0.37-2.04c0.58-0.02,1.17-0.1,1.76-0.16c0.04,0.52-0.12,1.3-0.12,1.49c0,1.22,1.02,1.02,1.96,2.06 c-0.51,0.25-1.22,0.52-1.82,0.52h-7.22c-1.64,0-4.35,1.15-5.52,1.15l-4.68-0.46l-4.45,0.54c-0.2,0-2.36-0.9-3.49-1.22 c-0.22-0.06-0.47-0.02-0.66-0.02l-5.16,0.31c-1.21,0-2.26,0.06-3.53-0.34c-0.48-0.14-2.04-0.97-2.13-0.97 c-0.35,0-3.18,1.01-4.26,1.01c-2.01,0-5.7-1.24-7.01-1.24c-0.2,0-1.96,0.46-2.15,0.46c-1.66,0-3.9-1.08-6.53-1.08l-7,0.83v-0.45 c-0.01-0.19,0.21-0.9,0.4-1.26c0.91-1.63,1.56-3.5,2.13-5.24c0.31-0.16,1.39-0.61,1.39-0.93c0-0.19-0.11-0.96-0.25-1.4 c-0.14-0.43-0.62-0.22-1-0.27c-0.4-1.66-0.62-3.41-1.18-4.97c-0.27-0.76-1.41-2.07-1.41-2.26c0-0.19,0.25-1.1,0.36-1.63 c0.1-0.54,0.17-1.07,0.19-1.66c0.34-0.1,0.77-0.34,0.96-0.34c0.25,0,0.98,1.62,0.98,1.62c0,0.19-0.38,1.58-0.38,1.77 c0,0.21,0.64,0.69,0.79,0.69c0.49,0,2.38-1.47,3.32-1.47l1.05,0.15c0.19,0,0.97-0.53,1.41-0.81l-3.79-0.74h-1.94 c-0.31-0.91-0.62-1.53-0.62-2.19c0-0.49-0.14-0.83,0.55-1.39c0.25-0.2,0.65-0.19,0.91-0.21c0.18-0.32,0.41-1.76,0.95-1.75h1.89 v-3.42c-0.01-0.78-0.33-2.37-0.56-3.04c-0.09-0.24-0.51-0.56-0.51-0.76c0-0.19,0.16-0.45,0.28-0.69 C187.38,132.85,188.25,132.77,188.45,132.77"></path> <path class="st8" d="M143.55,132.85c0.39,0,0.93,1.09,1.03,1.69c0.03,0.14,0.1,0.37,0.09,0.56v1.9h-2.16 c-0.08-0.43-0.06-0.6-0.02-1.83c0.02-0.62,0.16-1.33,0.36-2.04C143.08,133.01,143.36,132.85,143.55,132.85"></path> <path class="st8" d="M148.83,133.62c0.94,0,1.14,2.01,1.14,2.31c0,1.18-0.4,1.39-1.47,1.39c-1.11,0-1.54-0.15-1.54-1.31 C146.95,135.61,147.82,133.62,148.83,133.62"></path> <path class="st8" d="M226.71,134.71h0.78c0.1,0.51,0.18,1.06,0.24,1.96c-0.51,0.11-1.19,0.27-1.38,0.27 c-0.92,0-0.64-1.66-0.71-1.97C225.99,134.85,226.51,134.7,226.71,134.71"></path> <path class="st8" d="M229.95,134.95c0.22-0.02,0.37,0.05,2.46,0v1.86c-0.42,0.48-0.74,0.43-1,0.43c-0.19,0-1.04-0.16-1.62-0.26 v-1.45C229.78,135.34,229.93,135.16,229.95,134.95"></path> <path class="st8" d="M154.87,135.24c1.36,0,1.96,1.21,1.96,2.24v1.67c-0.51,0.1-1.33,0.33-1.51,0.33l-0.96-0.04 c0.07-0.23-0.01-0.34-0.01-1.96c0-0.71-0.6-0.78-0.6-1.01C153.74,136.38,154.47,135.24,154.87,135.24"></path> <path class="st8" d="M171.51,135.31c0.18,0,0.41,0.51,0.39,0.71v2.28c-0.5-0.28-0.41-0.02-1.32-0.01c0.02-0.41-0.2-1.48-0.9-1.39 c0.06-0.46,0.06-0.83,0.07-1.26C170.32,135.55,171.32,135.31,171.51,135.31"></path> <path class="st8" d="M160.01,135.4c0.53,0,1.35,0.46,1.98,0.73c0.19,0.38,0.27,1.07,0.27,1.26c0,0.2-0.16,1.56-0.24,2.38 c-0.43,0.01-1.08,0.17-1.27,0.17c-0.08,0-0.47,0.01-0.64-0.35c-0.24-0.46-0.41-1.02-0.59-1.47c-0.1-0.3-0.57-0.76-0.57-0.96 C158.95,137.14,159.55,135.4,160.01,135.4"></path> <path class="st8" d="M196.25,136.7c1.38,0,1.46,0.75,1.46,1.78c0,0.19-0.15,1.63-0.33,2.47c-0.14,0.13-0.31,0.23-0.49,0.23 c-0.4,0-0.67-0.99-0.67-1.08v-1.76c-0.22-0.27-0.39-0.06-0.64-0.11c-0.09-0.09-0.11-0.1-0.11-0.3 C195.46,137.64,195.7,136.7,196.25,136.7"></path> <path class="st8" d="M236.13,137.01c0.18,0,0.66,0.15,1.03,0.17c0.01,0.14-0.06,0.29-0.08,2.42c-0.29,0.03-0.7,0.18-0.88,0.18 c-0.75,0-0.69-0.71-0.69-1.23C235.51,138.26,235.55,137.01,236.13,137.01"></path> <path class="st8" d="M240.91,137.79c0.48,0,0.64,1.3,0.64,1.34c0,0.19-0.5,0.66-0.68,0.66c-0.63,0-0.66-1.2-0.73-1.53v-0.31 C240.42,137.94,240.73,137.79,240.91,137.79"></path> <path class="st8" d="M148.07,139.79c0.2,0,0.56,0.24,0.87,0.35c0.19,0.63,0.26,1.73,0.26,1.92c0,0.6-0.07,1.48-0.35,2 c-0.23,0.04-0.45,0.11-0.73,0.19l-1.02-3.37C147.08,140.76,147.79,139.79,148.07,139.79"></path> <path class="st8" d="M152.79,141.56c0.13,0.77,0.13,1.55,0,2.55C152.77,143.48,152.69,142.72,152.79,141.56"></path> <path class="st8" d="M170.76,144.73c0.87,0.07,1.8,0.24,2.62,0.48c1.35,0.39,2.74,2.19,4.09,2.86c0.09,0.06,0.12,0.12,0.12,0.31 c0,0.48-0.57,1.04-0.98,1.04c-0.2,0-0.61-0.06-0.88-0.28c-0.47-0.38-0.85-0.99-1.18-1.45c-0.54-0.74-1.16-0.66-1.75-1.01 c-0.22-0.13-0.49-0.27-0.69-0.27c-0.18,0-0.83,0.54-1.03,0.53h-0.79C170.33,146.18,170.49,145.47,170.76,144.73"></path> <path class="st8" d="M167.21,144.81c0.59,1.51,1.31,2.42,1.31,3.77c0,0.49-0.02,0.97-0.49,1.52c-0.61,0.69-3.73,2.42-4.03,2.42 c-0.51,0-1.98-2.3-2.08-2.6c-0.06-0.14-0.17-0.45-0.17-0.64c0-0.2,0.26-0.55,0.44-0.55c0.46,0,1.65,1.72,1.76,1.94 c0.13-0.01,0.25,0.01,0.39-0.03c0.62-0.25,1.31-0.61,1.91-1.12c0.25-0.2,0.16-0.66,0.16-1.02c0-0.7,0.08-1.43-0.43-1.85l-5.05,1.62 c-0.21-0.08-0.33-0.27-0.33-0.46c0-1.4,3.35-2.25,3.45-2.26C164.95,145.3,166.12,144.84,167.21,144.81"></path> <path class="st8" d="M239.11,145.5c0.36,0,2.45,0.75,2.45,1.35c0,0.83-1.53,1.12-1.74,1.12c-0.77,0-1.5-0.3-2.41-1.24 C237.85,146.26,238.74,145.5,239.11,145.5"></path> <path class="st8" d="M215.95,145.97c0.1,0.27,0.18,0.59,0.24,1.12h-2.45v-0.88C214.39,146.11,215.08,146.03,215.95,145.97"></path> <path class="st8" d="M227.84,147.04c0.18,0,1.52,0.24,2.28,0.51c0.3,0.11,0.63,0.24,0.88,0.36c0.24,0.11,0.46,1.21,0.46,1.6 c0,0.4-0.28,1.7-0.44,1.96c-0.97,0.35-1.95,0.74-2.99,1.05c-0.41-0.57-0.96-1.46-0.96-1.65c0-0.49,1.76-1.02,1.92-1.06 c0.06-0.11,0.03-0.18,0.03-0.37c0-0.19,0.04-0.33-0.09-0.45c-0.35-0.01-0.91-0.09-1.1-0.09c-0.59,0-0.57,0.16-1.42,0.99h-1.37 c-0.02-0.14-0.09-0.1-0.09-0.29c0-0.2,0.15-1.03,0.49-1.36C226.06,147.66,227.64,147.04,227.84,147.04"></path> <path class="st8" d="M170.37,147.67h0.4c0.16,0.42,0.25,0.91,0.25,1.26c0.86,0.43,2.56,1.36,2.74,1.36c0.2,0,1.1-0.62,1.29-0.62 c0.34,0,0.94,0.54,0.94,0.58c0,0.93-1.78,1.97-2.15,1.97c-0.19,0-1.04-0.66-1.58-0.91c-0.65-0.31-1.32-0.5-2.05-0.42 c-0.11-0.51-0.18-1.34-0.18-1.53C170.04,148.7,170,148.47,170.37,147.67"></path> <path class="st8" d="M210.91,147.81c0.58,0.26,1.05,0.62,1.61,0.63h3.81v1.43c-1.18,0.1-2.38,0.26-3.5,0.34 c-0.42,0.34-0.12,0.92-0.27,1.47c-0.4,1.36-1.97,1.09-2.96,1.13c-0.26-0.49-0.41-1.26-0.41-1.45 C209.19,150.09,210.04,149.24,210.91,147.81"></path> <path class="st8" d="M179.51,150.13c0.34,0,0.83,1.11,0.87,1.2c0.47,1.23,0.9,2.73,1.03,4.15c-0.32,0.19-0.81,0.35-1.01,0.35 c-0.18,0-0.7-0.08-1.14-0.11c0.2-0.68,1.04-0.99,1.04-1.55c0-1.18-1.94-1.43-2.3-1.43c-0.55,0-1.25,0.1-1.25,0.77 c0,0.39,0.45,1.65,1.33,1.48v0.57c-0.63,0.18-1.3,0.33-1.95,0.49c-0.31-0.52-1.26-2.01-1.26-2.73 C174.86,152.18,179.25,150.13,179.51,150.13"></path> <path class="st8" d="M158.52,151.05c0.27,0,5.1,2.01,5.1,2.46c0,1.24-0.88,3.16-2.35,3.16c-0.42,0-1.48-0.36-2.01-0.01v-0.53 c-0.01-0.19,0.11-0.46,0.27-0.5c0.76-0.19,2.06-0.42,2.06-1.45c0-0.29-1.8-0.86-2.16-0.97c-0.27,0.51-0.57,1.13-0.93,1.66 c-0.37,0.04-1.02,0.2-1.21,0.2c-0.38,0-0.46-0.49-0.46-0.69C156.83,153.76,157.83,151.05,158.52,151.05"></path> <path class="st8" d="M197.45,151.08h2.73c0.02,0.28-0.04,0.55-0.04,0.74c0,0.49,1.02,0.55,1.35,0.65v0.34c0,0.2-0.23,0.9-0.43,1.28 c-1.06,0.12-3.15,0.27-3.34,0.27c-0.18,0-0.82-1.04-0.82-1.24c0-0.19,0.2-0.56,0.29-0.8C197.3,151.97,197.43,151.51,197.45,151.08"></path> <path class="st8" d="M243.07,151.2c0.18,0,1.82,0.38,2.77,0.57c0.01,0.51-0.13,1.05-0.22,1.91c1.37-0.09,1.77-0.01,2.12,0.02 c-0.16,0.32-0.31,0.64-0.49,0.86c-0.38,0.47-1.53,1.27-1.53,1.84c0,0.39,0.17,0.27,0.37,0.27c0.98,0,1.42-0.91,1.85-1.99 c0.51,0.07,1.03,0.15,1.5,0.17c0.19,0.2,0.22,0.81,0.55,0.83c0.24-0.22,0.18-0.39,0.18-0.61v-0.84c0.15-0.02,0.1-0.09,0.3-0.09 c0.83,0,2.05,0.81,2.86,1.11c-0.07,0.37-0.22,0.68-0.33,1.03c-0.44-0.07-1.12-0.3-1.32-0.3c-0.35,0-0.38-0.02-0.38,0.39 c0,0.19,1.5,2.19,1.5,2.39c0,0.49-3.3,4.04-3.59,4.3h-0.38c-0.09-1.21-0.01-2.45-0.21-3.59c-0.06-0.44-1.48-0.79-2.15-0.79 c-1.33,0-1.57,1.22-1.6,2.68c-0.95,0.18-1.92,0.41-2.97,0.63v-0.81c0.06-0.02,1.41-0.51,1.41-0.75c0-0.62-1.21-1.95-1.21-2.74 c0-0.51,0.27-0.23,0.87-0.71c1-0.81,0.77-2.58,2.24-2.97c-0.02-0.1-0.06-0.18-0.24-0.18c-0.19,0-0.84,0.15-1.02,0.15 c-0.49,0-1.88-0.37-1.98-0.53c-0.01-0.06-0.02-0.16-0.02-0.36C241.93,152.33,242.31,151.2,243.07,151.2"></path> <path class="st8" d="M170.3,151.83c0.37,0.07,0.77,0.04,1.05,0.17c0.39,0.17,1.1,0.9,1.1,1.09c0,0.2-1.69,1.9-1.89,1.9 c-0.19,0-0.52-0.31-0.52-0.5C170.04,154.29,170.19,152.35,170.3,151.83"></path> <path class="st8" d="M167.64,152.29c0.29,0.4,0.65,1.75,0.65,2.23c0,0.2-0.64,0.7-0.83,0.7c-0.52,0-1.54-1.18-1.64-1.36 c-0.01-0.09-0.02-0.11-0.02-0.31C165.8,152.93,167.27,152.42,167.64,152.29"></path> <path class="st8" d="M172.75,154.68c0.3,0,1.52,0.56,1.5,0.86v0.81c-0.73,0.1-1.9,0.33-2.09,0.33c-0.45,0-0.53-0.56-0.84-1.09 C171.81,155.23,172.57,154.68,172.75,154.68"></path> <path class="st8" d="M165.37,154.99c0.49,0,1.65,0.71,1.65,1.42c0,0.62-0.92,0.81-1.17,0.81c-0.18,0-0.89-0.16-1.35-0.36 c-0.05-0.08-0.05-0.22-0.05-0.41C164.45,156.25,164.7,154.99,165.37,154.99"></path> <path class="st8" d="M151.36,156.07c0.66,0.07,1.33,0.14,2.06,0.16c0.02,0.43-0.01,0.82,0.05,1.19c0.07,0.31-0.13,0.87,0.15,1.23 c0.37,0.1,0.74,0.17,1.12,0.29c0.13,0.32,0.27,0.71,0.32,1.1c0.23,1.58,1.81,3.54,2.59,5.2c-0.49,0.35-1.31,0.98-1.51,0.98 c-0.19,0-0.54-0.4-0.68-0.57c-1.49-1.6-1.84-3.54-2.6-5.22c-1.64-0.5-2.22,0.08-2.22-1.5C150.65,157.95,151.1,157.07,151.36,156.07 "></path> <path class="st8" d="M167.96,156.76l2.52,0.89c-0.18,0.58-1.16,1.26-1.61,1.26c-0.15,0-1.24-0.48-1.24-0.92 C167.62,157.8,167.78,157.19,167.96,156.76"></path> <path class="st8" d="M176.71,156.99c1.58,0,3.06,0.55,4.62,0.87c0.02,0.6,0.1,1.48,0.1,1.67c0,1.14-0.01,1.75-0.58,3.11 c-0.09,0.23-1.45,2.05-2,2.05c-0.18,0-2.33-1.73-2.33-1.93c0-0.19,0.08-0.39,0.09-0.6c0.22-0.02,0.4-0.1,0.59-0.1 c0.18,0,1,0.32,1.4,0.48l1.01-3.12c-0.73-0.71-2-0.62-2.83-0.6c-0.33,0.45-0.72,1.87-1.41,1.76h-0.28v-0.92 C175.09,159.48,175.99,156.99,176.71,156.99"></path> <path class="st8" d="M171.99,157.76c0.19,0,1.23,0.39,1.85,0.57c0.08,0.07,0.2,0.17,0.2,0.36c0,0.52-0.42,1.39-1.1,1.39 c-0.15,0-1.69-0.86-1.69-1.04C171.25,158.84,171.81,157.76,171.99,157.76"></path> <path class="st8" d="M164.83,157.91c0.19,0,1.16,0.24,1.74,0.42v0.27c0,0.68-1.53,1.32-1.71,1.32c-0.3,0-0.64-0.98-0.64-1.08 C164.22,158.65,164.65,157.91,164.83,157.91"></path> <path class="st8" d="M159.58,158.27h2.95l0.81,2.67c-0.27,0.36-0.79,0.35-1.17,0.52c-0.2-0.51-0.41-0.96-0.62-1.4 c-0.35-0.08-2.82-0.11-2.82,1.37c0,0.54,1.36,1.53,1.36,2.12c0,0.19-1.13,1.01-1.31,1.01c-0.2,0-0.33-0.29-0.36-0.34 c-0.87-0.99-1.27-2.02-1.48-3.04c-0.14-0.67-0.24-1.39-0.31-2.14L159.58,158.27z"></path> <path class="st8" d="M170.43,160.07c0.43,0.49,0.8,1.03,1.27,1.63c-0.51,0.28-1.21,0.45-1.84,0.6c-0.19-0.35-0.27-0.8-0.27-1 C169.59,160.82,169.58,160.71,170.43,160.07"></path> <path class="st8" d="M167.43,160.23c0.2,0,0.49,0.08,0.79,0.09v0.66c0.01,1.04-0.37,1.48-1.2,1.48c-0.18,0-0.67-0.29-0.67-0.65 C166.34,161.45,167.14,160.23,167.43,160.23"></path> <path class="st8" d="M164.16,162l4.22,2.04v1.28l-0.79,4.07h-0.25c-0.19,0.01-2.91-0.57-4.27-1.1c-0.82-0.32-2.23-1.48-2.23-1.67 c0-0.19,0.45-0.73,0.72-1.14h0.39c0.02,0.37,0.02,0.75,0.02,1.02c1.2,0.41,2.8,1.36,4.05,1.36c0.44-0.3,0.63-2.02,0.63-2.55 c0-0.2-0.08-0.21-0.09-0.34c-0.71-0.37-1.96-0.97-2.14-0.97c-0.19,0-0.79,0.23-0.97,0.23c-0.19,0-0.42-0.07-0.64-0.1v-0.38 C162.79,163.33,163.75,162.1,164.16,162"></path> <path class="st8" d="M173.2,162.16c0.97,0,3.01,2.95,3.32,3.41c-0.33,0.2-0.71,0.43-1.14,0.67c-0.36-0.28-1.14-1.56-1.65-1.6 c-0.15-0.01-0.23-0.02-0.41-0.02c-0.2,0-0.25-0.02-0.4,0.01c-0.59,0.19-1.34,0.36-1.87,0.69c-0.27,0.16-0.18,0.64-0.18,0.84 c0,0.59,0.28,1.29,0.49,1.71c0.55-0.03,1.15,0.03,1.74-0.19c0.81-0.29,2.35-0.9,2.53-0.89h1.19v0.28c0.01,0.31-1.17,1.22-1.32,1.28 c-1.55,0.73-3.52,0.87-5.11,0.89c-0.41-0.45-0.88-1.83-0.88-2.38v-3.13c0.4-0.33,0.79-0.54,1.18-0.71 C171.5,162.67,173.02,162.16,173.2,162.16"></path> <path class="st8" d="M180.67,166.33c0.93,0.62,2.14,0.94,3.03,1.05c1.8,0.22,3.64,0.22,5.43,0.43c1.36,0.17,3.99,0.67,4.18,0.67 c0.18,0,2.3-0.61,3.4-0.77l6.78,1.08l3.74-0.46l5.16,1.31c0.48-0.08,1-0.17,1.44-0.33c0.52-0.19,1.65-0.75,2.29-0.75 c0.2,0,1.07,0.36,1.6,0.52c0.81,0.23,1.92,0.74,2.8,0.64l4.68-0.62c1.22,0.13,4,1.31,5.47,1.31c1.85,0,2.78-1.08,4.16-1.08 c0.84,0,1.05,0.37,2.15,0.46l5.21-0.92c0.24,0.06,1.92,0.17,1.92,0.73c0,1.08-4.26,1.5-4.41,1.5c-1.5,0-2.31-0.61-3.65-0.61 c-1.36,0-2.95,0.84-4.45,0.84c-0.18,0-4.38-0.69-4.57-0.69c-0.18,0-3.09,0.46-3.28,0.46l-5.01-0.61c-1.78,0-2.62,0.77-4.79,0.77 c-1.33,0-2.43-0.63-4.01-0.98c-0.52-0.11-1.38-0.02-1.58-0.02l-5.09,0.16c-0.73,0-3.96-1.08-5.09-1.08c-1.2,0-3.65,0.92-4.29,0.92 c-0.2,0-2.54-0.54-2.73-0.54h-4.98l-3.26-1.24c-0.56,0.24-0.37,0.64-0.37,1.05c-0.72,0.18-1.98,0.5-2.17,0.5 c-0.18,0-0.74-0.16-0.92-0.16c-0.21,0-0.67,0.51-0.88,0.79c0,0.05,0.05,0.07,0.1,0.11c1.65,0.18,4.84,0.64,5.02,0.64 c0.2,0,2.35-0.54,2.53-0.54c1.28,0,4.97,1.39,6.76,1.39c0.19,0,2.64-0.39,3.95-0.54l4.35,0.62l3.84-0.39 c1.34,0,3.82,1.31,5.73,1.31l7.16-0.31h6.57l4.56,0.61c1.28-0.09,2.66-0.72,4.02-0.9c0.68-0.08,1.98,0.06,2.15,0.06l5.92-0.27 c-1.06,1.51-0.72,1.34-1.58,1.34h-1.26l-2.12,0.39l-14.04,0.3l-5.06-1c-0.59,0.08-1.25,0.33-1.94,0.44 c-1.35,0.2-3.98,0.26-4.18,0.26c-2.12,0-3.67-0.85-5.36-0.85l-3.62,0.31c-0.18,0-3.24-0.69-3.43-0.69c-1.56,0-3.36,0.69-4.86,0.69 c-1.45,0-4.67-1.16-5.67-1.16c-0.89,0-2.65,0.69-3.73,0.69c-0.77,0-1.19-0.43-2.17-0.76c-0.95-0.32-2.19-0.48-3.3-0.48 c-0.19,0-4.51,0.54-6.79,0.85c-0.08,0-0.17,0.05-0.22,0.11c-0.09,0.3-0.31,0.81-0.31,1.01c0,1,2.78,0.89,2.83,0.89 c0.19,0,1.09-0.08,2.71-0.15l5.43,0.69l4.86-0.38c0.32,0,3.2,1.31,3.96,1.47l2.99-0.38c0.84,0.07,2.37,0.38,2.56,0.38l7.09-0.69 c0.31,0,3.6,0.92,5.32,0.92l6.87-0.69c0.19,0,0.89,0.16,1.33,0.21c1.73,0.17,6.54,0.49,6.72,0.49l12.65,0.05 c-0.7,0.62-2.02,1.64-2.22,1.64c0,0-5.92-0.84-7.21-0.84h-4.07c-0.18,0-2.41,0.23-3.63,0.38l-4.27-0.77l-6.66,0.85 c-1.94,0-3.13-1.08-4.8-1.08c-0.2,0-1.54,0.15-2.3,0.23l-4.29,0.08c-0.61,0.08-1.21,0.15-1.82,0.23l-3.96,0.08 c-1.04,0-4.29-1.08-5.66-1.08l-4.13,0.31l-4.67-1.16l-4.53,0.62c-2.94-0.4-6.2-1.24-9.13-1.34c-0.26-0.01-0.74-0.17-1.11-0.56 v-0.53l0.12-0.13c0.55,0.01,1.14,0.01,2.75,0.11c-0.01-0.02,0.05-0.02,0.05-0.21c0-0.95-2.88-0.97-3.15-1.25 c-0.61-0.67-1.65-0.82-2.47-1.3c-0.92-0.54-2.47-2.14-2.83-3.25c0.38-0.03,0.94-0.19,1.14-0.19c1.72,0,2.37,1.43,4.47,2.44 c1.56,0.74,3.46,1.25,5.08,1.6c-0.03,0.44,0.03,0.77,0.29,1.13h1.58c0.12-0.34,0.21-0.8,0.31-1.2c1.6-0.35,3.32-0.4,4.9-0.99 c1.54-0.57,4.21-2.45,4.41-2.45c0.19,0,0.64,0.16,0.83,0.16c0.3,0,0.44-0.03,0.44-0.2c0-0.19-0.29-0.81-0.29-1.01 C180.15,166.86,180.46,166.59,180.67,166.33"></path> <path class="st8" d="M177.43,177.96c1.18,0,2.19,1.4,3.51,1.4c0.19,0,3.58-0.63,3.77-0.63c1.78,0,2.16,0.78,3.48,0.78l5.16-0.46 c0.2,0,3.21,0.54,3.4,0.54c1.79,0,3.66-1.08,5.39-1.08c0.43,0,1.2,0.17,1.44,0.35c0.15,0.11,0.4,0.38,0.53,0.56 c1.03,0.17,2.94,0.4,3.12,0.4c1.13,0,4.25-1,5.78-1c1.2,0,3.47,1.08,4.45,1.08c0.17,0,3.09-0.54,3.29-0.54 c1.19,0,2.44,0.77,3.57,0.77c0.2,0,2.79-0.85,2.99-0.85c0.18,0,1.75,0.33,2.59,0.51c0.59,0.13,1.26,0.18,2.01,0.24 c-1.99,1.19-4.03,1.32-5.93,1.48l-5.88-1l-4.7,0.46l-5.89-0.08l-6.79-0.7l-6.26,0.7c-1.8,0-1.24-0.46-3.7-0.46l-5.68,0.23 l-2.19-0.46l-4.96,0.08c-0.85,0-3.28-1.15-4.91-1.15c-0.18,0-3.92,0.54-4.11,0.54c-0.76,0-1.44,0.02-2.14-1.17h2.86 c0.18,0.02,2.71,0,4.05-0.17C176.22,178.27,177.24,177.96,177.43,177.96"></path> <path class="st8" d="M203.07,180.34c1.22,0.1,2.21,0.17,3.25,0.33C205.34,180.79,204.16,180.67,203.07,180.34"></path> <path class="st8" d="M178.17,181.75c0.16,0,0.39,0.08,1.75,0.08l8.14,1.08c1.27-0.16,3.81-0.62,4-0.62c1.57,0,2.67,0.84,4,0.84 l5.69-0.69c1.29,0,3.24,0.85,5.03,0.85c0.18,0,3.89-0.54,4.07-0.54c1.42,0,3.18,0.92,4.6,0.92c0.54,0,3.97-0.69,3.99-0.69 l4.05,0.33c0.03,0.13,0,0.15,0.09,0.3c-0.79,0.24-2.16,1.21-2.96,1.21c-0.2,0-2.19-0.38-2.38-0.38l-4,0.46 c-0.19,0-0.33-0.1-0.48-0.13c-1.35-0.41-1.86-0.63-3.03-0.63l-5.86,0.38c-0.17,0-4.11-0.54-4.28-0.54l-4.94,0.31 c-0.88,0-1.56-0.77-3.51-0.77l-7.01,0.62c-0.15,0-3.14-0.93-3.85-0.93c-0.19,0-3.06,0.31-3.25,0.31c-0.18,0-1.21-0.53-1.83-0.76 c-0.44-0.15-0.98-0.25-1.42-0.4L178.17,181.75z"></path> <polygon class="st8" points="182.34,182.05 183.02,181.98 186.4,182.6 "></polygon> <path class="st8" d="M192.89,184.98h11.99c1.89,0.01,2.68,0.78,4.28,0.78c1.6,0,2.17-0.77,3.27-0.77l3.48,0.31 c0.18,0,1.49-0.16,2.26-0.31l1.44,0.13c-0.25,0.24-3.4,2.03-4.12,2.03c-0.7,0-1.86-0.54-3.65-0.54c-0.2,0-4.56,0.54-4.76,0.54 c-0.7,0-2.91-0.93-4.52-0.93l-4.91,0.54c-1.35,0-1.74,0.08-1.91,0.08c-1.51,0-3.24-0.31-4.73-1.08L192.89,184.98z"></path> <path class="st8" d="M248.4,136.11c0.02,1.6,0.1,3.14,0.09,3.39l-0.13,0.13c-1.45,0.01-1.57-0.01-1.8,0.07 c-0.03-0.68-0.1-1.37-0.13-1.96c-0.31-0.24-0.65-0.14-1.06-0.04c-0.21-0.43-0.21-0.9-0.25-1.34 C246.23,136.24,247.29,136.16,248.4,136.11"></path> <path class="st8" d="M252.72,142.34c0.19,0,1.45,0.15,2.12,0.26c0.13,0.16,0.3,0.48,0.28,0.67v2.52c-0.57-0.34-1.21,0.01-1.84-0.01 c-0.03-0.5,0.03-0.74-0.21-1.13c-0.28-0.01-0.66-0.08-1.05-0.2c-0.12-0.15-0.2-0.3-0.18-0.49v-1.29 C252.1,142.57,252.53,142.34,252.72,142.34"></path> </g> </svg> 