<?xml version="1.0" encoding="UTF-8"?> <!-- Generator: Adobe Illustrator 24.3.0, SVG Export Plug-In . SVG Version: 6.00 Build 0) --> <svg xmlns="http://www.w3.org/2000/svg" xmlns:xlink="http://www.w3.org/1999/xlink" version="1.1" id="Capa_1" x="0px" y="0px" viewBox="0 0 128 128" style="enable-background:new 0 0 128 128;" xml:space="preserve"> <style type="text/css"> .st0{fill:#FFFFFF;} .st1{filter:url(#Adobe_OpacityMaskFilter);} .st2{filter:url(#Adobe_OpacityMaskFilter_1_);} .st3{filter:url(#Adobe_OpacityMaskFilter_2_);} .st4{filter:url(#Adobe_OpacityMaskFilter_3_);} .st5{filter:url(#Adobe_OpacityMaskFilter_4_);} .st6{fill:#9A65A4;} .st7{fill:#39A735;} .st8{fill-rule:evenodd;clip-rule:evenodd;fill:#39A735;} .st9{fill-rule:evenodd;clip-rule:evenodd;fill:#FFFFFF;} .st10{fill:#4CE146;} .st11{fill:none;stroke:#383838;stroke-width:0.5;stroke-miterlimit:10;} .st12{fill:#383838;} .st13{fill:none;stroke:#000000;stroke-width:4;stroke-miterlimit:10;} .st14{filter:url(#Adobe_OpacityMaskFilter_5_);} .st15{fill:none;stroke:#000000;stroke-width:0.5;stroke-miterlimit:10;} .st16{fill:#9B66A5;} .st17{fill:none;stroke:#9B66A5;stroke-width:5.7679;stroke-miterlimit:10;} .st18{fill:#DBD6D4;} .st19{clip-path:url(#SVGID_8_);fill:none;stroke:#F7E729;stroke-width:1.9226;stroke-miterlimit:10;} .st20{clip-path:url(#SVGID_10_);fill:none;stroke:#F7E729;stroke-width:1.9226;stroke-miterlimit:10;} .st21{clip-path:url(#SVGID_12_);fill:none;stroke:#F7E729;stroke-width:1.9226;stroke-miterlimit:10;} .st22{clip-path:url(#SVGID_14_);fill:none;stroke:#F7E729;stroke-width:1.9226;stroke-miterlimit:10;} .st23{clip-path:url(#SVGID_16_);fill:none;stroke:#F7E729;stroke-width:1.9226;stroke-miterlimit:10;} .st24{clip-path:url(#SVGID_18_);fill:none;stroke:#F7E729;stroke-width:1.9226;stroke-miterlimit:10;} .st25{clip-path:url(#SVGID_20_);fill:none;stroke:#76BC81;stroke-width:1.9226;stroke-miterlimit:10;} .st26{clip-path:url(#SVGID_22_);fill:none;stroke:#76BC81;stroke-width:1.9226;stroke-miterlimit:10;} .st27{clip-path:url(#SVGID_24_);fill:none;stroke:#76BC81;stroke-width:1.9226;stroke-miterlimit:10;} .st28{clip-path:url(#SVGID_26_);fill:none;stroke:#76BC81;stroke-width:1.9226;stroke-miterlimit:10;} .st29{fill-rule:evenodd;clip-rule:evenodd;fill:#225CA6;} .st30{clip-path:url(#SVGID_28_);fill:none;stroke:#F19570;stroke-width:1.9226;stroke-miterlimit:10;} .st31{clip-path:url(#SVGID_30_);fill:none;stroke:#F7E729;stroke-width:1.9226;stroke-miterlimit:10;} .st32{clip-path:url(#SVGID_32_);fill:none;stroke:#F7E729;stroke-width:1.9226;stroke-miterlimit:10;} .st33{fill:#E01015;} .st34{fill:#1B4D93;} .st35{fill:#5BC3F0;} .st36{fill:#EC7412;} .st37{fill:#FFCF07;} .st38{fill:#E5237B;} .st39{fill:#65B12E;} .st40{clip-path:url(#SVGID_34_);fill:none;stroke:#F7E729;stroke-width:1.9226;stroke-miterlimit:10;} .st41{clip-path:url(#SVGID_36_);fill:none;stroke:#F7E729;stroke-width:1.9226;stroke-miterlimit:10;} .st42{fill:#E1513B;} .st43{stroke:#000000;stroke-miterlimit:10;} .st44{filter:url(#Adobe_OpacityMaskFilter_6_);} .st45{fill:#C0C0C0;} .st46{fill:#FFFFFF;stroke:#FFFFFF;stroke-miterlimit:10;} .st47{fill:#FFFFFF;stroke:#FFFFFF;stroke-width:1.2;stroke-miterlimit:10;} .st48{fill:#FFFFFF;stroke:#FFFFFF;stroke-width:2;stroke-miterlimit:10;} .st49{fill:none;stroke:#FFFFFF;stroke-width:2;stroke-miterlimit:10;} .st50{fill:#FFFFFF;stroke:#FFFFFF;stroke-width:0.5;stroke-miterlimit:10;} .st51{fill:url(#SVGID_38_);} .st52{fill:url(#SVGID_39_);} .st53{fill:url(#SVGID_40_);} .st54{fill:url(#SVGID_41_);} .st55{fill:url(#SVGID_42_);} .st56{filter:url(#Adobe_OpacityMaskFilter_7_);} .st57{fill:#F5F5F5;} .st58{fill:url(#SVGID_44_);} .st59{fill:url(#SVGID_45_);} .st60{fill:url(#SVGID_46_);} .st61{fill:url(#SVGID_47_);} .st62{fill:url(#SVGID_48_);} .st63{fill:url(#SVGID_49_);} .st64{fill:url(#SVGID_50_);} .st65{fill:url(#SVGID_51_);} .st66{fill:url(#SVGID_52_);} .st67{fill:url(#SVGID_53_);} .st68{fill:url(#SVGID_54_);} .st69{fill:#FFFFFF;stroke:#444444;stroke-width:1.5;stroke-linecap:round;stroke-linejoin:round;stroke-miterlimit:10;} .st70{filter:url(#Adobe_OpacityMaskFilter_8_);} .st71{filter:url(#Adobe_OpacityMaskFilter_9_);} .st72{fill:#DF0B18;} .st73{fill:#EE96BE;} .st74{fill:#166C4B;} .st75{fill:#4CBFEC;} .st76{fill:#EC7A28;} .st77{fill:#FFCF17;} .st78{fill:#01498B;} .st79{fill:#E3E15C;} .st80{fill:#1E8CC6;} .st81{fill:#65B147;} .st82{fill:#E41E7B;} .st83{fill:#5F3813;} .st84{fill:#F09271;} .st85{fill:#A36329;} .st86{filter:url(#Adobe_OpacityMaskFilter_10_);} .st87{filter:url(#Adobe_OpacityMaskFilter_11_);} .st88{filter:url(#Adobe_OpacityMaskFilter_12_);} .st89{fill:#DEDEDE;} .st90{filter:url(#Adobe_OpacityMaskFilter_13_);} .st91{opacity:0.75;} .st92{fill:#353535;} .st93{fill:url(#SVGID_61_);} .st94{filter:url(#Adobe_OpacityMaskFilter_14_);} .st95{fill:#FB6880;} .st96{fill:#FCFDFF;} .st97{fill:#707070;} .st98{fill:none;stroke:#707070;stroke-width:0.5;stroke-miterlimit:10;} .st99{fill:#D1D1D1;} .st100{fill:#141414;} .st101{fill:none;stroke:#000000;stroke-width:3;stroke-linejoin:round;stroke-miterlimit:10;} .st102{fill:#2D2D2D;} .st103{fill:#ECECEC;} .st104{fill:#E1E1E1;} .st105{fill:#FAFAFA;} .st106{fill:#FF735D;} .st107{fill:#1A2E35;} .st108{fill:#3BA435;} .st109{fill:#4CDF46;} .st110{opacity:0.77;} .st111{fill:#375A64;} .st112{opacity:0.3;} .st113{opacity:0.65;} .st114{fill:none;stroke:#FFFFFF;stroke-width:0.05;stroke-miterlimit:10;} .st115{fill:#FFC19D;} .st116{fill:#CAFFCA;} .st117{fill:#FF9C6A;} .st118{opacity:0.24;} .st119{fill:none;stroke:#000000;stroke-width:7;stroke-linejoin:round;stroke-miterlimit:10;} .st120{stroke:#000000;stroke-width:2;stroke-miterlimit:10;} .st121{stroke:#000000;stroke-width:0.75;stroke-miterlimit:10;} .st122{stroke:#000000;stroke-width:0.5;stroke-miterlimit:10;} .st123{stroke:#444444;stroke-width:1.5;stroke-linecap:round;stroke-linejoin:round;stroke-miterlimit:10;} .st124{stroke:#000000;stroke-width:0.5;stroke-linecap:round;stroke-linejoin:round;stroke-miterlimit:10;} </style> <g id="XMLID_38_"> <g id="XMLID_39_"> <path d="M50.64,58C37.8,58,27.36,68.44,27.36,81.28c0,12.84,10.44,23.28,23.28,23.28c10.15,0,18.79-6.53,21.97-15.61 c1.57,0.06,3.01,0.09,4.19,0.09c7.15,0,23.78-0.76,23.78-7.76c0-0.02,0-0.04,0-0.06c0-0.02,0-0.04,0-0.05v-8.94V71.8 c0.04-0.2,0.06-0.42,0.06-0.64c0-0.21-0.03-0.41-0.06-0.61v-7.69c0.04-0.21,0.06-0.42,0.06-0.64c0-0.21-0.03-0.41-0.06-0.61v-8.56 c0.04-0.21,0.06-0.42,0.06-0.64c0-0.37-0.07-0.71-0.19-1.04c0.07-0.31,0.13-0.63,0.13-0.97c0-0.02,0-0.04,0-0.06 c0-0.02,0-0.04,0-0.05v-9.35c0.04-0.21,0.06-0.42,0.06-0.64c0-0.21-0.03-0.41-0.06-0.6v-8.57c0.04-0.2,0.06-0.42,0.06-0.64 c0-0.38-0.07-0.74-0.2-1.08c-0.2-0.72-0.66-1.32-1.25-1.7c-4.86-4.12-20.33-4.26-22.39-4.26c-2.05,0-17.52,0.14-22.38,4.26 c-0.6,0.38-1.05,0.98-1.25,1.7c-0.13,0.34-0.2,0.7-0.2,1.08c0,0.22,0.03,0.44,0.07,0.64v8.57c-0.04,0.19-0.07,0.39-0.07,0.6 c0,0.22,0.03,0.44,0.07,0.64v9.35c0,0.02,0,0.04,0,0.06c0,0.02,0,0.04,0,0.05c0,0.34,0.05,0.66,0.12,0.97 c-0.12,0.33-0.19,0.67-0.19,1.04c0,0.22,0.03,0.44,0.07,0.64v5.07C52.24,58.04,51.45,58,50.64,58z M97.86,81.08 c0,0.06-0.01,0.12,0,0.17c0,0.02,0,0.05,0,0.08c-0.13,2.61-9.53,4.72-21.06,4.72c-1.14,0-2.26-0.03-3.36-0.07 c0.31-1.52,0.48-3.1,0.48-4.71c0-0.41-0.01-0.82-0.03-1.22c1.07,0.03,2.07,0.04,2.91,0.04c5.36,0,16.05-0.42,21.06-3.59V81.08z M97.86,72.14c0,0.06-0.01,0.12,0,0.17c0,0.02,0,0.05,0,0.08c-0.13,2.61-9.53,4.72-21.06,4.72c-1.11,0-2.2-0.03-3.27-0.06 c-0.45-2.47-1.29-4.8-2.46-6.93c2.18,0.13,4.18,0.17,5.73,0.17c5.36,0,16.05-0.43,21.06-3.59V72.14z M97.86,50.21 c0,0.06-0.01,0.12,0,0.17c0,0.03,0,0.05,0,0.08c-0.13,2.61-9.53,4.72-21.06,4.72c-11.53,0-20.93-2.11-21.06-4.72 c0-0.05,0-0.1,0-0.15c0-0.03,0-0.06,0-0.1l-0.01-5.45c5.01,3.17,15.7,3.59,21.06,3.59c5.36,0,16.05-0.43,21.06-3.59V50.21z M76.8,26.88c11.96,0,19.36,2.22,20.62,3.6c-1.25,1.38-8.66,3.6-20.62,3.6c-11.96,0-19.36-2.22-20.61-3.6 C57.44,29.1,64.85,26.88,76.8,26.88z M76.8,37.52c1.89,0,15.19-0.12,21.06-3.37v6.25c0,0.06-0.01,0.12,0,0.17 c0,0.03,0,0.05,0,0.08c-0.13,2.61-9.53,4.72-21.06,4.72c-11.53,0-20.93-2.11-21.06-4.72c0-0.05,0-0.1,0-0.15c0-0.03,0-0.06,0-0.1 l-0.01-6.25C61.61,37.4,74.91,37.52,76.8,37.52z M76.8,59.45c1.89,0,15.19-0.12,21.06-3.37v6.25c0,0.05-0.01,0.11,0,0.17 c0,0.02,0,0.05,0,0.08c-0.13,2.61-9.53,4.72-21.06,4.72c-2.77,0-5.41-0.12-7.83-0.35c-3.26-4.16-7.9-7.19-13.23-8.39v-2.49 C61.61,59.33,74.91,59.45,76.8,59.45z M70.94,81.28c0,11.19-9.11,20.3-20.3,20.3c-11.19,0-20.3-9.1-20.3-20.3 c0-11.19,9.1-20.29,20.3-20.29C61.83,60.98,70.94,70.09,70.94,81.28z"></path> </g> <g> <g> <path d="M36.35,84.33l0.93-2.22h15.84l-0.93,2.22H36.35z M54.31,77.88l-0.9,2.22H37.03l0.93-2.22H54.31z M39.61,80.42 c0-1.55,0.28-3.08,0.82-4.57c0.55-1.49,1.35-2.85,2.4-4.09c1.05-1.23,2.34-2.21,3.87-2.94c1.53-0.73,3.26-1.09,5.2-1.09 c2.31,0,4.3,0.52,5.97,1.56c1.66,1.04,2.9,2.37,3.71,4l-3.15,2.11c-0.45-1.03-1.05-1.84-1.78-2.44c-0.73-0.6-1.52-1.01-2.38-1.25 c-0.86-0.24-1.7-0.36-2.51-0.36c-1.32,0-2.48,0.27-3.5,0.81c-1.01,0.54-1.86,1.25-2.54,2.13c-0.68,0.88-1.19,1.88-1.53,2.97 c-0.33,1.1-0.5,2.2-0.5,3.3c0,1.22,0.2,2.4,0.61,3.53c0.41,1.14,0.97,2.14,1.7,3.01c0.73,0.87,1.59,1.56,2.58,2.06 c0.99,0.5,2.08,0.75,3.28,0.75c0.84,0,1.69-0.14,2.56-0.43s1.68-0.73,2.44-1.34c0.75-0.61,1.36-1.42,1.81-2.42l3.33,1.9 c-0.52,1.27-1.34,2.34-2.45,3.23c-1.11,0.88-2.36,1.55-3.74,2.01c-1.39,0.45-2.75,0.68-4.09,0.68c-1.77,0-3.39-0.38-4.87-1.13 c-1.48-0.75-2.76-1.76-3.84-3.01c-1.08-1.25-1.91-2.66-2.51-4.23C39.91,83.6,39.61,82.02,39.61,80.42z"></path> </g> </g> </g> </svg> 