<?xml version="1.0" encoding="UTF-8"?> <!-- Generator: Adobe Illustrator 24.3.0, SVG Export Plug-In . SVG Version: 6.00 Build 0) --> <svg xmlns="http://www.w3.org/2000/svg" xmlns:xlink="http://www.w3.org/1999/xlink" version="1.1" id="Capa_1" x="0px" y="0px" viewBox="0 0 190 190" style="enable-background:new 0 0 190 190;" xml:space="preserve"> <style type="text/css"> .st0{fill:#FFFFFF;} .st1{filter:url(#Adobe_OpacityMaskFilter);} .st2{filter:url(#Adobe_OpacityMaskFilter_1_);} .st3{filter:url(#Adobe_OpacityMaskFilter_2_);} .st4{filter:url(#Adobe_OpacityMaskFilter_3_);} .st5{filter:url(#Adobe_OpacityMaskFilter_4_);} .st6{fill:#9A65A4;} .st7{fill:#39A735;} .st8{fill-rule:evenodd;clip-rule:evenodd;fill:#39A735;} .st9{fill-rule:evenodd;clip-rule:evenodd;fill:#FFFFFF;} .st10{fill:#4CE146;} .st11{fill:none;stroke:#383838;stroke-width:0.5;stroke-miterlimit:10;} .st12{fill:#383838;} .st13{fill:none;stroke:#000000;stroke-width:4;stroke-miterlimit:10;} .st14{filter:url(#Adobe_OpacityMaskFilter_5_);} .st15{fill:none;stroke:#000000;stroke-width:0.5;stroke-miterlimit:10;} .st16{fill:#9B66A5;} .st17{fill:none;stroke:#9B66A5;stroke-width:5.7679;stroke-miterlimit:10;} .st18{fill:#DBD6D4;} .st19{clip-path:url(#SVGID_8_);fill:none;stroke:#F7E729;stroke-width:1.9226;stroke-miterlimit:10;} .st20{clip-path:url(#SVGID_10_);fill:none;stroke:#F7E729;stroke-width:1.9226;stroke-miterlimit:10;} .st21{clip-path:url(#SVGID_12_);fill:none;stroke:#F7E729;stroke-width:1.9226;stroke-miterlimit:10;} .st22{clip-path:url(#SVGID_14_);fill:none;stroke:#F7E729;stroke-width:1.9226;stroke-miterlimit:10;} .st23{clip-path:url(#SVGID_16_);fill:none;stroke:#F7E729;stroke-width:1.9226;stroke-miterlimit:10;} .st24{clip-path:url(#SVGID_18_);fill:none;stroke:#F7E729;stroke-width:1.9226;stroke-miterlimit:10;} .st25{clip-path:url(#SVGID_20_);fill:none;stroke:#76BC81;stroke-width:1.9226;stroke-miterlimit:10;} .st26{clip-path:url(#SVGID_22_);fill:none;stroke:#76BC81;stroke-width:1.9226;stroke-miterlimit:10;} .st27{clip-path:url(#SVGID_24_);fill:none;stroke:#76BC81;stroke-width:1.9226;stroke-miterlimit:10;} .st28{clip-path:url(#SVGID_26_);fill:none;stroke:#76BC81;stroke-width:1.9226;stroke-miterlimit:10;} .st29{fill-rule:evenodd;clip-rule:evenodd;fill:#225CA6;} .st30{clip-path:url(#SVGID_28_);fill:none;stroke:#F19570;stroke-width:1.9226;stroke-miterlimit:10;} .st31{clip-path:url(#SVGID_30_);fill:none;stroke:#F7E729;stroke-width:1.9226;stroke-miterlimit:10;} .st32{clip-path:url(#SVGID_32_);fill:none;stroke:#F7E729;stroke-width:1.9226;stroke-miterlimit:10;} .st33{fill:#E01015;} .st34{fill:#1B4D93;} .st35{fill:#5BC3F0;} .st36{fill:#EC7412;} .st37{fill:#FFCF07;} .st38{fill:#E5237B;} .st39{fill:#65B12E;} .st40{clip-path:url(#SVGID_34_);fill:none;stroke:#F7E729;stroke-width:1.9226;stroke-miterlimit:10;} .st41{clip-path:url(#SVGID_36_);fill:none;stroke:#F7E729;stroke-width:1.9226;stroke-miterlimit:10;} .st42{fill:#E1513B;} .st43{stroke:#000000;stroke-miterlimit:10;} .st44{filter:url(#Adobe_OpacityMaskFilter_6_);} .st45{fill:#C0C0C0;} .st46{fill:#FFFFFF;stroke:#FFFFFF;stroke-miterlimit:10;} .st47{fill:#FFFFFF;stroke:#FFFFFF;stroke-width:1.2;stroke-miterlimit:10;} .st48{fill:#FFFFFF;stroke:#FFFFFF;stroke-width:2;stroke-miterlimit:10;} .st49{fill:none;stroke:#FFFFFF;stroke-width:2;stroke-miterlimit:10;} .st50{fill:#FFFFFF;stroke:#FFFFFF;stroke-width:0.5;stroke-miterlimit:10;} .st51{fill:url(#SVGID_38_);} .st52{fill:url(#SVGID_39_);} .st53{fill:url(#SVGID_40_);} .st54{fill:url(#SVGID_41_);} .st55{fill:url(#SVGID_42_);} .st56{filter:url(#Adobe_OpacityMaskFilter_7_);} .st57{fill:#F5F5F5;} .st58{fill:url(#SVGID_44_);} .st59{fill:url(#SVGID_45_);} .st60{fill:url(#SVGID_46_);} .st61{fill:url(#SVGID_47_);} .st62{fill:url(#SVGID_48_);} .st63{fill:url(#SVGID_49_);} .st64{fill:url(#SVGID_50_);} .st65{fill:url(#SVGID_51_);} .st66{fill:url(#SVGID_52_);} .st67{fill:url(#SVGID_53_);} .st68{fill:url(#SVGID_54_);} .st69{fill:#FFFFFF;stroke:#444444;stroke-width:1.5;stroke-linecap:round;stroke-linejoin:round;stroke-miterlimit:10;} .st70{filter:url(#Adobe_OpacityMaskFilter_8_);} .st71{filter:url(#Adobe_OpacityMaskFilter_9_);} .st72{fill:#DF0B18;} .st73{fill:#EE96BE;} .st74{fill:#166C4B;} .st75{fill:#4CBFEC;} .st76{fill:#EC7A28;} .st77{fill:#FFCF17;} .st78{fill:#01498B;} .st79{fill:#E3E15C;} .st80{fill:#1E8CC6;} .st81{fill:#65B147;} .st82{fill:#E41E7B;} .st83{fill:#5F3813;} .st84{fill:#F09271;} .st85{fill:#A36329;} .st86{filter:url(#Adobe_OpacityMaskFilter_10_);} .st87{filter:url(#Adobe_OpacityMaskFilter_11_);} .st88{filter:url(#Adobe_OpacityMaskFilter_12_);} .st89{fill:#DEDEDE;} .st90{filter:url(#Adobe_OpacityMaskFilter_13_);} .st91{opacity:0.75;} .st92{fill:#353535;} .st93{fill:url(#SVGID_61_);} .st94{filter:url(#Adobe_OpacityMaskFilter_14_);} .st95{fill:#FB6880;} .st96{fill:#FCFDFF;} .st97{fill:#707070;} .st98{fill:none;stroke:#707070;stroke-width:0.5;stroke-miterlimit:10;} .st99{fill:#D1D1D1;} .st100{fill:#141414;} .st101{fill:none;stroke:#000000;stroke-width:3;stroke-linejoin:round;stroke-miterlimit:10;} .st102{fill:#2D2D2D;} .st103{fill:#ECECEC;} .st104{fill:#E1E1E1;} .st105{fill:#FAFAFA;} .st106{fill:#FF735D;} .st107{fill:#1A2E35;} .st108{fill:#3BA435;} .st109{fill:#4CDF46;} .st110{opacity:0.77;} .st111{fill:#375A64;} .st112{opacity:0.3;} .st113{opacity:0.65;} .st114{fill:none;stroke:#FFFFFF;stroke-width:0.05;stroke-miterlimit:10;} .st115{fill:#FFC19D;} .st116{fill:#CAFFCA;} .st117{fill:#FF9C6A;} .st118{opacity:0.24;} .st119{fill:none;stroke:#000000;stroke-width:7;stroke-linejoin:round;stroke-miterlimit:10;} .st120{stroke:#000000;stroke-width:2;stroke-miterlimit:10;} .st121{stroke:#000000;stroke-width:0.75;stroke-miterlimit:10;} .st122{stroke:#000000;stroke-width:0.5;stroke-miterlimit:10;} .st123{stroke:#444444;stroke-width:1.5;stroke-linecap:round;stroke-linejoin:round;stroke-miterlimit:10;} .st124{stroke:#000000;stroke-width:0.5;stroke-linecap:round;stroke-linejoin:round;stroke-miterlimit:10;} </style> <g> <g> <path d="M123.9,154.75h-16.06c-1.08,0-1.96-0.88-1.96-1.96v-9.57c0-0.36-0.14-0.69-0.39-0.94c-0.25-0.25-0.59-0.39-0.94-0.39h0 l-31.95,0.02c-0.73,0-1.33,0.6-1.33,1.33v9.55c0,1.08-0.88,1.96-1.96,1.96H53.26c-1.08,0-1.96-0.88-1.96-1.96v-13.4 c0-1.75-0.88-3.4-2.36-4.4c-10.43-7.1-16.91-21.19-16.91-36.78c0-20.3,11.75-36.15,29.92-40.37c1.05-0.25,2.1,0.41,2.35,1.46 c0.24,1.05-0.41,2.1-1.46,2.35c-16.34,3.8-26.9,18.15-26.9,36.56c0,14.32,5.82,27.17,15.19,33.55c2.55,1.73,4.07,4.59,4.07,7.64 v11.44h12.14v-7.6c0-2.89,2.35-5.24,5.24-5.24l31.95-0.02c0,0,0,0,0,0c1.4,0,2.72,0.55,3.71,1.54c0.99,0.99,1.54,2.31,1.54,3.71 v7.62h12.15l0-12.55c0-2.49,1.19-4.88,3.18-6.38l0.75-0.57c5.27-3.97,10.24-7.72,13.22-14.28c1.31-2.89,4.16-4.75,7.26-4.75 c2.33,0,4.13-1.42,4.61-3.46l3.08-17.23c-0.05-2.85-1.28-4.3-3.66-4.3h-3.81c-3.13,0-5.99-1.74-7.27-4.44 c-1.82-3.82-4.56-6.21-8.04-9.24c-0.72-0.63-1.48-1.29-2.25-1.98c-0.41-0.37-0.65-0.9-0.65-1.46V52.91l-8.41,8.15 c-0.37,0.37-0.86,0.57-1.38,0.57h-4.3c-1.08,0-1.96-0.88-1.96-1.96c0-1.08,0.88-1.96,1.96-1.96h3.49l7.65-7.66 c1.15-1.15,2.87-1.5,4.38-0.87c1.51,0.62,2.48,2.08,2.48,3.71v16.41c0.53,0.47,1.05,0.93,1.56,1.37c3.67,3.2,6.83,5.95,9,10.51 c0.64,1.34,2.11,2.21,3.74,2.21h3.81c4.6,0,7.57,3.29,7.57,8.38c0,0.12-0.01,0.23-0.03,0.35l-3.14,17.51 c-0.93,3.91-4.29,6.57-8.2,6.57c-1.81,0-3.26,0.96-3.94,2.46c-3.39,7.47-9,11.7-14.43,15.78l-0.75,0.56 c-1.02,0.77-1.62,1.99-1.62,3.26l0,14.51c0,0.52-0.21,1.02-0.57,1.38S124.42,154.75,123.9,154.75z"></path> </g> <g> <path d="M46.87,99.35c-0.03,0-0.05,0-0.08,0c-1.08-0.04-1.92-0.96-1.87-2.04c0.38-9.08,3.86-17.25,9.8-23 c0.77-0.75,2.01-0.73,2.77,0.05c0.75,0.78,0.73,2.01-0.05,2.77c-5.22,5.05-8.28,12.27-8.61,20.35 C48.78,98.53,47.91,99.35,46.87,99.35z"></path> </g> <g> <path d="M86.97,74.48c-10.82,0-19.62-8.8-19.62-19.62s8.8-19.62,19.62-19.62c10.82,0,19.62,8.8,19.62,19.62 S97.79,74.48,86.97,74.48z M86.97,39.16c-8.66,0-15.7,7.04-15.7,15.7s7.04,15.7,15.7,15.7c8.66,0,15.7-7.04,15.7-15.7 S95.63,39.16,86.97,39.16z"></path> </g> <g> <path d="M130.32,90.53c-1.08,0-1.96-0.88-1.96-1.96v-6.42c0-1.08,0.88-1.96,1.96-1.96s1.96,0.88,1.96,1.96v6.42 C132.28,89.66,131.4,90.53,130.32,90.53z"></path> </g> </g> </svg> 