<?xml version="1.0" encoding="UTF-8"?> <!-- Generator: Adobe Illustrator 24.3.0, SVG Export Plug-In . SVG Version: 6.00 Build 0) --> <svg xmlns="http://www.w3.org/2000/svg" xmlns:xlink="http://www.w3.org/1999/xlink" version="1.1" id="Capa_1" x="0px" y="0px" viewBox="0 0 190 190" style="enable-background:new 0 0 190 190;" xml:space="preserve"> <style type="text/css"> .st0{fill:#FFFFFF;} .st1{filter:url(#Adobe_OpacityMaskFilter);} .st2{filter:url(#Adobe_OpacityMaskFilter_1_);} .st3{filter:url(#Adobe_OpacityMaskFilter_2_);} .st4{filter:url(#Adobe_OpacityMaskFilter_3_);} .st5{filter:url(#Adobe_OpacityMaskFilter_4_);} .st6{fill:#9A65A4;} .st7{fill:#39A735;} .st8{fill-rule:evenodd;clip-rule:evenodd;fill:#39A735;} .st9{fill-rule:evenodd;clip-rule:evenodd;fill:#FFFFFF;} .st10{fill:#4CE146;} .st11{fill:none;stroke:#383838;stroke-width:0.5;stroke-miterlimit:10;} .st12{fill:#383838;} .st13{fill:none;stroke:#000000;stroke-width:4;stroke-miterlimit:10;} .st14{filter:url(#Adobe_OpacityMaskFilter_5_);} .st15{fill:none;stroke:#000000;stroke-width:0.5;stroke-miterlimit:10;} .st16{fill:#9B66A5;} .st17{fill:none;stroke:#9B66A5;stroke-width:5.7679;stroke-miterlimit:10;} .st18{fill:#DBD6D4;} .st19{clip-path:url(#SVGID_8_);fill:none;stroke:#F7E729;stroke-width:1.9226;stroke-miterlimit:10;} .st20{clip-path:url(#SVGID_10_);fill:none;stroke:#F7E729;stroke-width:1.9226;stroke-miterlimit:10;} .st21{clip-path:url(#SVGID_12_);fill:none;stroke:#F7E729;stroke-width:1.9226;stroke-miterlimit:10;} .st22{clip-path:url(#SVGID_14_);fill:none;stroke:#F7E729;stroke-width:1.9226;stroke-miterlimit:10;} .st23{clip-path:url(#SVGID_16_);fill:none;stroke:#F7E729;stroke-width:1.9226;stroke-miterlimit:10;} .st24{clip-path:url(#SVGID_18_);fill:none;stroke:#F7E729;stroke-width:1.9226;stroke-miterlimit:10;} .st25{clip-path:url(#SVGID_20_);fill:none;stroke:#76BC81;stroke-width:1.9226;stroke-miterlimit:10;} .st26{clip-path:url(#SVGID_22_);fill:none;stroke:#76BC81;stroke-width:1.9226;stroke-miterlimit:10;} .st27{clip-path:url(#SVGID_24_);fill:none;stroke:#76BC81;stroke-width:1.9226;stroke-miterlimit:10;} .st28{clip-path:url(#SVGID_26_);fill:none;stroke:#76BC81;stroke-width:1.9226;stroke-miterlimit:10;} .st29{fill-rule:evenodd;clip-rule:evenodd;fill:#225CA6;} .st30{clip-path:url(#SVGID_28_);fill:none;stroke:#F19570;stroke-width:1.9226;stroke-miterlimit:10;} .st31{clip-path:url(#SVGID_30_);fill:none;stroke:#F7E729;stroke-width:1.9226;stroke-miterlimit:10;} .st32{clip-path:url(#SVGID_32_);fill:none;stroke:#F7E729;stroke-width:1.9226;stroke-miterlimit:10;} .st33{fill:#E01015;} .st34{fill:#1B4D93;} .st35{fill:#5BC3F0;} .st36{fill:#EC7412;} .st37{fill:#FFCF07;} .st38{fill:#E5237B;} .st39{fill:#65B12E;} .st40{clip-path:url(#SVGID_34_);fill:none;stroke:#F7E729;stroke-width:1.9226;stroke-miterlimit:10;} .st41{clip-path:url(#SVGID_36_);fill:none;stroke:#F7E729;stroke-width:1.9226;stroke-miterlimit:10;} .st42{fill:#E1513B;} .st43{stroke:#000000;stroke-miterlimit:10;} .st44{filter:url(#Adobe_OpacityMaskFilter_6_);} .st45{fill:#C0C0C0;} .st46{fill:#FFFFFF;stroke:#FFFFFF;stroke-miterlimit:10;} .st47{fill:#FFFFFF;stroke:#FFFFFF;stroke-width:1.2;stroke-miterlimit:10;} .st48{fill:#FFFFFF;stroke:#FFFFFF;stroke-width:2;stroke-miterlimit:10;} .st49{fill:none;stroke:#FFFFFF;stroke-width:2;stroke-miterlimit:10;} .st50{fill:#FFFFFF;stroke:#FFFFFF;stroke-width:0.5;stroke-miterlimit:10;} .st51{fill:url(#SVGID_38_);} .st52{fill:url(#SVGID_39_);} .st53{fill:url(#SVGID_40_);} .st54{fill:url(#SVGID_41_);} .st55{fill:url(#SVGID_42_);} .st56{filter:url(#Adobe_OpacityMaskFilter_7_);} .st57{fill:#F5F5F5;} .st58{fill:url(#SVGID_44_);} .st59{fill:url(#SVGID_45_);} .st60{fill:url(#SVGID_46_);} .st61{fill:url(#SVGID_47_);} .st62{fill:url(#SVGID_48_);} .st63{fill:url(#SVGID_49_);} .st64{fill:url(#SVGID_50_);} .st65{fill:url(#SVGID_51_);} .st66{fill:url(#SVGID_52_);} .st67{fill:url(#SVGID_53_);} .st68{fill:url(#SVGID_54_);} .st69{fill:#FFFFFF;stroke:#444444;stroke-width:1.5;stroke-linecap:round;stroke-linejoin:round;stroke-miterlimit:10;} .st70{filter:url(#Adobe_OpacityMaskFilter_8_);} .st71{filter:url(#Adobe_OpacityMaskFilter_9_);} .st72{fill:#DF0B18;} .st73{fill:#EE96BE;} .st74{fill:#166C4B;} .st75{fill:#4CBFEC;} .st76{fill:#EC7A28;} .st77{fill:#FFCF17;} .st78{fill:#01498B;} .st79{fill:#E3E15C;} .st80{fill:#1E8CC6;} .st81{fill:#65B147;} .st82{fill:#E41E7B;} .st83{fill:#5F3813;} .st84{fill:#F09271;} .st85{fill:#A36329;} .st86{filter:url(#Adobe_OpacityMaskFilter_10_);} .st87{filter:url(#Adobe_OpacityMaskFilter_11_);} .st88{filter:url(#Adobe_OpacityMaskFilter_12_);} .st89{fill:#DEDEDE;} .st90{filter:url(#Adobe_OpacityMaskFilter_13_);} .st91{opacity:0.75;} .st92{fill:#353535;} .st93{fill:url(#SVGID_61_);} .st94{filter:url(#Adobe_OpacityMaskFilter_14_);} .st95{fill:#FB6880;} .st96{fill:#FCFDFF;} .st97{fill:#707070;} .st98{fill:none;stroke:#707070;stroke-width:0.5;stroke-miterlimit:10;} .st99{fill:#D1D1D1;} .st100{fill:#141414;} .st101{fill:none;stroke:#000000;stroke-width:3;stroke-linejoin:round;stroke-miterlimit:10;} .st102{fill:#2D2D2D;} .st103{fill:#ECECEC;} .st104{fill:#E1E1E1;} .st105{fill:#FAFAFA;} .st106{fill:#FF735D;} .st107{fill:#1A2E35;} .st108{fill:#3BA435;} .st109{fill:#4CDF46;} .st110{opacity:0.77;} .st111{fill:#375A64;} .st112{opacity:0.3;} .st113{opacity:0.65;} .st114{fill:none;stroke:#FFFFFF;stroke-width:0.05;stroke-miterlimit:10;} .st115{fill:#FFC19D;} .st116{fill:#CAFFCA;} .st117{fill:#FF9C6A;} .st118{opacity:0.24;} .st119{fill:none;stroke:#000000;stroke-width:7;stroke-linejoin:round;stroke-miterlimit:10;} .st120{stroke:#000000;stroke-width:2;stroke-miterlimit:10;} .st121{stroke:#000000;stroke-width:0.75;stroke-miterlimit:10;} .st122{stroke:#000000;stroke-width:0.5;stroke-miterlimit:10;} .st123{stroke:#444444;stroke-width:1.5;stroke-linecap:round;stroke-linejoin:round;stroke-miterlimit:10;} .st124{stroke:#000000;stroke-width:0.5;stroke-linecap:round;stroke-linejoin:round;stroke-miterlimit:10;} </style> <g> <g> <path class="st43" d="M142.08,142.42H47.92c-0.58,0-1.05-0.47-1.05-1.05V57.24c0-0.58,0.47-1.05,1.05-1.05h8.05 c0.58,0,1.05,0.47,1.05,1.05v4.03h11.57v-4.03c0-0.58,0.47-1.05,1.05-1.05h51.74c0.58,0,1.05,0.47,1.05,1.05v4.03h11.6v-4.03 c0-0.58,0.47-1.05,1.05-1.05h7c0.58,0,1.05,0.47,1.05,1.05v84.13C143.13,141.95,142.66,142.42,142.08,142.42z M48.97,140.32h92.06 V58.29h-4.91v4.03c0,0.58-0.47,1.05-1.05,1.05h-13.7c-0.58,0-1.05-0.47-1.05-1.05v-4.03H70.68v4.03c0,0.58-0.47,1.05-1.05,1.05 H55.97c-0.58,0-1.05-0.47-1.05-1.05v-4.03h-5.95V140.32z"></path> </g> <g> <path class="st43" d="M142.08,142.42H47.92c-0.58,0-1.05-0.47-1.05-1.05V87.35c0-0.58,0.47-1.05,1.05-1.05h94.16 c0.58,0,1.05,0.47,1.05,1.05v54.02C143.12,141.95,142.66,142.42,142.08,142.42z M48.97,140.33h92.06V88.4H48.97V140.33z"></path> </g> <g> <g> <path class="st43" d="M69.63,112.6H55.96c-0.58,0-1.05-0.47-1.05-1.05V97.88c0-0.58,0.47-1.05,1.05-1.05h13.68 c0.58,0,1.05,0.47,1.05,1.05v13.68C70.68,112.13,70.21,112.6,69.63,112.6z M57,110.5h11.58V98.92H57V110.5z"></path> </g> <g> <path class="st43" d="M91.1,112.6H77.42c-0.58,0-1.05-0.47-1.05-1.05V97.88c0-0.58,0.47-1.05,1.05-1.05H91.1 c0.58,0,1.05,0.47,1.05,1.05v13.68C92.15,112.13,91.68,112.6,91.1,112.6z M78.47,110.5h11.58V98.92H78.47V110.5z"></path> </g> <g> <path class="st43" d="M112.57,112.6H98.89c-0.58,0-1.05-0.47-1.05-1.05V97.88c0-0.58,0.47-1.05,1.05-1.05h13.68 c0.58,0,1.05,0.47,1.05,1.05v13.68C113.62,112.13,113.15,112.6,112.57,112.6z M99.94,110.5h11.58V98.92H99.94V110.5z"></path> </g> <g> <path class="st43" d="M134.04,112.6h-13.68c-0.58,0-1.05-0.47-1.05-1.05V97.88c0-0.58,0.47-1.05,1.05-1.05h13.68 c0.58,0,1.05,0.47,1.05,1.05v13.68C135.09,112.13,134.62,112.6,134.04,112.6z M121.41,110.5h11.58V98.92h-11.58V110.5z"></path> </g> </g> <g> <g> <path class="st43" d="M69.63,132.52H55.96c-0.58,0-1.05-0.47-1.05-1.05v-13.68c0-0.58,0.47-1.05,1.05-1.05h13.68 c0.58,0,1.05,0.47,1.05,1.05v13.68C70.68,132.05,70.21,132.52,69.63,132.52z M57,130.42h11.58v-11.58H57V130.42z"></path> </g> <g> <path class="st43" d="M91.1,132.52H77.42c-0.58,0-1.05-0.47-1.05-1.05v-13.68c0-0.58,0.47-1.05,1.05-1.05H91.1 c0.58,0,1.05,0.47,1.05,1.05v13.68C92.15,132.05,91.68,132.52,91.1,132.52z M78.47,130.42h11.58v-11.58H78.47V130.42z"></path> </g> <g> <path class="st43" d="M112.57,132.52H98.89c-0.58,0-1.05-0.47-1.05-1.05v-13.68c0-0.58,0.47-1.05,1.05-1.05h13.68 c0.58,0,1.05,0.47,1.05,1.05v13.68C113.62,132.05,113.15,132.52,112.57,132.52z M99.94,130.42h11.58v-11.58H99.94V130.42z"></path> </g> <g> <path class="st43" d="M134.04,132.52h-13.68c-0.58,0-1.05-0.47-1.05-1.05v-13.68c0-0.58,0.47-1.05,1.05-1.05h13.68 c0.58,0,1.05,0.47,1.05,1.05v13.68C135.09,132.05,134.62,132.52,134.04,132.52z M121.41,130.42h11.58v-11.58h-11.58V130.42z"></path> </g> </g> <g> <path class="st43" d="M69.64,63.37H55.97c-0.58,0-1.05-0.47-1.05-1.05v-13.7c0-0.58,0.47-1.05,1.05-1.05h13.67 c0.58,0,1.05,0.47,1.05,1.05v13.7C70.68,62.9,70.22,63.37,69.64,63.37z M57.02,61.28h11.57v-11.6H57.02V61.28z"></path> </g> <g> <path class="st43" d="M135.08,63.37h-13.7c-0.58,0-1.05-0.47-1.05-1.05v-13.7c0-0.58,0.47-1.05,1.05-1.05h13.7 c0.58,0,1.05,0.47,1.05,1.05v13.7C136.13,62.9,135.66,63.37,135.08,63.37z M122.42,61.28h11.6v-11.6h-11.6V61.28z"></path> </g> </g> </svg> 