<?xml version="1.0" encoding="UTF-8"?> <!-- Generator: Adobe Illustrator 24.3.0, SVG Export Plug-In . SVG Version: 6.00 Build 0) --> <svg xmlns="http://www.w3.org/2000/svg" xmlns:xlink="http://www.w3.org/1999/xlink" version="1.1" id="Capa_1" x="0px" y="0px" viewBox="0 0 190 190" style="enable-background:new 0 0 190 190;" xml:space="preserve"> <style type="text/css"> .st0{fill:#FFFFFF;} .st1{filter:url(#Adobe_OpacityMaskFilter);} .st2{filter:url(#Adobe_OpacityMaskFilter_1_);} .st3{filter:url(#Adobe_OpacityMaskFilter_2_);} .st4{filter:url(#Adobe_OpacityMaskFilter_3_);} .st5{filter:url(#Adobe_OpacityMaskFilter_4_);} .st6{fill:#9A65A4;} .st7{fill:#39A735;} .st8{fill-rule:evenodd;clip-rule:evenodd;fill:#39A735;} .st9{fill-rule:evenodd;clip-rule:evenodd;fill:#FFFFFF;} .st10{fill:#4CE146;} .st11{fill:none;stroke:#383838;stroke-width:0.5;stroke-miterlimit:10;} .st12{fill:#383838;} .st13{fill:none;stroke:#000000;stroke-width:4;stroke-miterlimit:10;} .st14{filter:url(#Adobe_OpacityMaskFilter_5_);} .st15{fill:none;stroke:#000000;stroke-width:0.5;stroke-miterlimit:10;} .st16{fill:#9B66A5;} .st17{fill:none;stroke:#9B66A5;stroke-width:5.7679;stroke-miterlimit:10;} .st18{fill:#DBD6D4;} .st19{clip-path:url(#SVGID_8_);fill:none;stroke:#F7E729;stroke-width:1.9226;stroke-miterlimit:10;} .st20{clip-path:url(#SVGID_10_);fill:none;stroke:#F7E729;stroke-width:1.9226;stroke-miterlimit:10;} .st21{clip-path:url(#SVGID_12_);fill:none;stroke:#F7E729;stroke-width:1.9226;stroke-miterlimit:10;} .st22{clip-path:url(#SVGID_14_);fill:none;stroke:#F7E729;stroke-width:1.9226;stroke-miterlimit:10;} .st23{clip-path:url(#SVGID_16_);fill:none;stroke:#F7E729;stroke-width:1.9226;stroke-miterlimit:10;} .st24{clip-path:url(#SVGID_18_);fill:none;stroke:#F7E729;stroke-width:1.9226;stroke-miterlimit:10;} .st25{clip-path:url(#SVGID_20_);fill:none;stroke:#76BC81;stroke-width:1.9226;stroke-miterlimit:10;} .st26{clip-path:url(#SVGID_22_);fill:none;stroke:#76BC81;stroke-width:1.9226;stroke-miterlimit:10;} .st27{clip-path:url(#SVGID_24_);fill:none;stroke:#76BC81;stroke-width:1.9226;stroke-miterlimit:10;} .st28{clip-path:url(#SVGID_26_);fill:none;stroke:#76BC81;stroke-width:1.9226;stroke-miterlimit:10;} .st29{fill-rule:evenodd;clip-rule:evenodd;fill:#225CA6;} .st30{clip-path:url(#SVGID_28_);fill:none;stroke:#F19570;stroke-width:1.9226;stroke-miterlimit:10;} .st31{clip-path:url(#SVGID_30_);fill:none;stroke:#F7E729;stroke-width:1.9226;stroke-miterlimit:10;} .st32{clip-path:url(#SVGID_32_);fill:none;stroke:#F7E729;stroke-width:1.9226;stroke-miterlimit:10;} .st33{fill:#E01015;} .st34{fill:#1B4D93;} .st35{fill:#5BC3F0;} .st36{fill:#EC7412;} .st37{fill:#FFCF07;} .st38{fill:#E5237B;} .st39{fill:#65B12E;} .st40{clip-path:url(#SVGID_34_);fill:none;stroke:#F7E729;stroke-width:1.9226;stroke-miterlimit:10;} .st41{clip-path:url(#SVGID_36_);fill:none;stroke:#F7E729;stroke-width:1.9226;stroke-miterlimit:10;} .st42{fill:#E1513B;} .st43{stroke:#000000;stroke-miterlimit:10;} .st44{filter:url(#Adobe_OpacityMaskFilter_6_);} .st45{fill:#C0C0C0;} .st46{fill:#FFFFFF;stroke:#FFFFFF;stroke-miterlimit:10;} .st47{fill:#FFFFFF;stroke:#FFFFFF;stroke-width:1.2;stroke-miterlimit:10;} .st48{fill:#FFFFFF;stroke:#FFFFFF;stroke-width:2;stroke-miterlimit:10;} .st49{fill:none;stroke:#FFFFFF;stroke-width:2;stroke-miterlimit:10;} .st50{fill:#FFFFFF;stroke:#FFFFFF;stroke-width:0.5;stroke-miterlimit:10;} .st51{fill:url(#SVGID_38_);} .st52{fill:url(#SVGID_39_);} .st53{fill:url(#SVGID_40_);} .st54{fill:url(#SVGID_41_);} .st55{fill:url(#SVGID_42_);} .st56{filter:url(#Adobe_OpacityMaskFilter_7_);} .st57{fill:#F5F5F5;} .st58{fill:url(#SVGID_44_);} .st59{fill:url(#SVGID_45_);} .st60{fill:url(#SVGID_46_);} .st61{fill:url(#SVGID_47_);} .st62{fill:url(#SVGID_48_);} .st63{fill:url(#SVGID_49_);} .st64{fill:url(#SVGID_50_);} .st65{fill:url(#SVGID_51_);} .st66{fill:url(#SVGID_52_);} .st67{fill:url(#SVGID_53_);} .st68{fill:url(#SVGID_54_);} .st69{fill:#FFFFFF;stroke:#444444;stroke-width:1.5;stroke-linecap:round;stroke-linejoin:round;stroke-miterlimit:10;} .st70{filter:url(#Adobe_OpacityMaskFilter_8_);} .st71{filter:url(#Adobe_OpacityMaskFilter_9_);} .st72{fill:#DF0B18;} .st73{fill:#EE96BE;} .st74{fill:#166C4B;} .st75{fill:#4CBFEC;} .st76{fill:#EC7A28;} .st77{fill:#FFCF17;} .st78{fill:#01498B;} .st79{fill:#E3E15C;} .st80{fill:#1E8CC6;} .st81{fill:#65B147;} .st82{fill:#E41E7B;} .st83{fill:#5F3813;} .st84{fill:#F09271;} .st85{fill:#A36329;} .st86{filter:url(#Adobe_OpacityMaskFilter_10_);} .st87{filter:url(#Adobe_OpacityMaskFilter_11_);} .st88{filter:url(#Adobe_OpacityMaskFilter_12_);} .st89{fill:#DEDEDE;} .st90{filter:url(#Adobe_OpacityMaskFilter_13_);} .st91{opacity:0.75;} .st92{fill:#353535;} .st93{fill:url(#SVGID_61_);} .st94{filter:url(#Adobe_OpacityMaskFilter_14_);} .st95{fill:#FB6880;} .st96{fill:#FCFDFF;} .st97{fill:#707070;} .st98{fill:none;stroke:#707070;stroke-width:0.5;stroke-miterlimit:10;} .st99{fill:#D1D1D1;} .st100{fill:#141414;} .st101{fill:none;stroke:#000000;stroke-width:3;stroke-linejoin:round;stroke-miterlimit:10;} .st102{fill:#2D2D2D;} .st103{fill:#ECECEC;} .st104{fill:#E1E1E1;} .st105{fill:#FAFAFA;} .st106{fill:#FF735D;} .st107{fill:#1A2E35;} .st108{fill:#3BA435;} .st109{fill:#4CDF46;} .st110{opacity:0.77;} .st111{fill:#375A64;} .st112{opacity:0.3;} .st113{opacity:0.65;} .st114{fill:none;stroke:#FFFFFF;stroke-width:0.05;stroke-miterlimit:10;} .st115{fill:#FFC19D;} .st116{fill:#CAFFCA;} .st117{fill:#FF9C6A;} .st118{opacity:0.24;} .st119{fill:none;stroke:#000000;stroke-width:7;stroke-linejoin:round;stroke-miterlimit:10;} .st120{stroke:#000000;stroke-width:2;stroke-miterlimit:10;} .st121{stroke:#000000;stroke-width:0.75;stroke-miterlimit:10;} .st122{stroke:#000000;stroke-width:0.5;stroke-miterlimit:10;} .st123{stroke:#444444;stroke-width:1.5;stroke-linecap:round;stroke-linejoin:round;stroke-miterlimit:10;} .st124{stroke:#000000;stroke-width:0.5;stroke-linecap:round;stroke-linejoin:round;stroke-miterlimit:10;} </style> <g> <g> <g> <path class="st121" d="M133.91,58.16H56.22c-0.68,0-1.23-0.55-1.23-1.23s0.55-1.23,1.23-1.23h77.69c0.68,0,1.23,0.55,1.23,1.23 S134.58,58.16,133.91,58.16z"></path> </g> </g> <g> <g> <path class="st121" d="M135.37,105.29h-80.6c-0.68,0-1.23-0.55-1.23-1.23c0-0.68,0.55-1.23,1.23-1.23h80.6 c0.68,0,1.23,0.55,1.23,1.23C136.6,104.74,136.05,105.29,135.37,105.29z"></path> </g> </g> <g> <g> <path class="st121" d="M73.15,125.96h-10.4c-1.48,0-2.68-1.2-2.68-2.68v-9.42c0-1.48,1.2-2.68,2.68-2.68h10.4 c1.48,0,2.68,1.2,2.68,2.68v9.42C75.83,124.76,74.63,125.96,73.15,125.96z M62.75,113.63c-0.13,0-0.23,0.1-0.23,0.23v9.42 c0,0.13,0.1,0.23,0.23,0.23h10.4c0.13,0,0.23-0.1,0.23-0.23v-9.42c0-0.13-0.1-0.23-0.23-0.23H62.75z"></path> </g> </g> <g> <g> <path class="st121" d="M127.25,125.96h-10.4c-1.48,0-2.68-1.2-2.68-2.68v-9.42c0-1.48,1.2-2.68,2.68-2.68h10.4 c1.48,0,2.68,1.2,2.68,2.68v9.42C129.93,124.76,128.73,125.96,127.25,125.96z M116.85,113.63c-0.13,0-0.23,0.1-0.23,0.23v9.42 c0,0.13,0.1,0.23,0.23,0.23h10.4c0.13,0,0.23-0.1,0.23-0.23v-9.42c0-0.13-0.1-0.23-0.23-0.23H116.85z"></path> </g> </g> <g> <g> <path class="st121" d="M109.44,116.12H80.7c-0.68,0-1.23-0.55-1.23-1.23s0.55-1.23,1.23-1.23h28.74c0.68,0,1.23,0.55,1.23,1.23 S110.12,116.12,109.44,116.12z"></path> </g> </g> <g> <g> <path class="st121" d="M109.44,122.33H80.7c-0.68,0-1.23-0.55-1.23-1.23c0-0.68,0.55-1.23,1.23-1.23h28.74 c0.68,0,1.23,0.55,1.23,1.23C110.67,121.78,110.12,122.33,109.44,122.33z"></path> </g> </g> <g> <g> <path class="st121" d="M128.31,137.15H61.69c-3.37,0-6.51-1.32-8.62-3.61c-1.74-1.9-2.59-4.28-2.38-6.7l3.48-73.29 c0.56-6.41,7.09-11.38,14.86-11.38h51.94c7.77,0,14.3,4.98,14.86,11.34l3.52,73.37c0.18,2.42-0.68,4.8-2.42,6.69 C134.8,135.84,131.67,137.15,128.31,137.15z M69.03,44.62c-6.51,0-11.97,4-12.42,9.1l-3.48,73.29c-0.15,1.78,0.47,3.5,1.74,4.88 c1.64,1.79,4.13,2.82,6.81,2.82h66.62c2.68,0,5.16-1.02,6.81-2.81c1.28-1.39,1.92-3.11,1.78-4.85c0-0.01,0-0.02,0-0.04 l-3.51-73.34c-0.45-5.05-5.9-9.05-12.42-9.05H69.03z"></path> </g> </g> <g> <g> <path class="st121" d="M142.26,97.34h-5.63c-0.65,0-1.19-0.51-1.22-1.17l-1.23-25.92c-0.02-0.33,0.11-0.66,0.34-0.9 c0.23-0.24,0.55-0.38,0.89-0.38h6.87c2.63,0,4.77,2.39,4.77,5.33v17.71C147.03,94.95,144.89,97.34,142.26,97.34z M137.8,94.89 h4.47c1.28,0,2.32-1.29,2.32-2.88V74.3c0-1.59-1.04-2.88-2.32-2.88h-5.58L137.8,94.89z"></path> </g> </g> <g> <g> <path class="st121" d="M53.37,97.34h-5.63c-2.63,0-4.77-2.39-4.77-5.33V74.3c0-2.94,2.14-5.33,4.77-5.33h6.87 c0.34,0,0.66,0.14,0.89,0.38c0.23,0.24,0.35,0.57,0.34,0.9l-1.23,25.92C54.56,96.83,54.02,97.34,53.37,97.34z M47.74,71.42 c-1.28,0-2.32,1.29-2.32,2.88v17.71c0,1.59,1.04,2.88,2.32,2.88h4.46l1.12-23.47H47.74z"></path> </g> </g> <g> <g> <path class="st121" d="M74.13,147.83H63.45c-1.65,0-2.99-1.34-2.99-2.99v-8.92c0-0.68,0.55-1.23,1.23-1.23h14.2 c0.68,0,1.23,0.55,1.23,1.23v8.92C77.12,146.49,75.77,147.83,74.13,147.83z M62.91,137.15v7.69c0,0.3,0.24,0.54,0.54,0.54h10.68 c0.3,0,0.54-0.24,0.54-0.54v-7.69H62.91z"></path> </g> </g> <g> <g> <path class="st121" d="M126.55,147.83h-10.68c-1.65,0-2.99-1.34-2.99-2.99v-8.92c0-0.68,0.55-1.23,1.23-1.23h14.2 c0.68,0,1.23,0.55,1.23,1.23v8.92C129.54,146.49,128.2,147.83,126.55,147.83z M115.34,137.15v7.69c0,0.3,0.24,0.54,0.54,0.54 h10.68c0.3,0,0.54-0.24,0.54-0.54v-7.69H115.34z"></path> </g> </g> </g> </svg> 