<?xml version="1.0" encoding="UTF-8"?> <!-- Generator: Adobe Illustrator 24.3.0, SVG Export Plug-In . SVG Version: 6.00 Build 0) --> <svg xmlns="http://www.w3.org/2000/svg" xmlns:xlink="http://www.w3.org/1999/xlink" version="1.1" id="Capa_1" x="0px" y="0px" viewBox="0 0 128 128" style="enable-background:new 0 0 128 128;" xml:space="preserve"> <style type="text/css"> .st0{fill:#FFFFFF;} .st1{filter:url(#Adobe_OpacityMaskFilter);} .st2{filter:url(#Adobe_OpacityMaskFilter_1_);} .st3{filter:url(#Adobe_OpacityMaskFilter_2_);} .st4{filter:url(#Adobe_OpacityMaskFilter_3_);} .st5{filter:url(#Adobe_OpacityMaskFilter_4_);} .st6{fill:#9A65A4;} .st7{fill:#39A735;} .st8{fill-rule:evenodd;clip-rule:evenodd;fill:#39A735;} .st9{fill-rule:evenodd;clip-rule:evenodd;fill:#FFFFFF;} .st10{fill:#4CE146;} .st11{fill:none;stroke:#383838;stroke-width:0.5;stroke-miterlimit:10;} .st12{fill:#383838;} .st13{fill:none;stroke:#000000;stroke-width:4;stroke-miterlimit:10;} .st14{filter:url(#Adobe_OpacityMaskFilter_5_);} .st15{fill:none;stroke:#000000;stroke-width:0.5;stroke-miterlimit:10;} .st16{fill:#9B66A5;} .st17{fill:none;stroke:#9B66A5;stroke-width:5.7679;stroke-miterlimit:10;} .st18{fill:#DBD6D4;} .st19{clip-path:url(#SVGID_8_);fill:none;stroke:#F7E729;stroke-width:1.9226;stroke-miterlimit:10;} .st20{clip-path:url(#SVGID_10_);fill:none;stroke:#F7E729;stroke-width:1.9226;stroke-miterlimit:10;} .st21{clip-path:url(#SVGID_12_);fill:none;stroke:#F7E729;stroke-width:1.9226;stroke-miterlimit:10;} .st22{clip-path:url(#SVGID_14_);fill:none;stroke:#F7E729;stroke-width:1.9226;stroke-miterlimit:10;} .st23{clip-path:url(#SVGID_16_);fill:none;stroke:#F7E729;stroke-width:1.9226;stroke-miterlimit:10;} .st24{clip-path:url(#SVGID_18_);fill:none;stroke:#F7E729;stroke-width:1.9226;stroke-miterlimit:10;} .st25{clip-path:url(#SVGID_20_);fill:none;stroke:#76BC81;stroke-width:1.9226;stroke-miterlimit:10;} .st26{clip-path:url(#SVGID_22_);fill:none;stroke:#76BC81;stroke-width:1.9226;stroke-miterlimit:10;} .st27{clip-path:url(#SVGID_24_);fill:none;stroke:#76BC81;stroke-width:1.9226;stroke-miterlimit:10;} .st28{clip-path:url(#SVGID_26_);fill:none;stroke:#76BC81;stroke-width:1.9226;stroke-miterlimit:10;} .st29{fill-rule:evenodd;clip-rule:evenodd;fill:#225CA6;} .st30{clip-path:url(#SVGID_28_);fill:none;stroke:#F19570;stroke-width:1.9226;stroke-miterlimit:10;} .st31{clip-path:url(#SVGID_30_);fill:none;stroke:#F7E729;stroke-width:1.9226;stroke-miterlimit:10;} .st32{clip-path:url(#SVGID_32_);fill:none;stroke:#F7E729;stroke-width:1.9226;stroke-miterlimit:10;} .st33{fill:#E01015;} .st34{fill:#1B4D93;} .st35{fill:#5BC3F0;} .st36{fill:#EC7412;} .st37{fill:#FFCF07;} .st38{fill:#E5237B;} .st39{fill:#65B12E;} .st40{clip-path:url(#SVGID_34_);fill:none;stroke:#F7E729;stroke-width:1.9226;stroke-miterlimit:10;} .st41{clip-path:url(#SVGID_36_);fill:none;stroke:#F7E729;stroke-width:1.9226;stroke-miterlimit:10;} .st42{fill:#E1513B;} .st43{stroke:#000000;stroke-miterlimit:10;} .st44{filter:url(#Adobe_OpacityMaskFilter_6_);} .st45{fill:#C0C0C0;} .st46{fill:#FFFFFF;stroke:#FFFFFF;stroke-miterlimit:10;} .st47{fill:#FFFFFF;stroke:#FFFFFF;stroke-width:1.2;stroke-miterlimit:10;} .st48{fill:#FFFFFF;stroke:#FFFFFF;stroke-width:2;stroke-miterlimit:10;} .st49{fill:none;stroke:#FFFFFF;stroke-width:2;stroke-miterlimit:10;} .st50{fill:#FFFFFF;stroke:#FFFFFF;stroke-width:0.5;stroke-miterlimit:10;} .st51{fill:url(#SVGID_38_);} .st52{fill:url(#SVGID_39_);} .st53{fill:url(#SVGID_40_);} .st54{fill:url(#SVGID_41_);} .st55{fill:url(#SVGID_42_);} .st56{filter:url(#Adobe_OpacityMaskFilter_7_);} .st57{fill:#F5F5F5;} .st58{fill:url(#SVGID_44_);} .st59{fill:url(#SVGID_45_);} .st60{fill:url(#SVGID_46_);} .st61{fill:url(#SVGID_47_);} .st62{fill:url(#SVGID_48_);} .st63{fill:url(#SVGID_49_);} .st64{fill:url(#SVGID_50_);} .st65{fill:url(#SVGID_51_);} .st66{fill:url(#SVGID_52_);} .st67{fill:url(#SVGID_53_);} .st68{fill:url(#SVGID_54_);} .st69{fill:#FFFFFF;stroke:#444444;stroke-width:1.5;stroke-linecap:round;stroke-linejoin:round;stroke-miterlimit:10;} .st70{filter:url(#Adobe_OpacityMaskFilter_8_);} .st71{filter:url(#Adobe_OpacityMaskFilter_9_);} .st72{fill:#DF0B18;} .st73{fill:#EE96BE;} .st74{fill:#166C4B;} .st75{fill:#4CBFEC;} .st76{fill:#EC7A28;} .st77{fill:#FFCF17;} .st78{fill:#01498B;} .st79{fill:#E3E15C;} .st80{fill:#1E8CC6;} .st81{fill:#65B147;} .st82{fill:#E41E7B;} .st83{fill:#5F3813;} .st84{fill:#F09271;} .st85{fill:#A36329;} .st86{filter:url(#Adobe_OpacityMaskFilter_10_);} .st87{filter:url(#Adobe_OpacityMaskFilter_11_);} .st88{filter:url(#Adobe_OpacityMaskFilter_12_);} .st89{fill:#DEDEDE;} .st90{filter:url(#Adobe_OpacityMaskFilter_13_);} .st91{opacity:0.75;} .st92{fill:#353535;} .st93{fill:url(#SVGID_61_);} .st94{filter:url(#Adobe_OpacityMaskFilter_14_);} .st95{fill:#FB6880;} .st96{fill:#FCFDFF;} .st97{fill:#707070;} .st98{fill:none;stroke:#707070;stroke-width:0.5;stroke-miterlimit:10;} .st99{fill:#D1D1D1;} .st100{fill:#141414;} .st101{fill:none;stroke:#000000;stroke-width:3;stroke-linejoin:round;stroke-miterlimit:10;} .st102{fill:#2D2D2D;} .st103{fill:#ECECEC;} .st104{fill:#E1E1E1;} .st105{fill:#FAFAFA;} .st106{fill:#FF735D;} .st107{fill:#1A2E35;} .st108{fill:#3BA435;} .st109{fill:#4CDF46;} .st110{opacity:0.77;} .st111{fill:#375A64;} .st112{opacity:0.3;} .st113{opacity:0.65;} .st114{fill:none;stroke:#FFFFFF;stroke-width:0.05;stroke-miterlimit:10;} .st115{fill:#FFC19D;} .st116{fill:#CAFFCA;} .st117{fill:#FF9C6A;} .st118{opacity:0.24;} .st119{fill:none;stroke:#000000;stroke-width:7;stroke-linejoin:round;stroke-miterlimit:10;} .st120{stroke:#000000;stroke-width:2;stroke-miterlimit:10;} .st121{stroke:#000000;stroke-width:0.75;stroke-miterlimit:10;} .st122{stroke:#000000;stroke-width:0.5;stroke-miterlimit:10;} .st123{stroke:#444444;stroke-width:1.5;stroke-linecap:round;stroke-linejoin:round;stroke-miterlimit:10;} .st124{stroke:#000000;stroke-width:0.5;stroke-linecap:round;stroke-linejoin:round;stroke-miterlimit:10;} </style> <g id="XMLID_31_"> <g id="XMLID_35_"> <path d="M100.12,38.92c-1.08-1.07-2.51-1.66-4.02-1.66H31.91c-1.51,0-2.94,0.59-4.03,1.67c-1.07,1.08-1.66,2.51-1.66,4.02v42.1 c0,1.52,0.59,2.95,1.67,4.03c1.08,1.07,2.51,1.66,4.03,1.66h64.18c1.52,0,2.95-0.59,4.03-1.67c1.07-1.08,1.66-2.51,1.66-4.03 v-42.1C101.79,41.43,101.2,40,100.12,38.92C100.12,38.92,100.12,38.92,100.12,38.92z M98.72,85.05c0,0.7-0.27,1.37-0.77,1.86 c-0.5,0.5-1.16,0.77-1.86,0.77H31.91c-0.7,0-1.36-0.27-1.85-0.76c-0.5-0.5-0.77-1.16-0.77-1.86v-42.1c0-0.7,0.27-1.36,0.76-1.85 c0.5-0.5,1.16-0.77,1.86-0.77h64.18c0.7,0,1.36,0.28,1.86,0.77c0.49,0.5,0.77,1.16,0.77,1.86V85.05z"></path> <path d="M96.09,91.19H31.91c-1.63,0-3.17-0.64-4.34-1.79c-1.16-1.17-1.8-2.71-1.8-4.34v-42.1c0-1.63,0.64-3.17,1.79-4.33 c1.16-1.16,2.71-1.8,4.34-1.8h64.19c1.64,0,3.18,0.64,4.33,1.79l0.07,0.09c1.09,1.07,1.72,2.61,1.73,4.25v42.1 c0,1.63-0.64,3.17-1.79,4.34C99.27,90.55,97.73,91.19,96.09,91.19z M31.91,37.69c-1.4,0-2.72,0.55-3.72,1.54 c-0.99,0.99-1.53,2.31-1.53,3.71v42.1c0,1.4,0.55,2.72,1.54,3.72c0.99,0.99,2.31,1.53,3.71,1.53h64.18c1.4,0,2.72-0.55,3.72-1.54 c0.99-1,1.53-2.32,1.53-3.72v-42.1c0-1.4-0.55-2.72-1.53-3.71l-0.04-0.04c-0.99-0.97-2.29-1.5-3.68-1.5H31.91z M96.09,88.12H31.91 c-0.82,0-1.59-0.32-2.16-0.89c-0.58-0.58-0.9-1.35-0.9-2.17v-42.1c0-0.82,0.32-1.59,0.89-2.16c0.58-0.58,1.35-0.9,2.17-0.9h64.19 c0.82,0.01,1.59,0.32,2.17,0.89c0.58,0.59,0.9,1.36,0.9,2.17v42.1c0,0.82-0.32,1.59-0.89,2.17C97.68,87.8,96.91,88.12,96.09,88.12 z M31.91,40.76c-0.58,0-1.14,0.23-1.55,0.65c-0.41,0.41-0.63,0.96-0.63,1.54v42.1c0,0.58,0.23,1.13,0.64,1.55 c0.41,0.41,0.95,0.63,1.54,0.63h64.18c0.58,0,1.13-0.23,1.55-0.64c0.41-0.41,0.63-0.96,0.64-1.55v-42.1 c0-0.58-0.23-1.13-0.64-1.55c-0.41-0.41-0.96-0.63-1.55-0.64H31.91z"></path> </g> <g id="XMLID_32_"> <path d="M79.36,62.85l-14.44-9.14h0l-9.87-6.24c-0.47-0.3-1.07-0.32-1.56-0.05c-0.49,0.27-0.8,0.78-0.8,1.34l-0.16,30.52 c0,0.56,0.3,1.07,0.78,1.35c0.23,0.13,0.49,0.2,0.75,0.2c0.28,0,0.56-0.08,0.81-0.23l24.48-15.13c0.45-0.28,0.72-0.77,0.73-1.3 C80.08,63.63,79.81,63.13,79.36,62.85z M55.61,76.52l0.13-24.98l19.9,12.59L55.61,76.52z"></path> <path d="M54.06,81.26c-0.33,0-0.66-0.09-0.96-0.25c-0.63-0.36-1.02-1.02-1.01-1.73l0.16-30.52c0-0.72,0.4-1.38,1.03-1.72 c0.63-0.34,1.4-0.32,2,0.07L79.6,62.48c0.57,0.36,0.92,1,0.92,1.68c0,0.68-0.35,1.3-0.93,1.67L55.1,80.96 C54.79,81.15,54.43,81.26,54.06,81.26z M54.23,47.67c-0.18,0-0.36,0.04-0.53,0.13c-0.35,0.19-0.57,0.56-0.57,0.95l-0.16,30.52 c0,0.4,0.21,0.76,0.56,0.96c0.35,0.19,0.78,0.18,1.11-0.03l24.48-15.14c0.32-0.2,0.52-0.55,0.52-0.92c0-0.38-0.19-0.73-0.51-0.93 l0,0L54.81,47.84C54.63,47.73,54.43,47.67,54.23,47.67z M55.17,77.31l0.14-26.56l21.17,13.39L55.17,77.31z M56.18,52.34 l-0.12,23.39l18.76-11.6L56.18,52.34z"></path> </g> </g> </svg> 