<?xml version="1.0" encoding="UTF-8"?> <!-- Generator: Adobe Illustrator 24.3.0, SVG Export Plug-In . SVG Version: 6.00 Build 0) --> <svg xmlns="http://www.w3.org/2000/svg" xmlns:xlink="http://www.w3.org/1999/xlink" version="1.1" id="Capa_1" x="0px" y="0px" viewBox="0 0 190 190" style="enable-background:new 0 0 190 190;" xml:space="preserve"> <style type="text/css"> .st0{fill:#FFFFFF;} .st1{filter:url(#Adobe_OpacityMaskFilter);} .st2{filter:url(#Adobe_OpacityMaskFilter_1_);} .st3{filter:url(#Adobe_OpacityMaskFilter_2_);} .st4{filter:url(#Adobe_OpacityMaskFilter_3_);} .st5{filter:url(#Adobe_OpacityMaskFilter_4_);} .st6{fill:#9A65A4;} .st7{fill:#39A735;} .st8{fill-rule:evenodd;clip-rule:evenodd;fill:#39A735;} .st9{fill-rule:evenodd;clip-rule:evenodd;fill:#FFFFFF;} .st10{fill:#4CE146;} .st11{fill:none;stroke:#383838;stroke-width:0.5;stroke-miterlimit:10;} .st12{fill:#383838;} .st13{fill:none;stroke:#000000;stroke-width:4;stroke-miterlimit:10;} .st14{filter:url(#Adobe_OpacityMaskFilter_5_);} .st15{fill:none;stroke:#000000;stroke-width:0.5;stroke-miterlimit:10;} .st16{fill:#9B66A5;} .st17{fill:none;stroke:#9B66A5;stroke-width:5.7679;stroke-miterlimit:10;} .st18{fill:#DBD6D4;} .st19{clip-path:url(#SVGID_8_);fill:none;stroke:#F7E729;stroke-width:1.9226;stroke-miterlimit:10;} .st20{clip-path:url(#SVGID_10_);fill:none;stroke:#F7E729;stroke-width:1.9226;stroke-miterlimit:10;} .st21{clip-path:url(#SVGID_12_);fill:none;stroke:#F7E729;stroke-width:1.9226;stroke-miterlimit:10;} .st22{clip-path:url(#SVGID_14_);fill:none;stroke:#F7E729;stroke-width:1.9226;stroke-miterlimit:10;} .st23{clip-path:url(#SVGID_16_);fill:none;stroke:#F7E729;stroke-width:1.9226;stroke-miterlimit:10;} .st24{clip-path:url(#SVGID_18_);fill:none;stroke:#F7E729;stroke-width:1.9226;stroke-miterlimit:10;} .st25{clip-path:url(#SVGID_20_);fill:none;stroke:#76BC81;stroke-width:1.9226;stroke-miterlimit:10;} .st26{clip-path:url(#SVGID_22_);fill:none;stroke:#76BC81;stroke-width:1.9226;stroke-miterlimit:10;} .st27{clip-path:url(#SVGID_24_);fill:none;stroke:#76BC81;stroke-width:1.9226;stroke-miterlimit:10;} .st28{clip-path:url(#SVGID_26_);fill:none;stroke:#76BC81;stroke-width:1.9226;stroke-miterlimit:10;} .st29{fill-rule:evenodd;clip-rule:evenodd;fill:#225CA6;} .st30{clip-path:url(#SVGID_28_);fill:none;stroke:#F19570;stroke-width:1.9226;stroke-miterlimit:10;} .st31{clip-path:url(#SVGID_30_);fill:none;stroke:#F7E729;stroke-width:1.9226;stroke-miterlimit:10;} .st32{clip-path:url(#SVGID_32_);fill:none;stroke:#F7E729;stroke-width:1.9226;stroke-miterlimit:10;} .st33{fill:#E01015;} .st34{fill:#1B4D93;} .st35{fill:#5BC3F0;} .st36{fill:#EC7412;} .st37{fill:#FFCF07;} .st38{fill:#E5237B;} .st39{fill:#65B12E;} .st40{clip-path:url(#SVGID_34_);fill:none;stroke:#F7E729;stroke-width:1.9226;stroke-miterlimit:10;} .st41{clip-path:url(#SVGID_36_);fill:none;stroke:#F7E729;stroke-width:1.9226;stroke-miterlimit:10;} .st42{fill:#E1513B;} .st43{stroke:#000000;stroke-miterlimit:10;} .st44{filter:url(#Adobe_OpacityMaskFilter_6_);} .st45{fill:#C0C0C0;} .st46{fill:#FFFFFF;stroke:#FFFFFF;stroke-miterlimit:10;} .st47{fill:#FFFFFF;stroke:#FFFFFF;stroke-width:1.2;stroke-miterlimit:10;} .st48{fill:#FFFFFF;stroke:#FFFFFF;stroke-width:2;stroke-miterlimit:10;} .st49{fill:none;stroke:#FFFFFF;stroke-width:2;stroke-miterlimit:10;} .st50{fill:#FFFFFF;stroke:#FFFFFF;stroke-width:0.5;stroke-miterlimit:10;} .st51{fill:url(#SVGID_38_);} .st52{fill:url(#SVGID_39_);} .st53{fill:url(#SVGID_40_);} .st54{fill:url(#SVGID_41_);} .st55{fill:url(#SVGID_42_);} .st56{filter:url(#Adobe_OpacityMaskFilter_7_);} .st57{fill:#F5F5F5;} .st58{fill:url(#SVGID_44_);} .st59{fill:url(#SVGID_45_);} .st60{fill:url(#SVGID_46_);} .st61{fill:url(#SVGID_47_);} .st62{fill:url(#SVGID_48_);} .st63{fill:url(#SVGID_49_);} .st64{fill:url(#SVGID_50_);} .st65{fill:url(#SVGID_51_);} .st66{fill:url(#SVGID_52_);} .st67{fill:url(#SVGID_53_);} .st68{fill:url(#SVGID_54_);} .st69{fill:#FFFFFF;stroke:#444444;stroke-width:1.5;stroke-linecap:round;stroke-linejoin:round;stroke-miterlimit:10;} .st70{filter:url(#Adobe_OpacityMaskFilter_8_);} .st71{filter:url(#Adobe_OpacityMaskFilter_9_);} .st72{fill:#DF0B18;} .st73{fill:#EE96BE;} .st74{fill:#166C4B;} .st75{fill:#4CBFEC;} .st76{fill:#EC7A28;} .st77{fill:#FFCF17;} .st78{fill:#01498B;} .st79{fill:#E3E15C;} .st80{fill:#1E8CC6;} .st81{fill:#65B147;} .st82{fill:#E41E7B;} .st83{fill:#5F3813;} .st84{fill:#F09271;} .st85{fill:#A36329;} .st86{filter:url(#Adobe_OpacityMaskFilter_10_);} .st87{filter:url(#Adobe_OpacityMaskFilter_11_);} .st88{filter:url(#Adobe_OpacityMaskFilter_12_);} .st89{fill:#DEDEDE;} .st90{filter:url(#Adobe_OpacityMaskFilter_13_);} .st91{opacity:0.75;} .st92{fill:#353535;} .st93{fill:url(#SVGID_61_);} .st94{filter:url(#Adobe_OpacityMaskFilter_14_);} .st95{fill:#FB6880;} .st96{fill:#FCFDFF;} .st97{fill:#707070;} .st98{fill:none;stroke:#707070;stroke-width:0.5;stroke-miterlimit:10;} .st99{fill:#D1D1D1;} .st100{fill:#141414;} .st101{fill:none;stroke:#000000;stroke-width:3;stroke-linejoin:round;stroke-miterlimit:10;} .st102{fill:#2D2D2D;} .st103{fill:#ECECEC;} .st104{fill:#E1E1E1;} .st105{fill:#FAFAFA;} .st106{fill:#FF735D;} .st107{fill:#1A2E35;} .st108{fill:#3BA435;} .st109{fill:#4CDF46;} .st110{opacity:0.77;} .st111{fill:#375A64;} .st112{opacity:0.3;} .st113{opacity:0.65;} .st114{fill:none;stroke:#FFFFFF;stroke-width:0.05;stroke-miterlimit:10;} .st115{fill:#FFC19D;} .st116{fill:#CAFFCA;} .st117{fill:#FF9C6A;} .st118{opacity:0.24;} .st119{fill:none;stroke:#000000;stroke-width:7;stroke-linejoin:round;stroke-miterlimit:10;} .st120{stroke:#000000;stroke-width:2;stroke-miterlimit:10;} .st121{stroke:#000000;stroke-width:0.75;stroke-miterlimit:10;} .st122{stroke:#000000;stroke-width:0.5;stroke-miterlimit:10;} .st123{stroke:#444444;stroke-width:1.5;stroke-linecap:round;stroke-linejoin:round;stroke-miterlimit:10;} .st124{stroke:#000000;stroke-width:0.5;stroke-linecap:round;stroke-linejoin:round;stroke-miterlimit:10;} </style> <g> <g> <path class="st124" d="M132.53,110.77c1.39-2.41,1.76-5.22,1.04-7.91c-0.65-2.44-2.14-4.49-4.31-5.93l-0.39-0.26l0.1-0.46 c0.5-2.39,0.75-4.78,0.75-7.12c0-2.34-0.25-4.73-0.75-7.12l-0.1-0.46l0.39-0.26c2.17-1.44,3.66-3.49,4.31-5.93 c0.72-2.69,0.35-5.5-1.04-7.91c-1.39-2.41-3.64-4.13-6.33-4.86c-2.45-0.66-5.05-0.39-7.33,0.75l-0.42,0.21l-0.35-0.31 c-3.53-3.16-7.77-5.6-12.26-7.08l-0.44-0.15l-0.03-0.47c-0.34-5.48-4.9-9.77-10.38-9.77c-5.48,0-10.04,4.29-10.38,9.77l-0.03,0.47 l-0.44,0.15c-4.49,1.48-8.72,3.93-12.26,7.08l-0.35,0.31l-0.42-0.21c-2.28-1.14-4.88-1.4-7.33-0.75 c-2.69,0.72-4.94,2.45-6.33,4.86c-2.74,4.75-1.31,10.84,3.26,13.87l0.39,0.26l-0.1,0.46c-0.49,2.37-0.74,4.76-0.74,7.08 c0,2.33,0.25,4.71,0.74,7.09l0.1,0.46l-0.39,0.26c-4.57,3.03-6,9.13-3.26,13.88c1.39,2.41,3.64,4.13,6.33,4.85 c2.43,0.65,4.98,0.41,7.32-0.75l0.42-0.21l0.35,0.31c1.46,1.3,3.04,2.49,4.72,3.54l0.32,0.2v17.55l-0.47,0.16 c-2.27,0.74-3.97,2.56-4.57,4.85l-0.13,0.52H66c-0.68,0-1.23,0.55-1.23,1.23s0.55,1.23,1.23,1.23h57.98 c0.68,0,1.23-0.55,1.23-1.23s-0.55-1.23-1.23-1.23h-5.72l-0.13-0.52c-0.6-2.29-2.31-4.11-4.57-4.85l-0.47-0.16v-17.55l0.32-0.2 c1.67-1.05,3.26-2.24,4.71-3.54l0.35-0.31l0.42,0.21c2.34,1.17,4.9,1.41,7.32,0.75C128.9,114.9,131.14,113.18,132.53,110.77z M117,68.1c0.19-0.27,0.41-0.53,0.63-0.78c0.16-0.17,0.26-0.28,0.36-0.38c0.23-0.22,0.47-0.42,0.73-0.62l0.15-0.11 c0.21-0.16,0.42-0.32,0.65-0.46c1.82-1.05,4.01-1.34,6.03-0.79c2.05,0.55,3.77,1.87,4.83,3.71c2.19,3.8,0.89,8.67-2.91,10.86 c-0.24,0.14-0.49,0.24-0.74,0.34l-0.18,0.07c-0.29,0.12-0.59,0.24-0.88,0.32c-0.14,0.04-0.28,0.07-0.43,0.1 c-0.44,0.09-0.76,0.15-1.08,0.18c-0.12,0.01-0.24,0.01-0.36,0.01c-0.15,0-0.29,0-0.42,0c-0.27,0-0.5-0.01-0.73-0.03 c-0.09-0.01-0.19-0.03-0.28-0.04c-0.47-0.08-0.83-0.14-1.18-0.25c-0.08-0.02-0.16-0.05-0.24-0.09c-0.44-0.16-0.79-0.29-1.12-0.46 c-0.09-0.04-0.17-0.1-0.25-0.15c-0.4-0.24-0.71-0.42-0.99-0.64c-0.12-0.09-0.23-0.2-0.34-0.3l-0.26-0.24 c-0.17-0.15-0.34-0.31-0.5-0.48c-0.3-0.34-0.58-0.74-0.84-1.16c-0.14-0.22-0.2-0.36-0.25-0.49l-0.15-0.34 c-0.11-0.21-0.21-0.43-0.29-0.65c-0.31-0.9-0.45-1.85-0.42-2.82c0.02-0.48,0.08-0.88,0.16-1.27c0.02-0.15,0.03-0.22,0.05-0.3 c0.09-0.36,0.21-0.71,0.34-1.05c0.07-0.2,0.11-0.29,0.14-0.38c0.14-0.32,0.32-0.63,0.5-0.93C116.89,68.28,116.94,68.18,117,68.1z M101.48,87.36l-0.14-0.51l13.81-7.97l0.37,0.44l0.14,0.14c0.27,0.31,0.55,0.6,0.84,0.87l0.25,0.21c0.37,0.31,0.72,0.57,1.08,0.8 l0.2,0.13c1.36,0.84,2.92,1.36,4.51,1.51l0.32,0.02c0.33,0.03,0.67,0.05,1.01,0.02l0.49-0.03c0.47-0.04,0.94-0.11,1.41-0.21 l0.7-0.16l0.26,0.69c0.34,1.9,0.52,3.85,0.52,5.78c0,1.93-0.18,3.88-0.52,5.78l-0.13,0.71l-0.71-0.17 c-3.25-0.76-6.7,0.09-9.23,2.29l-0.05,0.04c-0.38,0.34-0.75,0.71-1.08,1.11l-0.36,0.54l-0.52-0.38l-13.31-7.69l0.14-0.51 c0.18-0.65,0.26-1.2,0.26-1.73C101.74,88.57,101.66,88.02,101.48,87.36z M104.97,59.17l0.21-0.69l0.68,0.25 c3.67,1.31,7.03,3.26,10.01,5.79l0.55,0.47l-0.49,0.53c-0.04,0.05-0.08,0.1-0.12,0.15l-0.16,0.2c-0.22,0.25-0.43,0.51-0.62,0.78 c-0.12,0.17-0.23,0.35-0.33,0.54l-0.16,0.27c-0.15,0.26-0.31,0.51-0.44,0.79c-0.03,0.06-0.04,0.11-0.06,0.17l-0.18,0.45 c-0.15,0.35-0.3,0.7-0.4,1.07c-0.56,2.08-0.46,4.24,0.28,6.26l0.2,0.54l-13.79,7.96l-0.37-0.37c-0.81-0.81-1.85-1.4-3.02-1.72 l-0.51-0.14V66.6l0.47-0.16c0.62-0.12,1.13-0.25,1.61-0.41c2.66-0.91,4.84-2.84,6.04-5.31C104.61,60.18,104.82,59.67,104.97,59.17 z M94.99,129.98c-4.39,0-7.95-3.57-7.95-7.95c0-0.28,0.04-0.55,0.07-0.82l0.03-0.19c0.04-0.31,0.09-0.61,0.16-0.9 c0.04-0.17,0.1-0.33,0.15-0.5c0.12-0.37,0.23-0.66,0.36-0.94c0.06-0.12,0.12-0.23,0.18-0.34c0.23-0.41,0.39-0.69,0.58-0.96 c0.06-0.09,0.14-0.18,0.21-0.26c0.3-0.36,0.52-0.62,0.77-0.86c0.07-0.07,0.15-0.13,0.23-0.19c0.36-0.3,0.63-0.53,0.93-0.72 c0.09-0.06,0.18-0.11,0.28-0.15c0.42-0.24,0.72-0.4,1.03-0.53c0.14-0.06,0.29-0.1,0.44-0.14l0.35-0.11 c0.21-0.07,0.42-0.14,0.64-0.18c1.05-0.21,2.05-0.21,3.09,0c0.22,0.04,0.43,0.11,0.63,0.18l0.35,0.11 c0.15,0.04,0.31,0.09,0.45,0.15c0.31,0.13,0.59,0.29,0.88,0.45c0.24,0.13,0.34,0.18,0.43,0.23c0.3,0.19,0.57,0.42,0.84,0.64 c0.17,0.14,0.25,0.2,0.32,0.27c0.25,0.23,0.47,0.49,0.69,0.76c0.16,0.18,0.23,0.27,0.29,0.36c0.19,0.26,0.35,0.54,0.51,0.83 c0.13,0.23,0.2,0.35,0.25,0.47c0.13,0.28,0.23,0.57,0.33,0.87c0.07,0.22,0.13,0.39,0.18,0.56c0.07,0.3,0.12,0.61,0.16,0.91 l0.03,0.2c0.04,0.27,0.07,0.53,0.07,0.81C102.95,126.41,99.38,129.98,94.99,129.98z M105.38,122.67l0.03-0.47l0.44-0.15 c0.37-0.12,0.68-0.22,0.99-0.34l0.75-0.29c0.54-0.21,1.07-0.43,1.6-0.67l1.42-0.65v15.92H79.37v-15.92l1.42,0.64 c0.53,0.24,1.06,0.46,1.6,0.67l0.75,0.29c0.33,0.12,0.66,0.23,0.99,0.34l0.44,0.15l0.03,0.47c0.34,5.48,4.9,9.77,10.38,9.77 C100.48,132.44,105.04,128.15,105.38,122.67z M94.99,93.37c-2.36,0-4.28-1.92-4.28-4.28c0-2.36,1.92-4.28,4.28-4.28 c2.36,0,4.28,1.92,4.28,4.28C99.27,91.45,97.35,93.37,94.99,93.37z M94.99,48.21c4.39,0,7.95,3.57,7.95,7.95 c0,0.28-0.04,0.54-0.07,0.81l-0.03,0.2c-0.04,0.31-0.09,0.61-0.16,0.91c-0.04,0.17-0.09,0.32-0.15,0.48 c-0.13,0.39-0.23,0.68-0.36,0.96c-0.06,0.12-0.12,0.24-0.19,0.35c-0.22,0.4-0.38,0.68-0.57,0.94c-0.07,0.09-0.14,0.18-0.21,0.26 c-0.3,0.36-0.52,0.62-0.77,0.86c-0.07,0.07-0.15,0.13-0.23,0.19c-0.36,0.3-0.63,0.52-0.93,0.71C99.19,62.91,99.09,62.95,99,63 c-0.42,0.23-0.71,0.4-1.03,0.53c-0.14,0.06-0.29,0.1-0.45,0.15l-0.36,0.11c-0.2,0.07-0.41,0.13-0.62,0.18 c-0.52,0.1-1.04,0.16-1.55,0.16c-0.5,0-1.02-0.05-1.54-0.16c-0.22-0.04-0.43-0.11-0.64-0.18l-0.34-0.11 c-0.15-0.04-0.31-0.09-0.45-0.15c-0.32-0.13-0.61-0.29-0.9-0.46c-0.22-0.12-0.32-0.17-0.4-0.22c-0.3-0.19-0.57-0.42-0.84-0.64 c-0.17-0.14-0.25-0.2-0.32-0.27c-0.25-0.24-0.47-0.5-0.69-0.76c-0.16-0.18-0.23-0.27-0.29-0.36c-0.19-0.26-0.35-0.54-0.51-0.83 c-0.13-0.22-0.19-0.34-0.25-0.47c-0.13-0.28-0.23-0.57-0.33-0.87c-0.08-0.24-0.13-0.4-0.18-0.57c-0.07-0.29-0.12-0.6-0.16-0.9 l-0.03-0.19c-0.04-0.27-0.07-0.54-0.07-0.82C87.04,51.78,90.61,48.21,94.99,48.21z M74.12,64.51c2.98-2.53,6.34-4.47,10.01-5.79 l0.68-0.25l0.21,0.69c0.15,0.5,0.35,1.01,0.61,1.54c1.22,2.48,3.4,4.41,5.99,5.3c0.54,0.18,1.04,0.31,1.56,0.4l0.47,0.16 l0.11,0.52v15.37l-0.51,0.14c-1.17,0.32-2.22,0.91-3.02,1.72l-0.37,0.37l-13.79-7.96l0.2-0.54c0.74-2.02,0.84-4.18,0.28-6.26 c-0.09-0.34-0.22-0.66-0.36-0.97l-0.2-0.52c-0.02-0.07-0.05-0.14-0.08-0.21c-0.13-0.27-0.28-0.53-0.44-0.78l-0.09-0.15 c-0.17-0.29-0.28-0.48-0.41-0.67c-0.19-0.27-0.4-0.53-0.62-0.78c-0.06-0.07-0.11-0.13-0.16-0.2c-0.04-0.05-0.08-0.1-0.12-0.15 l-0.5-0.53L74.12,64.51z M88.51,90.83l0.14,0.51L74.9,99.27l-0.5-0.47c-0.29-0.34-0.65-0.71-1.03-1.05 c-2.58-2.24-6.03-3.1-9.28-2.34l-0.71,0.17l-0.13-0.71c-0.34-1.9-0.52-3.84-0.52-5.78c0-1.94,0.18-3.88,0.52-5.78l0.13-0.71 l0.7,0.16c0.6,0.12,1.07,0.19,1.54,0.23l0.49,0.03c0.33,0.03,0.65,0.01,0.98-0.02l0.21-0.02c1.72-0.16,3.28-0.68,4.64-1.51 l0.21-0.14c0.36-0.23,0.7-0.49,1.03-0.76l0.29-0.25c0.3-0.27,0.57-0.56,0.84-0.87l0.52-0.56l0.5,0.27l13.31,7.69l-0.14,0.51 c-0.18,0.65-0.26,1.2-0.26,1.73C88.25,89.62,88.33,90.17,88.51,90.83z M59.59,68.65c1.06-1.84,2.78-3.16,4.83-3.71 c2.03-0.54,4.22-0.25,6.03,0.8c0.23,0.13,0.43,0.29,0.64,0.45l0.16,0.12c0.26,0.2,0.51,0.4,0.74,0.62c0.1,0.09,0.19,0.19,0.28,0.3 c0.3,0.33,0.52,0.59,0.71,0.87c0.06,0.09,0.11,0.18,0.17,0.27c0.25,0.41,0.43,0.72,0.57,1.05c0.04,0.08,0.07,0.17,0.1,0.26 c0.17,0.45,0.29,0.8,0.38,1.16l0.04,0.23c0.09,0.47,0.15,0.86,0.17,1.25c0.02,1.09-0.11,2.03-0.41,2.91 c-0.17,0.49-0.38,0.96-0.63,1.39c-0.25,0.44-0.56,0.86-0.91,1.26c-0.14,0.16-0.3,0.31-0.46,0.45l-0.27,0.25 c-0.12,0.11-0.23,0.23-0.36,0.33c-0.27,0.21-0.57,0.39-0.87,0.56c-0.19,0.12-0.28,0.18-0.38,0.23c-0.32,0.16-0.66,0.29-1,0.41 c-0.19,0.08-0.28,0.11-0.36,0.13c-0.34,0.1-0.69,0.17-1.04,0.22c-0.22,0.04-0.32,0.06-0.42,0.07c-0.23,0.02-0.46,0.03-0.69,0.03 c-0.35,0-0.63,0-0.81-0.02c-0.32-0.03-0.63-0.09-0.95-0.15c-0.24-0.05-0.4-0.08-0.55-0.13c-0.3-0.08-0.59-0.2-0.88-0.32 l-0.18-0.07c-0.25-0.1-0.5-0.2-0.74-0.34C58.7,77.33,57.4,72.45,59.59,68.65z M72.98,110.09c-0.19,0.27-0.41,0.53-0.63,0.78 c-0.16,0.18-0.26,0.28-0.36,0.38c-0.23,0.22-0.48,0.42-0.74,0.62l-0.15,0.11c-0.21,0.16-0.42,0.32-0.65,0.45 c-1.23,0.71-2.59,1.07-3.96,1.07c-0.69,0-1.38-0.09-2.07-0.27c-2.05-0.55-3.77-1.87-4.83-3.71c-2.19-3.8-0.89-8.67,2.91-10.86 c0.24-0.14,0.49-0.24,0.74-0.34l0.18-0.07c0.29-0.12,0.58-0.24,0.88-0.32c0.16-0.04,0.32-0.08,0.47-0.11 c0.4-0.08,0.72-0.14,1.03-0.17c0.12-0.01,0.25-0.01,0.37-0.01c0.47-0.01,0.8-0.01,1.13,0.03c0.1,0.01,0.21,0.03,0.31,0.05 c0.46,0.08,0.81,0.14,1.14,0.24c0.09,0.03,0.17,0.06,0.26,0.09c0.45,0.16,0.79,0.29,1.11,0.46c0.09,0.05,0.18,0.1,0.27,0.16 c0.4,0.24,0.7,0.42,0.97,0.63c0.12,0.1,0.24,0.2,0.35,0.31l0.26,0.24c0.17,0.15,0.33,0.3,0.48,0.47c0.36,0.41,0.66,0.83,0.91,1.26 c0.25,0.43,0.46,0.9,0.63,1.39c0.3,0.88,0.44,1.82,0.41,2.79c-0.01,0.52-0.08,0.9-0.15,1.29c-0.02,0.16-0.04,0.24-0.05,0.32 c-0.08,0.36-0.21,0.7-0.34,1.05c-0.07,0.19-0.1,0.28-0.14,0.37c-0.14,0.33-0.32,0.64-0.51,0.94 C73.11,109.91,73.05,110,72.98,110.09z M74.12,113.68l-0.55-0.47l0.5-0.53c0.04-0.05,0.08-0.1,0.12-0.15 c0.05-0.07,0.1-0.14,0.16-0.2h0c0.22-0.25,0.43-0.51,0.63-0.79c0.12-0.17,0.23-0.35,0.33-0.54l0.16-0.27 c0.15-0.26,0.31-0.51,0.44-0.78c0.03-0.06,0.05-0.13,0.07-0.19l0.19-0.47c0.14-0.34,0.28-0.67,0.38-1.03 c0.56-2.08,0.46-4.24-0.28-6.26l-0.2-0.54l13.79-7.96l0.37,0.37c0.81,0.81,1.85,1.4,3.02,1.72l0.51,0.14v16.06h-0.65 c-0.54,0.11-0.99,0.23-1.42,0.37c-2.65,0.91-4.83,2.84-6.04,5.31c-0.27,0.55-0.47,1.05-0.62,1.55l-0.21,0.69l-0.68-0.24 c-0.9-0.32-1.81-0.7-2.7-1.11c-0.23-0.1-0.45-0.22-0.67-0.34l-0.73-0.38c-0.4-0.2-0.81-0.41-1.2-0.64 C77.16,116.03,75.57,114.92,74.12,113.68z M115.3,140.75l0.61,1.04H74.08l0.61-1.04c0.81-1.38,2.3-2.24,3.9-2.24h32.81 C113,138.51,114.49,139.37,115.3,140.75z M115.87,113.68c-1.45,1.23-3.03,2.35-4.7,3.32c-0.39,0.23-0.79,0.43-1.19,0.63 l-0.73,0.38c-0.22,0.12-0.45,0.24-0.68,0.35c-0.88,0.41-1.79,0.78-2.7,1.11l-0.68,0.25l-0.21-0.69c-0.15-0.5-0.35-1.01-0.62-1.54 c-1.21-2.48-3.39-4.41-5.98-5.3c-0.54-0.18-1.05-0.31-1.56-0.4l-0.47-0.16l-0.11-0.52V95.72l0.51-0.14 c1.17-0.32,2.22-0.91,3.02-1.72l0.37-0.37l13.79,7.96l-0.2,0.54c-0.74,2.02-0.84,4.19-0.28,6.26c0.1,0.36,0.24,0.7,0.38,1.04 l0.18,0.47c0.02,0.06,0.04,0.13,0.07,0.19c0.13,0.28,0.28,0.53,0.44,0.79l0.14,0.24c0.11,0.19,0.23,0.38,0.35,0.57 c0.19,0.27,0.4,0.53,0.62,0.78c0.06,0.07,0.11,0.14,0.16,0.21c0.04,0.05,0.08,0.1,0.12,0.15l0.49,0.53L115.87,113.68z M125.57,113.24c-0.69,0.18-1.38,0.28-2.07,0.28c-1.38,0-2.74-0.36-3.96-1.07c-0.23-0.13-0.45-0.3-0.66-0.46l-0.15-0.11 c-0.26-0.19-0.51-0.4-0.73-0.62c-0.11-0.1-0.2-0.21-0.3-0.32c-0.29-0.32-0.51-0.58-0.7-0.85c-0.06-0.09-0.12-0.18-0.17-0.27 c-0.25-0.41-0.43-0.72-0.57-1.04c-0.04-0.09-0.07-0.18-0.11-0.27c-0.17-0.44-0.29-0.79-0.37-1.15l-0.04-0.22 c-0.09-0.47-0.15-0.86-0.17-1.26c-0.03-1.07,0.11-2.01,0.42-2.91c0.17-0.49,0.38-0.96,0.63-1.39c0.21-0.37,0.47-0.73,0.8-1.13 l0.15-0.17c0.34-0.37,0.64-0.66,0.97-0.92c0.82-0.64,1.68-1.09,2.61-1.38c0.93-0.29,1.88-0.4,2.85-0.34 c1.04,0.07,1.98,0.32,2.87,0.73c0.28,0.13,0.45,0.21,0.61,0.3c1.84,1.06,3.15,2.78,3.7,4.83s0.27,4.2-0.79,6.03 C129.34,111.38,127.62,112.69,125.57,113.24z"></path> </g> </g> </svg> 