<?xml version="1.0" encoding="UTF-8"?> <!-- Generator: Adobe Illustrator 24.3.0, SVG Export Plug-In . SVG Version: 6.00 Build 0) --> <svg xmlns="http://www.w3.org/2000/svg" xmlns:xlink="http://www.w3.org/1999/xlink" version="1.1" id="Capa_1" x="0px" y="0px" viewBox="0 0 190 190" style="enable-background:new 0 0 190 190;" xml:space="preserve"> <style type="text/css"> .st0{fill:#FFFFFF;} .st1{filter:url(#Adobe_OpacityMaskFilter);} .st2{filter:url(#Adobe_OpacityMaskFilter_1_);} .st3{filter:url(#Adobe_OpacityMaskFilter_2_);} .st4{filter:url(#Adobe_OpacityMaskFilter_3_);} .st5{filter:url(#Adobe_OpacityMaskFilter_4_);} .st6{fill:#9A65A4;} .st7{fill:#39A735;} .st8{fill-rule:evenodd;clip-rule:evenodd;fill:#39A735;} .st9{fill-rule:evenodd;clip-rule:evenodd;fill:#FFFFFF;} .st10{fill:#4CE146;} .st11{fill:none;stroke:#383838;stroke-width:0.5;stroke-miterlimit:10;} .st12{fill:#383838;} .st13{fill:none;stroke:#000000;stroke-width:4;stroke-miterlimit:10;} .st14{filter:url(#Adobe_OpacityMaskFilter_5_);} .st15{fill:none;stroke:#000000;stroke-width:0.5;stroke-miterlimit:10;} .st16{fill:#9B66A5;} .st17{fill:none;stroke:#9B66A5;stroke-width:5.7679;stroke-miterlimit:10;} .st18{fill:#DBD6D4;} .st19{clip-path:url(#SVGID_8_);fill:none;stroke:#F7E729;stroke-width:1.9226;stroke-miterlimit:10;} .st20{clip-path:url(#SVGID_10_);fill:none;stroke:#F7E729;stroke-width:1.9226;stroke-miterlimit:10;} .st21{clip-path:url(#SVGID_12_);fill:none;stroke:#F7E729;stroke-width:1.9226;stroke-miterlimit:10;} .st22{clip-path:url(#SVGID_14_);fill:none;stroke:#F7E729;stroke-width:1.9226;stroke-miterlimit:10;} .st23{clip-path:url(#SVGID_16_);fill:none;stroke:#F7E729;stroke-width:1.9226;stroke-miterlimit:10;} .st24{clip-path:url(#SVGID_18_);fill:none;stroke:#F7E729;stroke-width:1.9226;stroke-miterlimit:10;} .st25{clip-path:url(#SVGID_20_);fill:none;stroke:#76BC81;stroke-width:1.9226;stroke-miterlimit:10;} .st26{clip-path:url(#SVGID_22_);fill:none;stroke:#76BC81;stroke-width:1.9226;stroke-miterlimit:10;} .st27{clip-path:url(#SVGID_24_);fill:none;stroke:#76BC81;stroke-width:1.9226;stroke-miterlimit:10;} .st28{clip-path:url(#SVGID_26_);fill:none;stroke:#76BC81;stroke-width:1.9226;stroke-miterlimit:10;} .st29{fill-rule:evenodd;clip-rule:evenodd;fill:#225CA6;} .st30{clip-path:url(#SVGID_28_);fill:none;stroke:#F19570;stroke-width:1.9226;stroke-miterlimit:10;} .st31{clip-path:url(#SVGID_30_);fill:none;stroke:#F7E729;stroke-width:1.9226;stroke-miterlimit:10;} .st32{clip-path:url(#SVGID_32_);fill:none;stroke:#F7E729;stroke-width:1.9226;stroke-miterlimit:10;} .st33{fill:#E01015;} .st34{fill:#1B4D93;} .st35{fill:#5BC3F0;} .st36{fill:#EC7412;} .st37{fill:#FFCF07;} .st38{fill:#E5237B;} .st39{fill:#65B12E;} .st40{clip-path:url(#SVGID_34_);fill:none;stroke:#F7E729;stroke-width:1.9226;stroke-miterlimit:10;} .st41{clip-path:url(#SVGID_36_);fill:none;stroke:#F7E729;stroke-width:1.9226;stroke-miterlimit:10;} .st42{fill:#E1513B;} .st43{stroke:#000000;stroke-miterlimit:10;} .st44{filter:url(#Adobe_OpacityMaskFilter_6_);} .st45{fill:#C0C0C0;} .st46{fill:#FFFFFF;stroke:#FFFFFF;stroke-miterlimit:10;} .st47{fill:#FFFFFF;stroke:#FFFFFF;stroke-width:1.2;stroke-miterlimit:10;} .st48{fill:#FFFFFF;stroke:#FFFFFF;stroke-width:2;stroke-miterlimit:10;} .st49{fill:none;stroke:#FFFFFF;stroke-width:2;stroke-miterlimit:10;} .st50{fill:#FFFFFF;stroke:#FFFFFF;stroke-width:0.5;stroke-miterlimit:10;} .st51{fill:url(#SVGID_38_);} .st52{fill:url(#SVGID_39_);} .st53{fill:url(#SVGID_40_);} .st54{fill:url(#SVGID_41_);} .st55{fill:url(#SVGID_42_);} .st56{filter:url(#Adobe_OpacityMaskFilter_7_);} .st57{fill:#F5F5F5;} .st58{fill:url(#SVGID_44_);} .st59{fill:url(#SVGID_45_);} .st60{fill:url(#SVGID_46_);} .st61{fill:url(#SVGID_47_);} .st62{fill:url(#SVGID_48_);} .st63{fill:url(#SVGID_49_);} .st64{fill:url(#SVGID_50_);} .st65{fill:url(#SVGID_51_);} .st66{fill:url(#SVGID_52_);} .st67{fill:url(#SVGID_53_);} .st68{fill:url(#SVGID_54_);} .st69{fill:#FFFFFF;stroke:#444444;stroke-width:1.5;stroke-linecap:round;stroke-linejoin:round;stroke-miterlimit:10;} .st70{filter:url(#Adobe_OpacityMaskFilter_8_);} .st71{filter:url(#Adobe_OpacityMaskFilter_9_);} .st72{fill:#DF0B18;} .st73{fill:#EE96BE;} .st74{fill:#166C4B;} .st75{fill:#4CBFEC;} .st76{fill:#EC7A28;} .st77{fill:#FFCF17;} .st78{fill:#01498B;} .st79{fill:#E3E15C;} .st80{fill:#1E8CC6;} .st81{fill:#65B147;} .st82{fill:#E41E7B;} .st83{fill:#5F3813;} .st84{fill:#F09271;} .st85{fill:#A36329;} .st86{filter:url(#Adobe_OpacityMaskFilter_10_);} .st87{filter:url(#Adobe_OpacityMaskFilter_11_);} .st88{filter:url(#Adobe_OpacityMaskFilter_12_);} .st89{fill:#DEDEDE;} .st90{filter:url(#Adobe_OpacityMaskFilter_13_);} .st91{opacity:0.75;} .st92{fill:#353535;} .st93{fill:url(#SVGID_61_);} .st94{filter:url(#Adobe_OpacityMaskFilter_14_);} .st95{fill:#FB6880;} .st96{fill:#FCFDFF;} .st97{fill:#707070;} .st98{fill:none;stroke:#707070;stroke-width:0.5;stroke-miterlimit:10;} .st99{fill:#D1D1D1;} .st100{fill:#141414;} .st101{fill:none;stroke:#000000;stroke-width:3;stroke-linejoin:round;stroke-miterlimit:10;} .st102{fill:#2D2D2D;} .st103{fill:#ECECEC;} .st104{fill:#E1E1E1;} .st105{fill:#FAFAFA;} .st106{fill:#FF735D;} .st107{fill:#1A2E35;} .st108{fill:#3BA435;} .st109{fill:#4CDF46;} .st110{opacity:0.77;} .st111{fill:#375A64;} .st112{opacity:0.3;} .st113{opacity:0.65;} .st114{fill:none;stroke:#FFFFFF;stroke-width:0.05;stroke-miterlimit:10;} .st115{fill:#FFC19D;} .st116{fill:#CAFFCA;} .st117{fill:#FF9C6A;} .st118{opacity:0.24;} .st119{fill:none;stroke:#000000;stroke-width:7;stroke-linejoin:round;stroke-miterlimit:10;} .st120{stroke:#000000;stroke-width:2;stroke-miterlimit:10;} .st121{stroke:#000000;stroke-width:0.75;stroke-miterlimit:10;} .st122{stroke:#000000;stroke-width:0.5;stroke-miterlimit:10;} .st123{stroke:#444444;stroke-width:1.5;stroke-linecap:round;stroke-linejoin:round;stroke-miterlimit:10;} .st124{stroke:#000000;stroke-width:0.5;stroke-linecap:round;stroke-linejoin:round;stroke-miterlimit:10;} </style> <g> <path d="M55.45,143.29h82.8c0.94,0,1.7-0.76,1.7-1.7v-40.54l9.25,0c0.63,0,1.2-0.35,1.5-0.9c0.3-0.56,0.26-1.23-0.1-1.75 l-26.29-38.61c-0.31-0.46-0.84-0.74-1.4-0.74h-5.73V48.4c0-0.94-0.76-1.7-1.7-1.7h-10.24c-0.94,0-1.7,0.76-1.7,1.7v10.65H66.04 c-0.12,0-0.24,0.02-0.38,0.05c-0.19,0.06-0.27,0.09-0.36,0.13l-0.22,0.12l-0.49-0.38l0.36,0.49c-0.16,0.14-0.22,0.22-0.29,0.3 L39.4,96.86c-0.35,0.52-0.39,1.19-0.1,1.75c0.29,0.56,0.87,0.9,1.5,0.9h12.96v42.08C53.76,142.53,54.52,143.29,55.45,143.29z M81.73,139.9h-9.12v-26.54l0.24-0.18c2.47-1.88,6.19-1.87,8.65,0l0.24,0.18V139.9z M103.55,139.9H85.12v-27.28 c0-0.45-0.18-0.88-0.5-1.2c-1.99-1.99-4.64-3.09-7.46-3.09s-5.47,1.1-7.46,3.09c-0.32,0.32-0.5,0.75-0.5,1.2v27.28H57.15V98.34 l16.21-23.82l17.54,25.77c0.32,0.46,0.84,0.74,1.4,0.74l11.24,0V139.9z M136.55,139.9h-29.61v-38.86l29.61,0.01V139.9z M103.55,62.45v12.99c0,0.93,0.76,1.7,1.7,1.7s1.7-0.76,1.7-1.7V50.1h6.85v25.34c0,0.93,0.76,1.7,1.7,1.7c0.94,0,1.7-0.76,1.7-1.7 V62.45h4.83l23.97,35.21l-52.78-0.02l-23.96-35.2H103.55z M44.01,96.12l22.03-32.36l5.27,7.75L54.56,96.12H44.01z"></path> </g> </svg> 