<?xml version="1.0" encoding="UTF-8"?> <!-- Generator: Adobe Illustrator 24.3.0, SVG Export Plug-In . SVG Version: 6.00 Build 0) --> <svg xmlns="http://www.w3.org/2000/svg" xmlns:xlink="http://www.w3.org/1999/xlink" version="1.1" id="Capa_1" x="0px" y="0px" viewBox="0 0 190 190" style="enable-background:new 0 0 190 190;" xml:space="preserve"> <style type="text/css"> .st0{fill:#FFFFFF;} .st1{filter:url(#Adobe_OpacityMaskFilter);} .st2{filter:url(#Adobe_OpacityMaskFilter_1_);} .st3{filter:url(#Adobe_OpacityMaskFilter_2_);} .st4{filter:url(#Adobe_OpacityMaskFilter_3_);} .st5{filter:url(#Adobe_OpacityMaskFilter_4_);} .st6{fill:#9A65A4;} .st7{fill:#39A735;} .st8{fill-rule:evenodd;clip-rule:evenodd;fill:#39A735;} .st9{fill-rule:evenodd;clip-rule:evenodd;fill:#FFFFFF;} .st10{fill:#4CE146;} .st11{fill:none;stroke:#383838;stroke-width:0.5;stroke-miterlimit:10;} .st12{fill:#383838;} .st13{fill:none;stroke:#000000;stroke-width:4;stroke-miterlimit:10;} .st14{filter:url(#Adobe_OpacityMaskFilter_5_);} .st15{fill:none;stroke:#000000;stroke-width:0.5;stroke-miterlimit:10;} .st16{fill:#9B66A5;} .st17{fill:none;stroke:#9B66A5;stroke-width:5.7679;stroke-miterlimit:10;} .st18{fill:#DBD6D4;} .st19{clip-path:url(#SVGID_8_);fill:none;stroke:#F7E729;stroke-width:1.9226;stroke-miterlimit:10;} .st20{clip-path:url(#SVGID_10_);fill:none;stroke:#F7E729;stroke-width:1.9226;stroke-miterlimit:10;} .st21{clip-path:url(#SVGID_12_);fill:none;stroke:#F7E729;stroke-width:1.9226;stroke-miterlimit:10;} .st22{clip-path:url(#SVGID_14_);fill:none;stroke:#F7E729;stroke-width:1.9226;stroke-miterlimit:10;} .st23{clip-path:url(#SVGID_16_);fill:none;stroke:#F7E729;stroke-width:1.9226;stroke-miterlimit:10;} .st24{clip-path:url(#SVGID_18_);fill:none;stroke:#F7E729;stroke-width:1.9226;stroke-miterlimit:10;} .st25{clip-path:url(#SVGID_20_);fill:none;stroke:#76BC81;stroke-width:1.9226;stroke-miterlimit:10;} .st26{clip-path:url(#SVGID_22_);fill:none;stroke:#76BC81;stroke-width:1.9226;stroke-miterlimit:10;} .st27{clip-path:url(#SVGID_24_);fill:none;stroke:#76BC81;stroke-width:1.9226;stroke-miterlimit:10;} .st28{clip-path:url(#SVGID_26_);fill:none;stroke:#76BC81;stroke-width:1.9226;stroke-miterlimit:10;} .st29{fill-rule:evenodd;clip-rule:evenodd;fill:#225CA6;} .st30{clip-path:url(#SVGID_28_);fill:none;stroke:#F19570;stroke-width:1.9226;stroke-miterlimit:10;} .st31{clip-path:url(#SVGID_30_);fill:none;stroke:#F7E729;stroke-width:1.9226;stroke-miterlimit:10;} .st32{clip-path:url(#SVGID_32_);fill:none;stroke:#F7E729;stroke-width:1.9226;stroke-miterlimit:10;} .st33{fill:#E01015;} .st34{fill:#1B4D93;} .st35{fill:#5BC3F0;} .st36{fill:#EC7412;} .st37{fill:#FFCF07;} .st38{fill:#E5237B;} .st39{fill:#65B12E;} .st40{clip-path:url(#SVGID_34_);fill:none;stroke:#F7E729;stroke-width:1.9226;stroke-miterlimit:10;} .st41{clip-path:url(#SVGID_36_);fill:none;stroke:#F7E729;stroke-width:1.9226;stroke-miterlimit:10;} .st42{fill:#E1513B;} .st43{stroke:#000000;stroke-miterlimit:10;} .st44{filter:url(#Adobe_OpacityMaskFilter_6_);} .st45{fill:#C0C0C0;} .st46{fill:#FFFFFF;stroke:#FFFFFF;stroke-miterlimit:10;} .st47{fill:#FFFFFF;stroke:#FFFFFF;stroke-width:1.2;stroke-miterlimit:10;} .st48{fill:#FFFFFF;stroke:#FFFFFF;stroke-width:2;stroke-miterlimit:10;} .st49{fill:none;stroke:#FFFFFF;stroke-width:2;stroke-miterlimit:10;} .st50{fill:#FFFFFF;stroke:#FFFFFF;stroke-width:0.5;stroke-miterlimit:10;} .st51{fill:url(#SVGID_38_);} .st52{fill:url(#SVGID_39_);} .st53{fill:url(#SVGID_40_);} .st54{fill:url(#SVGID_41_);} .st55{fill:url(#SVGID_42_);} .st56{filter:url(#Adobe_OpacityMaskFilter_7_);} .st57{fill:#F5F5F5;} .st58{fill:url(#SVGID_44_);} .st59{fill:url(#SVGID_45_);} .st60{fill:url(#SVGID_46_);} .st61{fill:url(#SVGID_47_);} .st62{fill:url(#SVGID_48_);} .st63{fill:url(#SVGID_49_);} .st64{fill:url(#SVGID_50_);} .st65{fill:url(#SVGID_51_);} .st66{fill:url(#SVGID_52_);} .st67{fill:url(#SVGID_53_);} .st68{fill:url(#SVGID_54_);} .st69{fill:#FFFFFF;stroke:#444444;stroke-width:1.5;stroke-linecap:round;stroke-linejoin:round;stroke-miterlimit:10;} .st70{filter:url(#Adobe_OpacityMaskFilter_8_);} .st71{filter:url(#Adobe_OpacityMaskFilter_9_);} .st72{fill:#DF0B18;} .st73{fill:#EE96BE;} .st74{fill:#166C4B;} .st75{fill:#4CBFEC;} .st76{fill:#EC7A28;} .st77{fill:#FFCF17;} .st78{fill:#01498B;} .st79{fill:#E3E15C;} .st80{fill:#1E8CC6;} .st81{fill:#65B147;} .st82{fill:#E41E7B;} .st83{fill:#5F3813;} .st84{fill:#F09271;} .st85{fill:#A36329;} .st86{filter:url(#Adobe_OpacityMaskFilter_10_);} .st87{filter:url(#Adobe_OpacityMaskFilter_11_);} .st88{filter:url(#Adobe_OpacityMaskFilter_12_);} .st89{fill:#DEDEDE;} .st90{filter:url(#Adobe_OpacityMaskFilter_13_);} .st91{opacity:0.75;} .st92{fill:#353535;} .st93{fill:url(#SVGID_61_);} .st94{filter:url(#Adobe_OpacityMaskFilter_14_);} .st95{fill:#FB6880;} .st96{fill:#FCFDFF;} .st97{fill:#707070;} .st98{fill:none;stroke:#707070;stroke-width:0.5;stroke-miterlimit:10;} .st99{fill:#D1D1D1;} .st100{fill:#141414;} .st101{fill:none;stroke:#000000;stroke-width:3;stroke-linejoin:round;stroke-miterlimit:10;} .st102{fill:#2D2D2D;} .st103{fill:#ECECEC;} .st104{fill:#E1E1E1;} .st105{fill:#FAFAFA;} .st106{fill:#FF735D;} .st107{fill:#1A2E35;} .st108{fill:#3BA435;} .st109{fill:#4CDF46;} .st110{opacity:0.77;} .st111{fill:#375A64;} .st112{opacity:0.3;} .st113{opacity:0.65;} .st114{fill:none;stroke:#FFFFFF;stroke-width:0.05;stroke-miterlimit:10;} .st115{fill:#FFC19D;} .st116{fill:#CAFFCA;} .st117{fill:#FF9C6A;} .st118{opacity:0.24;} .st119{fill:none;stroke:#000000;stroke-width:7;stroke-linejoin:round;stroke-miterlimit:10;} .st120{stroke:#000000;stroke-width:2;stroke-miterlimit:10;} .st121{stroke:#000000;stroke-width:0.75;stroke-miterlimit:10;} .st122{stroke:#000000;stroke-width:0.5;stroke-miterlimit:10;} .st123{stroke:#444444;stroke-width:1.5;stroke-linecap:round;stroke-linejoin:round;stroke-miterlimit:10;} .st124{stroke:#000000;stroke-width:0.5;stroke-linecap:round;stroke-linejoin:round;stroke-miterlimit:10;} </style> <g> <g> <path class="st43" d="M105.38,41.64H80.07c-0.61,0-1.11-0.49-1.11-1.11c0-0.61,0.49-1.11,1.11-1.11h25.31 c0.61,0,1.11,0.49,1.11,1.11C106.48,41.14,105.99,41.64,105.38,41.64z"></path> </g> <g> <path class="st43" d="M119.62,152.77H65.27c-5.68,0-10.3-4.62-10.3-10.3V66.5c0-5.68,4.62-10.3,10.3-10.3h54.35 c5.68,0,10.3,4.62,10.3,10.3v75.97C129.92,148.15,125.3,152.77,119.62,152.77z M65.27,58.42c-4.46,0-8.08,3.63-8.08,8.09v75.97 c0,4.46,3.63,8.09,8.08,8.09h54.35c4.46,0,8.09-3.63,8.09-8.09V66.5c0-4.46-3.63-8.09-8.09-8.09H65.27z"></path> </g> <g> <g> <path class="st43" d="M78.66,144.55h-3.99c-1.39,0-2.51-1.13-2.51-2.51V94.66c0-1.39,1.13-2.51,2.51-2.51h3.99 c1.39,0,2.51,1.13,2.51,2.51v47.37C81.17,143.42,80.05,144.55,78.66,144.55z M74.67,94.36c-0.17,0-0.3,0.14-0.3,0.3v47.37 c0,0.17,0.14,0.3,0.3,0.3h3.99c0.17,0,0.3-0.14,0.3-0.3V94.66c0-0.17-0.14-0.3-0.3-0.3H74.67z"></path> </g> <g> <path class="st43" d="M93.99,144.55H90c-1.39,0-2.51-1.13-2.51-2.51V94.66c0-1.39,1.13-2.51,2.51-2.51h3.99 c1.39,0,2.51,1.13,2.51,2.51v47.37C96.5,143.42,95.37,144.55,93.99,144.55z M90,94.36c-0.17,0-0.3,0.14-0.3,0.3v47.37 c0,0.17,0.14,0.3,0.3,0.3h3.99c0.17,0,0.3-0.14,0.3-0.3V94.66c0-0.17-0.14-0.3-0.3-0.3H90z"></path> </g> <g> <path class="st43" d="M109.31,144.55h-3.99c-1.39,0-2.51-1.13-2.51-2.51V94.66c0-1.39,1.13-2.51,2.51-2.51h3.99 c1.39,0,2.51,1.13,2.51,2.51v47.37C111.83,143.42,110.7,144.55,109.31,144.55z M105.32,94.36c-0.17,0-0.3,0.14-0.3,0.3v47.37 c0,0.17,0.14,0.3,0.3,0.3h3.99c0.17,0,0.3-0.14,0.3-0.3V94.67c0-0.17-0.14-0.3-0.3-0.3H105.32z"></path> </g> </g> <g> <path class="st43" d="M100.43,78.44H84.46c-0.61,0-1.11-0.49-1.11-1.11V67.02c0-0.61,0.49-1.11,1.11-1.11h15.96 c0.61,0,1.11,0.49,1.11,1.11v10.31C101.53,77.95,101.04,78.44,100.43,78.44z M85.57,76.23h13.75v-8.1H85.57V76.23z"></path> </g> <g> <path class="st43" d="M75.17,158.96c-3.31,0-6-2.69-6-6v-0.83c0-0.61,0.49-1.11,1.11-1.11h9.79c0.61,0,1.11,0.49,1.11,1.11v0.83 C81.17,156.27,78.48,158.96,75.17,158.96z M71.39,153.23c0.14,1.96,1.78,3.52,3.78,3.52s3.64-1.55,3.78-3.52H71.39z"></path> </g> <g> <path class="st43" d="M108.81,158.96c-3.31,0-6-2.69-6-6v-0.83c0-0.61,0.49-1.11,1.11-1.11h9.79c0.61,0,1.11,0.49,1.11,1.11v0.83 C114.81,156.27,112.12,158.96,108.81,158.96z M105.03,153.23c0.14,1.96,1.78,3.52,3.78,3.52c2,0,3.64-1.55,3.78-3.52H105.03z"></path> </g> <g> <path class="st43" d="M105.38,58.42c-0.61,0-1.11-0.49-1.11-1.11V33.25H80.62v24.06c0,0.61-0.49,1.11-1.11,1.11 c-0.61,0-1.11-0.49-1.11-1.11V32.14c0-0.61,0.49-1.11,1.11-1.11h25.86c0.61,0,1.11,0.49,1.11,1.11v25.17 C106.48,57.92,105.99,58.42,105.38,58.42z"></path> </g> <g> <path class="st43" d="M133.92,115.69h-5.11c-0.61,0-1.11-0.49-1.11-1.11c0-0.61,0.49-1.11,1.11-1.11h4V94.36h-4 c-0.61,0-1.11-0.49-1.11-1.11s0.49-1.11,1.11-1.11h5.11c0.61,0,1.11,0.49,1.11,1.11v21.32 C135.02,115.19,134.53,115.69,133.92,115.69z"></path> </g> <g> <path class="st43" d="M122.54,150.35c-0.61,0-1.11-0.49-1.11-1.11V59.73c0-0.61,0.49-1.11,1.11-1.11c0.61,0,1.11,0.49,1.11,1.11 v89.52C123.64,149.86,123.15,150.35,122.54,150.35z"></path> </g> <g> <path class="st43" d="M63.47,150.35c-0.61,0-1.11-0.49-1.11-1.11V59.73c0-0.61,0.49-1.11,1.11-1.11s1.11,0.49,1.11,1.11v89.52 C64.57,149.86,64.08,150.35,63.47,150.35z"></path> </g> </g> </svg> 