<?xml version="1.0" encoding="UTF-8"?> <!-- Generator: Adobe Illustrator 24.3.0, SVG Export Plug-In . SVG Version: 6.00 Build 0) --> <svg xmlns="http://www.w3.org/2000/svg" xmlns:xlink="http://www.w3.org/1999/xlink" version="1.1" id="Capa_1" x="0px" y="0px" viewBox="0 0 190 190" style="enable-background:new 0 0 190 190;" xml:space="preserve"> <style type="text/css"> .st0{fill:#FFFFFF;} .st1{filter:url(#Adobe_OpacityMaskFilter);} .st2{filter:url(#Adobe_OpacityMaskFilter_1_);} .st3{filter:url(#Adobe_OpacityMaskFilter_2_);} .st4{filter:url(#Adobe_OpacityMaskFilter_3_);} .st5{filter:url(#Adobe_OpacityMaskFilter_4_);} .st6{fill:#9A65A4;} .st7{fill:#39A735;} .st8{fill-rule:evenodd;clip-rule:evenodd;fill:#39A735;} .st9{fill-rule:evenodd;clip-rule:evenodd;fill:#FFFFFF;} .st10{fill:#4CE146;} .st11{fill:none;stroke:#383838;stroke-width:0.5;stroke-miterlimit:10;} .st12{fill:#383838;} .st13{fill:none;stroke:#000000;stroke-width:4;stroke-miterlimit:10;} .st14{filter:url(#Adobe_OpacityMaskFilter_5_);} .st15{fill:none;stroke:#000000;stroke-width:0.5;stroke-miterlimit:10;} .st16{fill:#9B66A5;} .st17{fill:none;stroke:#9B66A5;stroke-width:5.7679;stroke-miterlimit:10;} .st18{fill:#DBD6D4;} .st19{clip-path:url(#SVGID_8_);fill:none;stroke:#F7E729;stroke-width:1.9226;stroke-miterlimit:10;} .st20{clip-path:url(#SVGID_10_);fill:none;stroke:#F7E729;stroke-width:1.9226;stroke-miterlimit:10;} .st21{clip-path:url(#SVGID_12_);fill:none;stroke:#F7E729;stroke-width:1.9226;stroke-miterlimit:10;} .st22{clip-path:url(#SVGID_14_);fill:none;stroke:#F7E729;stroke-width:1.9226;stroke-miterlimit:10;} .st23{clip-path:url(#SVGID_16_);fill:none;stroke:#F7E729;stroke-width:1.9226;stroke-miterlimit:10;} .st24{clip-path:url(#SVGID_18_);fill:none;stroke:#F7E729;stroke-width:1.9226;stroke-miterlimit:10;} .st25{clip-path:url(#SVGID_20_);fill:none;stroke:#76BC81;stroke-width:1.9226;stroke-miterlimit:10;} .st26{clip-path:url(#SVGID_22_);fill:none;stroke:#76BC81;stroke-width:1.9226;stroke-miterlimit:10;} .st27{clip-path:url(#SVGID_24_);fill:none;stroke:#76BC81;stroke-width:1.9226;stroke-miterlimit:10;} .st28{clip-path:url(#SVGID_26_);fill:none;stroke:#76BC81;stroke-width:1.9226;stroke-miterlimit:10;} .st29{fill-rule:evenodd;clip-rule:evenodd;fill:#225CA6;} .st30{clip-path:url(#SVGID_28_);fill:none;stroke:#F19570;stroke-width:1.9226;stroke-miterlimit:10;} .st31{clip-path:url(#SVGID_30_);fill:none;stroke:#F7E729;stroke-width:1.9226;stroke-miterlimit:10;} .st32{clip-path:url(#SVGID_32_);fill:none;stroke:#F7E729;stroke-width:1.9226;stroke-miterlimit:10;} .st33{fill:#E01015;} .st34{fill:#1B4D93;} .st35{fill:#5BC3F0;} .st36{fill:#EC7412;} .st37{fill:#FFCF07;} .st38{fill:#E5237B;} .st39{fill:#65B12E;} .st40{clip-path:url(#SVGID_34_);fill:none;stroke:#F7E729;stroke-width:1.9226;stroke-miterlimit:10;} .st41{clip-path:url(#SVGID_36_);fill:none;stroke:#F7E729;stroke-width:1.9226;stroke-miterlimit:10;} .st42{fill:#E1513B;} .st43{stroke:#000000;stroke-miterlimit:10;} .st44{filter:url(#Adobe_OpacityMaskFilter_6_);} .st45{fill:#C0C0C0;} .st46{fill:#FFFFFF;stroke:#FFFFFF;stroke-miterlimit:10;} .st47{fill:#FFFFFF;stroke:#FFFFFF;stroke-width:1.2;stroke-miterlimit:10;} .st48{fill:#FFFFFF;stroke:#FFFFFF;stroke-width:2;stroke-miterlimit:10;} .st49{fill:none;stroke:#FFFFFF;stroke-width:2;stroke-miterlimit:10;} .st50{fill:#FFFFFF;stroke:#FFFFFF;stroke-width:0.5;stroke-miterlimit:10;} .st51{fill:url(#SVGID_38_);} .st52{fill:url(#SVGID_39_);} .st53{fill:url(#SVGID_40_);} .st54{fill:url(#SVGID_41_);} .st55{fill:url(#SVGID_42_);} .st56{filter:url(#Adobe_OpacityMaskFilter_7_);} .st57{fill:#F5F5F5;} .st58{fill:url(#SVGID_44_);} .st59{fill:url(#SVGID_45_);} .st60{fill:url(#SVGID_46_);} .st61{fill:url(#SVGID_47_);} .st62{fill:url(#SVGID_48_);} .st63{fill:url(#SVGID_49_);} .st64{fill:url(#SVGID_50_);} .st65{fill:url(#SVGID_51_);} .st66{fill:url(#SVGID_52_);} .st67{fill:url(#SVGID_53_);} .st68{fill:url(#SVGID_54_);} .st69{fill:#FFFFFF;stroke:#444444;stroke-width:1.5;stroke-linecap:round;stroke-linejoin:round;stroke-miterlimit:10;} .st70{filter:url(#Adobe_OpacityMaskFilter_8_);} .st71{filter:url(#Adobe_OpacityMaskFilter_9_);} .st72{fill:#DF0B18;} .st73{fill:#EE96BE;} .st74{fill:#166C4B;} .st75{fill:#4CBFEC;} .st76{fill:#EC7A28;} .st77{fill:#FFCF17;} .st78{fill:#01498B;} .st79{fill:#E3E15C;} .st80{fill:#1E8CC6;} .st81{fill:#65B147;} .st82{fill:#E41E7B;} .st83{fill:#5F3813;} .st84{fill:#F09271;} .st85{fill:#A36329;} .st86{filter:url(#Adobe_OpacityMaskFilter_10_);} .st87{filter:url(#Adobe_OpacityMaskFilter_11_);} .st88{filter:url(#Adobe_OpacityMaskFilter_12_);} .st89{fill:#DEDEDE;} .st90{filter:url(#Adobe_OpacityMaskFilter_13_);} .st91{opacity:0.75;} .st92{fill:#353535;} .st93{fill:url(#SVGID_61_);} .st94{filter:url(#Adobe_OpacityMaskFilter_14_);} .st95{fill:#FB6880;} .st96{fill:#FCFDFF;} .st97{fill:#707070;} .st98{fill:none;stroke:#707070;stroke-width:0.5;stroke-miterlimit:10;} .st99{fill:#D1D1D1;} .st100{fill:#141414;} .st101{fill:none;stroke:#000000;stroke-width:3;stroke-linejoin:round;stroke-miterlimit:10;} .st102{fill:#2D2D2D;} .st103{fill:#ECECEC;} .st104{fill:#E1E1E1;} .st105{fill:#FAFAFA;} .st106{fill:#FF735D;} .st107{fill:#1A2E35;} .st108{fill:#3BA435;} .st109{fill:#4CDF46;} .st110{opacity:0.77;} .st111{fill:#375A64;} .st112{opacity:0.3;} .st113{opacity:0.65;} .st114{fill:none;stroke:#FFFFFF;stroke-width:0.05;stroke-miterlimit:10;} .st115{fill:#FFC19D;} .st116{fill:#CAFFCA;} .st117{fill:#FF9C6A;} .st118{opacity:0.24;} .st119{fill:none;stroke:#000000;stroke-width:7;stroke-linejoin:round;stroke-miterlimit:10;} .st120{stroke:#000000;stroke-width:2;stroke-miterlimit:10;} .st121{stroke:#000000;stroke-width:0.75;stroke-miterlimit:10;} .st122{stroke:#000000;stroke-width:0.5;stroke-miterlimit:10;} .st123{stroke:#444444;stroke-width:1.5;stroke-linecap:round;stroke-linejoin:round;stroke-miterlimit:10;} .st124{stroke:#000000;stroke-width:0.5;stroke-linecap:round;stroke-linejoin:round;stroke-miterlimit:10;} </style> <g> <g> <path class="st122" d="M94.59,80.24c-0.17,0-0.34-0.03-0.5-0.08L31.28,60.27c-0.68-0.21-1.14-0.83-1.16-1.54 c-0.02-0.71,0.42-1.35,1.08-1.59l62.82-23.17c0.37-0.14,0.78-0.14,1.15,0l62.82,23.17c0.66,0.24,1.1,0.88,1.08,1.59 c-0.02,0.71-0.48,1.33-1.16,1.54L95.09,80.16C94.93,80.21,94.76,80.24,94.59,80.24z M36.89,58.57l57.71,18.27l57.71-18.27 L94.59,37.28L36.89,58.57z"></path> </g> <g> <path class="st122" d="M83.22,50.61c-0.67,0-1.31-0.41-1.55-1.08c-0.32-0.86,0.12-1.81,0.98-2.13l23.9-8.81 c0.86-0.32,1.81,0.12,2.13,0.98c0.32,0.86-0.12,1.81-0.98,2.13l-23.9,8.81C83.61,50.58,83.41,50.61,83.22,50.61z"></path> </g> <g> <path class="st122" d="M94.59,107.42c-18.71,0-33.93-5.65-39.61-8.07c-2.22-0.95-3.65-3.12-3.65-5.54v-28.4 c0-0.53,0.25-1.02,0.68-1.34c0.43-0.31,0.98-0.4,1.48-0.24l41.1,13.01l41.1-13.01c0.5-0.16,1.05-0.07,1.48,0.24 c0.43,0.31,0.68,0.81,0.68,1.34v28.4c0,2.42-1.44,4.6-3.65,5.54C128.53,101.78,113.3,107.42,94.59,107.42z M54.65,67.67V93.8 c0,1.09,0.64,2.07,1.64,2.5c5.49,2.35,20.21,7.81,38.3,7.81c18.1,0,32.82-5.46,38.3-7.81c1-0.43,1.64-1.41,1.64-2.5V67.67 L95.09,80.16c-0.33,0.1-0.67,0.1-1,0L54.65,67.67z"></path> </g> <g> <path class="st122" d="M82.75,95.74c-13-1.6-22.96-5.28-27.76-7.33c-2.22-0.95-3.65-3.12-3.65-5.54c0-0.91,0.74-1.66,1.66-1.66 s1.66,0.74,1.66,1.66c0,1.09,0.64,2.07,1.64,2.5c4.64,1.98,14.27,5.54,26.66,7.08c0.91,0.11,1.55,0.94,1.44,1.85 C84.29,95.13,83.58,95.74,82.75,95.74z"></path> </g> <g> <path class="st122" d="M147.22,104.73c-0.91,0-1.66-0.74-1.66-1.66V61.92c0-0.91,0.74-1.66,1.66-1.66c0.91,0,1.66,0.74,1.66,1.66 v41.16C148.87,103.99,148.13,104.73,147.22,104.73z"></path> </g> <g> <path class="st122" d="M147.22,124.15c-6.27,0-11.36-5.1-11.36-11.36s5.1-11.36,11.36-11.36c6.27,0,11.36,5.1,11.36,11.36 S153.48,124.15,147.22,124.15z M147.22,104.73c-4.44,0-8.05,3.61-8.05,8.05c0,4.44,3.61,8.05,8.05,8.05 c4.44,0,8.05-3.61,8.05-8.05C155.27,108.34,151.66,104.73,147.22,104.73z"></path> </g> <g> <path class="st122" d="M147.22,124.15c-6.27,0-11.36-5.1-11.36-11.36s5.1-11.36,11.36-11.36c6.27,0,11.36,5.1,11.36,11.36 S153.48,124.15,147.22,124.15z M147.22,104.73c-4.44,0-8.05,3.61-8.05,8.05c0,4.44,3.61,8.05,8.05,8.05 c4.44,0,8.05-3.61,8.05-8.05C155.27,108.34,151.66,104.73,147.22,104.73z"></path> </g> <g> <path class="st122" d="M153.85,156.14h-13.26c-1.73,0-3.38-0.74-4.52-2.04c-1.14-1.3-1.68-3.02-1.46-4.74l3.76-30.3 c0.07-0.56,0.42-1.04,0.92-1.29c0.66-0.32,1.48-0.18,1.97,0.37c1.56,1.73,3.68,2.68,5.95,2.68s4.39-0.95,5.95-2.68 c0.49-0.55,1.29-0.7,1.95-0.38c0.51,0.24,0.88,0.74,0.95,1.3l3.76,30.3c0.21,1.72-0.32,3.44-1.47,4.74 C157.22,155.39,155.58,156.14,153.85,156.14z M141.29,122.44l-3.4,27.33c-0.1,0.78,0.14,1.54,0.66,2.14 c0.52,0.59,1.25,0.92,2.04,0.92h13.26c0.79,0,1.51-0.33,2.04-0.92c0.52-0.59,0.76-1.35,0.66-2.14c0,0-3.4-27.33-3.4-27.33 C149.6,124.65,144.84,124.65,141.29,122.44z"></path> </g> </g> </svg> 