<?xml version="1.0" encoding="UTF-8"?> <!-- Generator: Adobe Illustrator 24.3.0, SVG Export Plug-In . SVG Version: 6.00 Build 0) --> <svg xmlns="http://www.w3.org/2000/svg" xmlns:xlink="http://www.w3.org/1999/xlink" version="1.1" id="Capa_1" x="0px" y="0px" viewBox="0 0 190 190" style="enable-background:new 0 0 190 190;" xml:space="preserve"> <style type="text/css"> .st0{fill:#FFFFFF;} .st1{filter:url(#Adobe_OpacityMaskFilter);} .st2{filter:url(#Adobe_OpacityMaskFilter_1_);} .st3{filter:url(#Adobe_OpacityMaskFilter_2_);} .st4{filter:url(#Adobe_OpacityMaskFilter_3_);} .st5{filter:url(#Adobe_OpacityMaskFilter_4_);} .st6{fill:#9A65A4;} .st7{fill:#39A735;} .st8{fill-rule:evenodd;clip-rule:evenodd;fill:#39A735;} .st9{fill-rule:evenodd;clip-rule:evenodd;fill:#FFFFFF;} .st10{fill:#4CE146;} .st11{fill:none;stroke:#383838;stroke-width:0.5;stroke-miterlimit:10;} .st12{fill:#383838;} .st13{fill:none;stroke:#000000;stroke-width:4;stroke-miterlimit:10;} .st14{filter:url(#Adobe_OpacityMaskFilter_5_);} .st15{fill:none;stroke:#000000;stroke-width:0.5;stroke-miterlimit:10;} .st16{fill:#9B66A5;} .st17{fill:none;stroke:#9B66A5;stroke-width:5.7679;stroke-miterlimit:10;} .st18{fill:#DBD6D4;} .st19{clip-path:url(#SVGID_8_);fill:none;stroke:#F7E729;stroke-width:1.9226;stroke-miterlimit:10;} .st20{clip-path:url(#SVGID_10_);fill:none;stroke:#F7E729;stroke-width:1.9226;stroke-miterlimit:10;} .st21{clip-path:url(#SVGID_12_);fill:none;stroke:#F7E729;stroke-width:1.9226;stroke-miterlimit:10;} .st22{clip-path:url(#SVGID_14_);fill:none;stroke:#F7E729;stroke-width:1.9226;stroke-miterlimit:10;} .st23{clip-path:url(#SVGID_16_);fill:none;stroke:#F7E729;stroke-width:1.9226;stroke-miterlimit:10;} .st24{clip-path:url(#SVGID_18_);fill:none;stroke:#F7E729;stroke-width:1.9226;stroke-miterlimit:10;} .st25{clip-path:url(#SVGID_20_);fill:none;stroke:#76BC81;stroke-width:1.9226;stroke-miterlimit:10;} .st26{clip-path:url(#SVGID_22_);fill:none;stroke:#76BC81;stroke-width:1.9226;stroke-miterlimit:10;} .st27{clip-path:url(#SVGID_24_);fill:none;stroke:#76BC81;stroke-width:1.9226;stroke-miterlimit:10;} .st28{clip-path:url(#SVGID_26_);fill:none;stroke:#76BC81;stroke-width:1.9226;stroke-miterlimit:10;} .st29{fill-rule:evenodd;clip-rule:evenodd;fill:#225CA6;} .st30{clip-path:url(#SVGID_28_);fill:none;stroke:#F19570;stroke-width:1.9226;stroke-miterlimit:10;} .st31{clip-path:url(#SVGID_30_);fill:none;stroke:#F7E729;stroke-width:1.9226;stroke-miterlimit:10;} .st32{clip-path:url(#SVGID_32_);fill:none;stroke:#F7E729;stroke-width:1.9226;stroke-miterlimit:10;} .st33{fill:#E01015;} .st34{fill:#1B4D93;} .st35{fill:#5BC3F0;} .st36{fill:#EC7412;} .st37{fill:#FFCF07;} .st38{fill:#E5237B;} .st39{fill:#65B12E;} .st40{clip-path:url(#SVGID_34_);fill:none;stroke:#F7E729;stroke-width:1.9226;stroke-miterlimit:10;} .st41{clip-path:url(#SVGID_36_);fill:none;stroke:#F7E729;stroke-width:1.9226;stroke-miterlimit:10;} .st42{fill:#E1513B;} .st43{stroke:#000000;stroke-miterlimit:10;} .st44{filter:url(#Adobe_OpacityMaskFilter_6_);} .st45{fill:#C0C0C0;} .st46{fill:#FFFFFF;stroke:#FFFFFF;stroke-miterlimit:10;} .st47{fill:#FFFFFF;stroke:#FFFFFF;stroke-width:1.2;stroke-miterlimit:10;} .st48{fill:#FFFFFF;stroke:#FFFFFF;stroke-width:2;stroke-miterlimit:10;} .st49{fill:none;stroke:#FFFFFF;stroke-width:2;stroke-miterlimit:10;} .st50{fill:#FFFFFF;stroke:#FFFFFF;stroke-width:0.5;stroke-miterlimit:10;} .st51{fill:url(#SVGID_38_);} .st52{fill:url(#SVGID_39_);} .st53{fill:url(#SVGID_40_);} .st54{fill:url(#SVGID_41_);} .st55{fill:url(#SVGID_42_);} .st56{filter:url(#Adobe_OpacityMaskFilter_7_);} .st57{fill:#F5F5F5;} .st58{fill:url(#SVGID_44_);} .st59{fill:url(#SVGID_45_);} .st60{fill:url(#SVGID_46_);} .st61{fill:url(#SVGID_47_);} .st62{fill:url(#SVGID_48_);} .st63{fill:url(#SVGID_49_);} .st64{fill:url(#SVGID_50_);} .st65{fill:url(#SVGID_51_);} .st66{fill:url(#SVGID_52_);} .st67{fill:url(#SVGID_53_);} .st68{fill:url(#SVGID_54_);} .st69{fill:#FFFFFF;stroke:#444444;stroke-width:1.5;stroke-linecap:round;stroke-linejoin:round;stroke-miterlimit:10;} .st70{filter:url(#Adobe_OpacityMaskFilter_8_);} .st71{filter:url(#Adobe_OpacityMaskFilter_9_);} .st72{fill:#DF0B18;} .st73{fill:#EE96BE;} .st74{fill:#166C4B;} .st75{fill:#4CBFEC;} .st76{fill:#EC7A28;} .st77{fill:#FFCF17;} .st78{fill:#01498B;} .st79{fill:#E3E15C;} .st80{fill:#1E8CC6;} .st81{fill:#65B147;} .st82{fill:#E41E7B;} .st83{fill:#5F3813;} .st84{fill:#F09271;} .st85{fill:#A36329;} .st86{filter:url(#Adobe_OpacityMaskFilter_10_);} .st87{filter:url(#Adobe_OpacityMaskFilter_11_);} .st88{filter:url(#Adobe_OpacityMaskFilter_12_);} .st89{fill:#DEDEDE;} .st90{filter:url(#Adobe_OpacityMaskFilter_13_);} .st91{opacity:0.75;} .st92{fill:#353535;} .st93{fill:url(#SVGID_61_);} .st94{filter:url(#Adobe_OpacityMaskFilter_14_);} .st95{fill:#FB6880;} .st96{fill:#FCFDFF;} .st97{fill:#707070;} .st98{fill:none;stroke:#707070;stroke-width:0.5;stroke-miterlimit:10;} .st99{fill:#D1D1D1;} .st100{fill:#141414;} .st101{fill:none;stroke:#000000;stroke-width:3;stroke-linejoin:round;stroke-miterlimit:10;} .st102{fill:#2D2D2D;} .st103{fill:#ECECEC;} .st104{fill:#E1E1E1;} .st105{fill:#FAFAFA;} .st106{fill:#FF735D;} .st107{fill:#1A2E35;} .st108{fill:#3BA435;} .st109{fill:#4CDF46;} .st110{opacity:0.77;} .st111{fill:#375A64;} .st112{opacity:0.3;} .st113{opacity:0.65;} .st114{fill:none;stroke:#FFFFFF;stroke-width:0.05;stroke-miterlimit:10;} .st115{fill:#FFC19D;} .st116{fill:#CAFFCA;} .st117{fill:#FF9C6A;} .st118{opacity:0.24;} .st119{fill:none;stroke:#000000;stroke-width:7;stroke-linejoin:round;stroke-miterlimit:10;} .st120{stroke:#000000;stroke-width:2;stroke-miterlimit:10;} .st121{stroke:#000000;stroke-width:0.75;stroke-miterlimit:10;} .st122{stroke:#000000;stroke-width:0.5;stroke-miterlimit:10;} .st123{stroke:#444444;stroke-width:1.5;stroke-linecap:round;stroke-linejoin:round;stroke-miterlimit:10;} .st124{stroke:#000000;stroke-width:0.5;stroke-linecap:round;stroke-linejoin:round;stroke-miterlimit:10;} </style> <g> <g> <path class="st122" d="M159.23,125.82c0.03-0.76,0.49-18.67-10.72-28.94c-0.57-0.52-1.42-0.56-2.04-0.09 c-0.13,0.1-13.92,10.32-26.6,0c-0.6-0.49-1.46-0.48-2.04,0.03c-0.15,0.13-3.77,3.33-6.9,9.51l-0.28,0.56l-0.57-0.25 c-0.53-0.23-1.14-0.16-1.6,0.19c-0.57,0.43-13.96,10.3-26.6,0c-0.41-0.34-0.97-0.44-1.48-0.28l-0.55,0.17l-0.24-0.53 c-1.73-3.72-3.97-6.85-6.67-9.32c-0.57-0.52-1.42-0.56-2.03-0.09c-0.14,0.11-13.85,10.38-26.6,0c-0.6-0.49-1.46-0.48-2.04,0.03 c-0.46,0.4-11.24,10.01-11.51,28.93c-0.01,0.42,0.16,0.84,0.45,1.13c0.3,0.31,0.7,0.48,1.13,0.48l36.87-0.01l-0.14,0.78 c-0.46,2.6-0.71,5.11-0.74,7.66c-0.01,0.43,0.15,0.84,0.45,1.14c0.3,0.3,0.71,0.48,1.13,0.48l49.73-0.01 c0.86,0,1.56-0.67,1.58-1.53c0.01-0.34,0.09-3.44-0.57-7.74l-0.12-0.76l37.08-0.01C158.5,127.35,159.2,126.68,159.23,125.82z M69.96,124.18l-35.98,0.01l0.05-0.7c0.81-12.37,6.58-20.15,9.02-22.92l0.39-0.44l0.48,0.34c11.34,7.92,22.89,2.56,27.32-0.11 l0.46-0.28l0.37,0.39c2.13,2.29,3.91,5.16,5.28,8.53l0.15,0.36l-0.25,0.3c-2.21,2.73-5.25,7.39-7.16,14.04L69.96,124.18z M71.56,134.23l0.05-0.7c0.81-12.38,6.58-20.15,9.02-22.91l0.39-0.44l0.48,0.34c11.34,7.92,22.89,2.56,27.33-0.11l0.46-0.28 l0.37,0.39c6.87,7.38,8.15,18.55,8.38,23.02l0.04,0.7L71.56,134.23z M119.92,124.19l-0.12-0.5c-1.36-5.5-3.56-10.16-6.55-13.86 l-0.26-0.32l0.17-0.37c1.96-4.29,4.26-7.2,5.45-8.56l0.39-0.44l0.48,0.34c11.35,7.92,22.89,2.56,27.32-0.11l0.46-0.28l0.37,0.39 c6.87,7.38,8.15,18.55,8.38,23.02l0.04,0.69L119.92,124.19z"></path> </g> <g> <path class="st122" d="M94.8,103.85c5.5,0,10.67-2.15,14.56-6.05c3.23-3.23,5.25-7.33,5.84-11.86l0.21-1.59l0.97,1.28 c3.95,5.2,9.92,8.18,16.39,8.18c5.5,0,10.67-2.15,14.56-6.04c3.9-3.9,6.04-9.07,6.04-14.57c-0.01-11.36-9.25-20.6-20.6-20.6 c-5.49,0-10.67,2.15-14.56,6.05c-3.23,3.23-5.25,7.33-5.84,11.86l-0.21,1.6l-0.97-1.28c-3.95-5.2-9.93-8.18-16.4-8.18 c-5.49,0-10.67,2.15-14.57,6.04c-0.51,0.51-1,1.07-1.5,1.7l-0.94,1.17l-0.23-1.49C76.02,60.11,67.27,52.6,57.22,52.6 c-5.49,0-10.67,2.15-14.57,6.05c-3.89,3.9-6.04,9.07-6.04,14.57c0.01,11.36,9.25,20.59,20.6,20.59c5.5,0,10.67-2.15,14.56-6.04 c0.5-0.5,1-1.06,1.51-1.7l0.94-1.17l0.23,1.48C75.99,96.34,84.74,103.85,94.8,103.85z M120.46,60.89 c3.29-3.3,7.67-5.11,12.32-5.11c9.61,0,17.43,7.82,17.44,17.42c0,4.65-1.82,9.03-5.11,12.33c-3.29,3.3-7.67,5.11-12.32,5.11 c-9.62,0-17.44-7.82-17.44-17.42C115.34,68.56,117.16,64.18,120.46,60.89z M69.54,85.53c-3.29,3.3-7.67,5.11-12.31,5.11 c-9.62,0-17.44-7.82-17.44-17.42c0-4.65,1.81-9.03,5.11-12.33c3.29-3.3,7.67-5.11,12.32-5.11c9.61,0,17.43,7.82,17.43,17.42 C74.65,77.85,72.84,82.23,69.54,85.53z M82.47,70.92c3.3-3.3,7.67-5.11,12.32-5.11c9.61,0,17.43,7.82,17.43,17.43 c0,4.65-1.82,9.03-5.11,12.32c-3.29,3.3-7.67,5.12-12.31,5.12c-9.62,0-17.44-7.82-17.44-17.43C77.36,78.6,79.17,74.23,82.47,70.92 z"></path> </g> </g> </svg> 