<?xml version="1.0" encoding="UTF-8"?> <svg xmlns="http://www.w3.org/2000/svg" id="Capa_2" data-name="Capa 2" viewBox="0 0 348 153"><defs><style>.cls-1{fill:#fff;}</style></defs><title>Mesa de trabajo 1</title><path class="cls-1" d="M137,51.63h-5.74l2.88-12.22Zm.85,3.59,1.57,6.84c.79,3.4,1,3.93-.41,5v.15h6V67c-1.66-1.41-2.18-4.12-2.85-6.88L136,35.28h-4.6v.14c1.4.73.84,2.77.44,4.51L127,60.17c-.64,2.77-1.13,5.48-2.82,6.88v.15h5.35V67c-1.4-.87-1.2-2.28-.58-5l1.51-6.84Z"></path><path class="cls-1" d="M151.36,53.23l7.15-17.95h-5.09v.14c1.63,1.31,1,3.64.47,4.85l-3.61,9-4.66-12.66a2.12,2.12,0,0,0-2.18-1.36H140.8c1.4,1.26,2,2.86,2.76,5l4.83,13V60.4c0,2.28.2,5.43-1.22,6.64v.15h5.67V67c-1.48-1.79-1.48-3.25-1.48-6.16Z"></path><path class="cls-1" d="M171.88,67.2h4.28v-.14c-1.49-.92-1.31-4.46-1.31-6.65V42.12c0-2.23-.18-5.77,1.31-6.69l0-.14H170.6v.14c1.46.92,1.28,4.46,1.28,6.65v14.6a9.94,9.94,0,0,1-.61,4.41c-1,2.28-2.62,3.39-4.25,3.39-3,0-4.62-3-4.62-9.45V42.08c0-2.18-.18-5.73,1.27-6.65v-.14h-5.53v.14c1.49.92,1.28,4.46,1.28,6.65V55c0,3.49-.06,6.74,1.49,9.55a6,6,0,0,0,5.26,3.4,6.34,6.34,0,0,0,5.71-4Z"></path><path class="cls-1" d="M181.83,42.12l10,21.1c1.28,2.76,2.18,4.36,4.25,5.52V41.54c0-2.72,0-4.65,1.51-6.11v-.14h-5.12v.14c1.54,1.46,1.51,3.4,1.51,6.11V59.92L183.31,37.51l-.4-1a3.86,3.86,0,0,1-.44-1.22v0h-4.25v.14c1.51,1.46,1.51,3.4,1.51,6.11V60.89c0,2.72,0,4.66-1.54,6.16v.15h5.15V67c-1.54-1.5-1.51-3.44-1.51-6.16Z"></path><path class="cls-1" d="M206.19,38.78h2.62a2.26,2.26,0,0,1,2.5,1.94h.08l.93-5.77h-.09a2.11,2.11,0,0,1-1.34.34H199.32a3,3,0,0,1-1.11-.34h-.08l-1,5.77h.09a4,4,0,0,1,3.46-1.94h2.56V60.41c0,2.18.17,5.72-1.28,6.64v.15h5.76V67c-1.54-1.5-1.51-3.39-1.51-6.16Z"></path><path class="cls-1" d="M222.84,51.63H217.1L220,39.4Zm.84,3.59,1.57,6.84c.79,3.4,1,3.93-.4,5v.15h6V67c-1.66-1.41-2.18-4.12-2.85-6.88L221.9,35.28h-4.6v.14c1.4.73.84,2.77.44,4.51l-4.86,20.22c-.64,2.77-1.14,5.48-2.83,6.88v.15h5.35V67c-1.4-.87-1.19-2.28-.58-5l1.51-6.84Z"></path><path class="cls-1" d="M244.28,58.9l-5.47-21.39a8.59,8.59,0,0,1-.41-2.19v0h-5.09v.14c1.34,1.21,1,3.15.9,4.51l-1.66,20.32c-.23,2.62-.4,5-1.63,6.79v.15h4.74V67c-1.37-1-1.16-3.15-.93-6.11l1.66-20.86L241.92,62c.7,2.72,1.11,4,2.57,5.87L251,40l1.66,23.37c0,1.65-.17,3.1-1.2,3.64v.15h5.62V67c-1.17-1.36-1.31-2.67-1.49-4.94l-1.92-23.81c0-1.12.2-2.52.9-2.86v-.14h-5v0a13.36,13.36,0,0,1-.44,3Z"></path><path class="cls-1" d="M259.41,60.41c0,2.18.17,5.77-1.28,6.64v.15h5.53V67c-1.45-.92-1.28-4.46-1.28-6.64V42.12c0-2.18-.17-5.77,1.28-6.69v-.14h-5.53v.14c1.49.92,1.28,4.46,1.28,6.69Z"></path><path class="cls-1" d="M270.12,51.63h2.15c.91,0,2.13,0,2.59,1.36H275V47.84h-.09a1.91,1.91,0,0,1-1.28.29h-3.46v-9a10,10,0,0,1,3-.34,3.29,3.29,0,0,1,3.43,1.94h.08V35h-.08c-.38.34-.88.24-1.37.24h-9.32v.14c1.49.92,1.31,4.46,1.31,6.69V60.4c0,2.19.17,5.77-1.31,6.64v.15H278l1.31-6.35h-.09c-1.46,2.13-3.47,3.15-5.39,2.86l-3.7-.58Z"></path><path class="cls-1" d="M284.35,42.12l10,21.1c1.28,2.76,2.18,4.36,4.25,5.52V41.54c0-2.72,0-4.65,1.51-6.11v-.14H295v.14c1.54,1.46,1.51,3.4,1.51,6.11V59.92L285.83,37.51l-.41-1a3.86,3.86,0,0,1-.44-1.22v0h-4.25v.14c1.52,1.46,1.52,3.4,1.52,6.11V60.89c0,2.72,0,4.66-1.54,6.16v.15h5.15V67c-1.54-1.5-1.51-3.44-1.51-6.16Z"></path><path class="cls-1" d="M308.71,38.78h2.62a2.26,2.26,0,0,1,2.5,1.94h.08l.93-5.77h-.09a2.11,2.11,0,0,1-1.34.34H301.84a3,3,0,0,1-1.1-.34h-.09l-1,5.77h.09a4,4,0,0,1,3.46-1.94h2.57V60.41c0,2.18.17,5.72-1.28,6.64v.15h5.76V67c-1.54-1.5-1.51-3.39-1.51-6.16Z"></path><path class="cls-1" d="M325.47,37.95c4.6,0,7.31,6.84,7.31,13.92s-2.83,12.61-7.25,12.61-7.45-7-7.45-13.77c0-7.33,2.88-12.76,7.39-12.76m.21-3.49c-6.11-.24-10.91,7.47-10.91,16.68,0,9.94,4.86,16.83,10.62,16.83s10.71-7.18,10.71-17.07c0-8.73-4.31-16.49-10.42-16.44"></path><path class="cls-1" d="M129,82.86a7.22,7.22,0,0,1,2.62-.53c4.86,0,7.71,4.26,7.71,12.75s-3.87,12.17-8.21,12.17a6.39,6.39,0,0,1-2.13-.34Zm-3,20.9c0,2.86.17,5.19-1.28,6.84v.14h7c6.52,0,10.91-6.69,10.91-16.25s-4.13-15.67-10.77-15.67h-7.13V79c1.49.73,1.28,4.27,1.28,6.5Z"></path><path class="cls-1" d="M149,95.18h2.15c.9,0,2.13,0,2.59,1.36h.09V91.4h-.09a1.91,1.91,0,0,1-1.28.29H149v-9a9.94,9.94,0,0,1,3-.34,3.29,3.29,0,0,1,3.44,1.94h.08V78.59h-.08c-.38.34-.87.24-1.37.24h-9.32V79c1.48.92,1.31,4.46,1.31,6.69V104c0,2.19.17,5.77-1.31,6.64v.15h12.14l1.31-6.35h-.09c-1.46,2.13-3.46,3.15-5.38,2.86l-3.7-.58Z"></path><path class="cls-1" d="M182.86,79.27a14.69,14.69,0,0,0-5.3-1.21c-6,0-10.22,6.65-10.22,16.69,0,10.38,4.25,16.78,11.12,16.78a6.94,6.94,0,0,0,4.39-1.46l1.48-5.62h-.09c-1.83,1.74-4,3.05-6.2,3.05-4.49,0-7.39-6.35-7.39-13.48s2.79-11.93,6.81-11.93a7.66,7.66,0,0,1,5.38,2.76Z"></path><path class="cls-1" d="M195.6,81.5c4.6,0,7.31,6.84,7.31,13.92S200.09,108,195.66,108s-7.45-7-7.45-13.77c0-7.33,2.88-12.76,7.39-12.76m.21-3.49c-6.12-.24-10.91,7.47-10.91,16.68,0,9.94,4.86,16.83,10.62,16.83s10.71-7.18,10.71-17.07c0-8.73-4.3-16.49-10.41-16.44"></path><path class="cls-1" d="M208.06,78.84V79c1.48.92,1.29,4.46,1.29,6.69V104c0,2.18.2,5.77-1.29,6.64v.15h5.56v-.15c-1.49-.87-1.31-4.41-1.31-6.64V82.23a9.39,9.39,0,0,1,2-.39c2-.14,3.76,1.89,3.76,5.38,0,4.56-2.71,6.35-5,6.94l2.67,6.84,3.55,7.33c.87,1.79,1.83,2.42,3.38,2.42h2.67a28.57,28.57,0,0,1-4.71-6.79l-4.19-8.78c2.39-.92,4.63-4.27,4.63-8.54s-2.13-7.81-6-7.81Z"></path><path class="cls-1" d="M227.94,82.86a7.19,7.19,0,0,1,2.62-.53c4.86,0,7.71,4.26,7.71,12.75s-3.87,12.17-8.21,12.17a6.33,6.33,0,0,1-2.12-.34Zm-3,20.9c0,2.86.18,5.19-1.28,6.84v.14h7c6.52,0,10.91-6.69,10.91-16.25s-4.13-15.67-10.76-15.67h-7.13V79c1.49.73,1.28,4.27,1.28,6.5Z"></path><path class="cls-1" d="M253.8,81.5c4.6,0,7.31,6.84,7.31,13.92S258.29,108,253.86,108s-7.45-7-7.45-13.77c0-7.33,2.88-12.76,7.39-12.76M254,78c-6.12-.24-10.91,7.47-10.91,16.68,0,9.94,4.86,16.83,10.62,16.83s10.7-7.18,10.7-17.07c0-8.73-4.3-16.49-10.41-16.44"></path><path class="cls-1" d="M270.51,91.69V82.21l1.95-.34c1.75-.3,3.61,1.45,3.61,4.79,0,4-2.71,5-4.6,5Zm0,15.18v-12l2-.2c2.57-.24,5.3,1.8,5.3,6.5s-2.42,6.45-4.81,6.07Zm-3-3c0,2.23.17,5.77-1.28,6.69v.14h4.81c2.18,0,4.48.14,6.52-1.5s3.49-4.75,3.49-8.49c0-4.75-2.12-7.66-4.74-8.59,1.66-1.21,2.91-3,2.91-6.29,0-4.32-2.24-7-6.08-7h-6.9V79c1.49.93,1.28,4.48,1.28,6.66Z"></path><path class="cls-1" d="M294.92,95.18h-5.74L292.07,83Zm.84,3.59,1.57,6.84c.79,3.4,1,3.93-.41,5v.15h6v-.15c-1.66-1.41-2.18-4.12-2.85-6.88l-6-24.88h-4.6V79c1.4.73.84,2.77.44,4.51L285,103.72c-.64,2.77-1.13,5.48-2.82,6.88v.15h5.35v-.15c-1.39-.87-1.2-2.28-.58-5l1.51-6.84Z"></path><path class="cls-1" d="M62.52,14.37A1.44,1.44,0,1,1,64,15.81a1.44,1.44,0,0,1-1.44-1.44"></path><path class="cls-1" d="M61.25,19.23A2.79,2.79,0,1,1,64,22a2.79,2.79,0,0,1-2.79-2.79"></path><path class="cls-1" d="M52.47,58.4H75.76V81.69H52.47ZM58.05,64V76.11L70.18,64Z"></path><path class="cls-1" d="M55.2,38.17H73V55.92H55.2Zm4.26,4.26v9.24l9.24-9.24Z"></path><path class="cls-1" d="M57.58,23.18H70.36V36H57.58Zm3.07,3.06V32.9l6.65-6.65Z"></path><path class="cls-1" d="M85.81,46H82.15a7.1,7.1,0,1,1,14.2,0H92.52a3.28,3.28,0,0,0-3.35-3.27,3.35,3.35,0,0,0-3.35,3.35Z"></path><path class="cls-1" d="M104,46h-3.67a7.1,7.1,0,1,1,14.2,0H110.7a3.28,3.28,0,0,0-3.35-3.27A3.35,3.35,0,0,0,104,46.12Z"></path><path class="cls-1" d="M89.64,36.07V32.4c5.58,0,8.61,4,8.61,8.61H94.43a5,5,0,0,0-4.79-4.94"></path><path class="cls-1" d="M106.88,36.07V32.4c-5.58,0-8.62,4-8.62,8.61h3.83a5,5,0,0,1,4.79-4.94"></path><rect class="cls-1" x="96.35" y="46.04" width="3.99" height="22.1"></rect><rect class="cls-1" x="96.19" y="27.77" width="4.15" height="7.66"></rect><rect class="cls-1" x="82.63" y="56.65" width="11.49" height="11.49"></rect><rect class="cls-1" x="80.07" y="70.52" width="11.49" height="11.49"></rect><rect class="cls-1" x="96.19" y="70.52" width="11.49" height="11.49"></rect><path class="cls-1" d="M19.13,48.27H15.46a7.1,7.1,0,1,1,14.2,0H25.83A3.28,3.28,0,0,0,22.48,45a3.35,3.35,0,0,0-3.35,3.35Z"></path><path class="cls-1" d="M37.31,48.27H33.65a7.1,7.1,0,1,1,14.2,0H44A3.28,3.28,0,0,0,40.66,45a3.35,3.35,0,0,0-3.35,3.35Z"></path><path class="cls-1" d="M23,38.3V34.63c5.58,0,8.62,4,8.62,8.61H27.74A5,5,0,0,0,23,38.3"></path><path class="cls-1" d="M40.19,38.3V34.63c-5.58,0-8.61,4-8.61,8.61H35.4a5,5,0,0,1,4.78-4.94"></path><rect class="cls-1" x="29.66" y="48.27" width="3.99" height="22.1"></rect><rect class="cls-1" x="29.5" y="30" width="4.14" height="7.66"></rect><rect class="cls-1" x="37.16" y="61.43" width="11.48" height="11.49"></rect><rect class="cls-1" x="25.67" y="73.08" width="11.49" height="11.49"></rect><path class="cls-1" d="M68.42,101.32V93a10.21,10.21,0,0,1,8.3-3.67A10.58,10.58,0,0,1,85,93v8.29a10.58,10.58,0,0,0-8.3-3.67,10.22,10.22,0,0,0-8.3,3.67"></path><path class="cls-1" d="M95.55,101.32V93a10.21,10.21,0,0,1,8.29-3.67,10.58,10.58,0,0,1,8.3,3.67v8.29a10.58,10.58,0,0,0-8.3-3.67,10.21,10.21,0,0,0-8.29,3.67"></path><rect class="cls-1" x="85.33" y="101.31" width="10.05" height="10.05"></rect><path class="cls-1" d="M65.16,111.36,44.82,91,24.55,111.28H19.29a25.45,25.45,0,1,1,50.89.08Z"></path><path class="cls-1" d="M37.16,111.36a7.58,7.58,0,0,1,15.16,0Z"></path><path class="cls-1" d="M52.15,84.4h55.68v3.35h-48c1.27,0-5.27-3.35-7.66-3.35"></path><path class="cls-1" d="M22.8,125.88c.35-.13.55-.22.9-.33s.36-.25.86-.15a8.71,8.71,0,0,1,1.44-.64c.43-.11.69,0,1.12-.16s.81-.45,1.37-.65,1.06,0,1.66-.31.71-.63,1.27-.8a4.22,4.22,0,0,1,1.44,0,5.08,5.08,0,0,0,1.12,0c.49-.1.62-.6,1.12-.64.25,0,.39,0,.64,0s.49.23.8.16.64-.8.64-.8a5.76,5.76,0,0,0,1.6.16,9,9,0,0,0,.89-.33c.45-.12.72-.07,1.18-.15a7.11,7.11,0,0,0,1.05-.17c.31-.11.4-.34.7-.47a2.7,2.7,0,0,1,1-.32c.5,0,.78.2,1.28.16s.43-.42.79-.48.68.22,1.12.16.61-.64,1.12-.63.58.21,1,.16.42-.5.8-.64a1.5,1.5,0,0,1,1.28,0c.25.12.36.3.64.32.45,0,.51-.6,1-.63s.57.26,1,.32a2.48,2.48,0,0,0,.79,0c.66-.1.93-.61,1.6-.64a2.93,2.93,0,0,1,1.28.32c.81-.19,1.84-.16,2.07-.48s1-.33,1.44-.32.33.14,0,0,1,.16,1,.16c.36.09,1.24-.48,2.07-.48a9.42,9.42,0,0,0,1.6.16,5.05,5.05,0,0,0,1.28-.32,4,4,0,0,1,1.27-.48c.7,0,1.06.37,1.75.32a3.65,3.65,0,0,0,1.44-.32c.54-.24.69-.72,1.28-.79s1,.25,1.6.32a4.52,4.52,0,0,0,1.12,0c.58-.07.84-.48,1.44-.48s.86.33,1.44.32.74-.16,1.22-.17c.65,0,1,.19,1.66.17s.95-.44,1.6-.48c.82,0,1.26.38,2.07.32s1-.65,1.76-.64.85.46,1.43.48.64-.49,1.12-.48a5,5,0,0,1,1.12.32,6.06,6.06,0,0,0,1.76.16c.56,0,.87-.16,1.44-.16s.74.11,1.21.15a5.46,5.46,0,0,0,1.5,0c.59-.08.84-.48,1.44-.48s1,.38,1.59.32a5.14,5.14,0,0,0,1.12-.32,4.5,4.5,0,0,1,1.12-.32c.47,0,.65.39,1.12.48a2.6,2.6,0,0,0,1.92,0c.25-.12.36-.33.64-.32.45,0,.51.64,1,.63s.48-.7,1-.79.64.45,1.12.48.62-.38,1.06-.49a4.51,4.51,0,0,1,1.5,0c.63,0,1,.15,1.6.16s1-.14,1.69-.17a8.4,8.4,0,0,1,1.65,0c.63.07,1,.28,1.6.32s1-.27,1.59-.16c.36.06.45.4.8.48a7.14,7.14,0,0,0,1,0,1.34,1.34,0,0,1,1.12.48,1.19,1.19,0,0,1-.54,1.75c-.27.09-.45,0-.74,0a4.85,4.85,0,0,0-1.28.16c-.47.15-.48.76-1,.8s-.86-.31-1.43-.32-.72.23-1.18.31a4.18,4.18,0,0,1-1.37,0c-.59-.06-.85-.48-1.44-.48a2.9,2.9,0,0,0-1.12.32c-.39.14-.54.51-1,.48s-.63-.53-1.12-.63a2.63,2.63,0,0,0-1.28,0c-.49.1-.61.6-1.12.63s-1-.39-1.6-.32c-.41.05-.55.39-1,.48-.91.19-1.46-.16-2.39-.16s-1.26.22-2.07.16c-.63,0-1-.39-1.6-.32s-.7.66-1.27.8a3.26,3.26,0,0,1-1.27,0c-.63-.06-1-.38-1.6-.32-.41,0-.55.38-1,.48a5.41,5.41,0,0,1-1.6,0,4.93,4.93,0,0,0-1.34,0c-.32.08-.46.31-.79.32a3.56,3.56,0,0,1-.74-.15,3.89,3.89,0,0,0-1.6.16c-.46.1-.64.49-1.12.48s-.7-.29-1.12-.16-.34.37-.64.48a2.5,2.5,0,0,1-1.44,0c-.54-.1-.73-.74-1.27-.64s-.41.58-.79.8c-.65.37-1.17,0-1.92,0s-1.15-.31-1.76,0c-.31.16-.33.48-.64.64s-.68,0-1.12,0a8.13,8.13,0,0,0-1.6.16c-.44.1-.66.34-1.12.32s-.57-.24-1-.32a1.93,1.93,0,0,0-1.12,0c-.37.13-.42.5-.79.64s-.68-.05-1.12,0a8.24,8.24,0,0,0-1.43.48,7,7,0,0,1-2.39.64c-.63,0-1-.37-1.6-.32s-.76.33-1.28.48-.8,0-1.11.32-.22.46-.48.64-.53,0-.86,0a2.31,2.31,0,0,0-1.12.16c-.46.25-.82.61-.74,1.13s.63.58,1.12.8,1,.15,1.6.48c.27.15.35.35.64.48.62.29,1.1-.06,1.75.16s.71.64,1.28.8c.73.2,1.16-.41,1.91-.32s.83.53,1.44.64a2.62,2.62,0,0,0,1.27,0c.38-.09.56-.34,1-.32.58,0,.73.58,1.27.79a3.81,3.81,0,0,0,1.75.16c.76,0,1.17-.45,1.91-.32s1,1,1.76,1c.53,0,.75-.41,1.28-.48a3.32,3.32,0,0,1,1,0c.45,0,.67.24,1.12.32.68.11,1.08-.12,1.75,0a10.65,10.65,0,0,0,1.12.32c.63.06,1-.37,1.6-.32s.86.43,1.43.64a4.5,4.5,0,0,0,1.12.32,2.72,2.72,0,0,0,.8,0c.51-.07.76-.35,1.27-.32s.54.5,1,.48.58-.12,1-.16a8.62,8.62,0,0,1,1.59,0,18.67,18.67,0,0,1,2.23.16c.79.11,1.22.24,2,.31a11.16,11.16,0,0,0,1.82,0c.69,0,2.44-.25,1.75-.16s.89-.29,1.44-.16c.33.08.47.24.79.32a7,7,0,0,0,1.44,0,11.48,11.48,0,0,0,1.53.14,8.16,8.16,0,0,0,1-.14,5.17,5.17,0,0,1,1.76-.16c.72.1,1.62.06,1.69.79a3.09,3.09,0,0,1,.06.65,1.39,1.39,0,0,1-.47,1,1.22,1.22,0,0,1-1,.48c-.41,0-.54-.47-1-.48s-.75.39-1.27.48a8.72,8.72,0,0,1-1.66,0c-.87,0-1.37.07-2.23,0a16.16,16.16,0,0,1-2.17-.31c-.68-.14-1.07-.44-1.75-.32s-.72.56-1.27.64a3.11,3.11,0,0,1-1.76-.32c-.34-.13-.44-.42-.8-.48a2.06,2.06,0,0,0-1,0c-.43.11-.51.58-1,.64-.61.08-.83-.52-1.44-.64a3.62,3.62,0,0,0-1.59,0c-.41.09-.54.5-1,.48s-.74-.48-1.28-.64c-.78-.22-1.27.08-2.07,0a18.4,18.4,0,0,1-1.91-.32c.43.08-.68-.13-1.12-.16a5.16,5.16,0,0,0-1,0c-.51,0-.77.26-1.27.32-.77.09-1.17-.27-1.91-.48a6.7,6.7,0,0,0-1.28-.32,11.06,11.06,0,0,0-1.76.16,4.63,4.63,0,0,1-1,0c-.55-.09-.72-.61-1.28-.64s-.84.47-1.43.48-1-.43-1.6-.64a3.91,3.91,0,0,0-1.43-.32c-.44,0-.68.15-1.11.16s-.75-.45-1.28-.48-.87.18-1.44.16a3.73,3.73,0,0,1-1.28-.32c-.39-.14-.54-.4-1-.48a6.75,6.75,0,0,0-1.43,0,6.69,6.69,0,0,1-1,0c-.75-.09-1-.58-1.75-.8s-1.13,0-1.75-.32-.83-.75-1.44-1.12-1-.19-1.44-.64-.63-.51-.63-1,.3-.58.48-1a4.35,4.35,0,0,1,.8-1.27c.51-.57,1-.62,1.59-1.12s.52-1,1.12-1.12c.44-.1.66.33,1.11.32.64,0,.84-.58,1.43-.8s1.18,0,1.92-.16,1.12-.64,1.91-.64c.5,0,.78.25,1.28.16s.52-.56,1-.64,2,.17,1.44.16.89,0,1.44-.16.54-.43,1-.48a10.87,10.87,0,0,1,1.44.16,6.62,6.62,0,0,0,1.75-.48,11.23,11.23,0,0,1,1.6-.48c.49-.05.78,0,1.27,0s1-.11,1.6-.16,1.18.09,1.91,0,1.95.21,1.76-.48-.85-.44-1.44-.48a9.82,9.82,0,0,0-1.75.32,12,12,0,0,1-1.76,0,10,10,0,0,0-2.23-.16,8.58,8.58,0,0,0-1.59.64,6.39,6.39,0,0,1-1.12.48,8.68,8.68,0,0,1-1.75,0,14.2,14.2,0,0,0-1.75,0,13.9,13.9,0,0,0-1.6.48,9.7,9.7,0,0,1-2.08.48,18.53,18.53,0,0,0-2.55-.16c-.85.14-1.23.62-2.08.8a11.63,11.63,0,0,1-2.39.16c-.46,0-.76-.19-1.18,0-.24.1-.34.22-.58.33a4.28,4.28,0,0,1-2.08.16c-.75,0-1.18-.32-1.91-.16a6.17,6.17,0,0,0-1,.32,8.54,8.54,0,0,1-1.12.48,8.46,8.46,0,0,1-1.91.16c-.68,0-1.13-.28-1.75,0-.37.16-.43.51-.8.64-.59.21-1-.32-1.6-.16s-.65.95-1.27,1-.72-.67-1.27-.64-.76.44-1.28.64a3.62,3.62,0,0,1-1.44.48c-.5,0-.78-.14-1.28-.16s-.78.29-1.28.48-.77.34-1.27.48c-.73.21-1.23,0-1.92.32s-.79.76-1.44,1-.89-.13-1.43,0-.61.63-1.12.8-.88-.11-1.43,0-.76.42-1.28.64a9.87,9.87,0,0,0-1.76.64c-.59.38-.63,1-1.27,1.28s-1-.21-1.59,0-.73.67-1.28,1a5.67,5.67,0,0,1-1,.32c-.48.18-.8.12-1.28.32s-.82.69-1.44,1a13.93,13.93,0,0,1-1.44.32,9,9,0,0,0-1.12.47l-1-.79a7.47,7.47,0,0,1,1.27-1.12c.39-.22.8,0,1.12-.32s-.1-.94.32-1.12.56.2.8,0,.22-.54.48-.8.78.13,1.11-.16.13-.72.48-1,.7.14,1.12,0,1-1,1-1c.37-.38,1.17-.39,1.91-.64s1-.4,1.59-.64"></path><path class="cls-1" d="M112.3,132.1c-.23.3-.1.59-.16,1s-.27.59-.16,1,.75.39,1.27.48a6.6,6.6,0,0,0,1.28,0c.25-.69.79-1,.64-1.76a1.36,1.36,0,0,0-.32-.8c-.36-.38-.81-.2-1.34-.17s-.92-.07-1.21.33"></path></svg> 